<svg width="18" height="18" viewBox="0 0 18 18" fill="none" xmlns="http://www.w3.org/2000/svg">
<path fill-rule="evenodd" clip-rule="evenodd" d="M4.43029 5.02428C3.08152 6.07217 2.00654 7.33297 1.36939 8.16472L1.36696 8.16789L1.36695 8.16788C1.24558 8.32412 1.17969 8.51633 1.17969 8.71418C1.17969 8.91202 1.24558 9.10423 1.36695 9.26047L1.3694 9.26363L1.36939 9.26364C2.00654 10.0954 3.08152 11.3562 4.43029 12.4041C5.7857 13.4571 7.35742 14.2487 9.00013 14.2487C10.6428 14.2487 12.2146 13.4571 13.57 12.4041C14.9187 11.3562 15.9937 10.0955 16.6308 9.26372C16.8833 8.93394 16.8837 8.49541 16.6305 8.16427C15.9933 7.33252 14.9185 6.07198 13.57 5.02428C12.2146 3.97122 10.6428 3.17969 9.00013 3.17969C7.35742 3.17969 5.7857 3.97122 4.43029 5.02428ZM17.0991 7.80603L17.5674 7.44733C16.8983 6.5739 15.7532 5.2266 14.2937 4.0927C12.8409 2.96397 11.0163 2 9.00013 2C6.98399 2 5.15933 2.96397 3.70652 4.0927C2.24788 5.22596 1.10327 6.57238 0.434023 7.44586C0.152695 7.80878 0 8.25495 0 8.71418C0 9.17342 0.152704 9.61961 0.434048 9.98253C1.10329 10.856 2.2479 12.2024 3.70652 13.3357C5.15933 14.4644 6.98399 15.4284 9.00013 15.4284C11.0163 15.4284 12.8409 14.4644 14.2937 13.3357C15.7532 12.2018 16.8983 10.8545 17.5674 9.98102L17.5674 9.98094C18.1443 9.22759 18.144 8.20152 17.5677 7.44778L17.0991 7.80603Z" fill="#191919"/>
<path fill-rule="evenodd" clip-rule="evenodd" d="M9.24057 6.32569C7.82893 6.32569 6.68457 7.47004 6.68457 8.88168C6.68457 10.2933 7.82893 11.4377 9.24057 11.4377C10.6522 11.4377 11.7966 10.2933 11.7966 8.88168C11.7966 7.47004 10.6522 6.32569 9.24057 6.32569ZM5.50488 8.88168C5.50488 6.81852 7.17741 5.146 9.24057 5.146C11.3037 5.146 12.9763 6.81852 12.9763 8.88168C12.9763 10.9448 11.3037 12.6174 9.24057 12.6174C7.17741 12.6174 5.50488 10.9448 5.50488 8.88168Z" fill="#191919"/>
</svg>
