<svg width="15" height="15" viewBox="0 0 15 15" fill="none" xmlns="http://www.w3.org/2000/svg">
<path d="M1.27734 2.66055C1.27734 2.29383 1.42302 1.94213 1.68233 1.68282C1.94164 1.42351 2.29334 1.27783 2.66006 1.27783H4.92771C5.07276 1.27794 5.21409 1.32367 5.33171 1.40853C5.44934 1.4934 5.53729 1.61311 5.58312 1.75072L6.61878 4.85699C6.67125 5.01486 6.66504 5.18635 6.6013 5.34001C6.53755 5.49366 6.42053 5.61918 6.27171 5.69354L4.71132 6.47477C5.47618 8.16759 6.83203 9.52344 8.52485 10.2883L9.30608 8.72791C9.38044 8.57909 9.50596 8.46207 9.65961 8.39832C9.81327 8.33457 9.98476 8.32837 10.1426 8.38084L13.2489 9.4165C13.3866 9.46237 13.5064 9.55043 13.5913 9.66819C13.6762 9.78595 13.7218 9.92744 13.7218 10.0726V12.3396C13.7218 12.7063 13.5761 13.058 13.3168 13.3173C13.0575 13.5766 12.7058 13.7223 12.3391 13.7223H11.6477C5.9205 13.7223 1.27734 9.07912 1.27734 3.35191V2.66055Z" stroke="#191919" stroke-width="1.2" stroke-linecap="round" stroke-linejoin="round"/>
</svg>
