<svg width="18" height="18" viewBox="0 0 18 18" fill="none" xmlns="http://www.w3.org/2000/svg">
<path fill-rule="evenodd" clip-rule="evenodd" d="M15.1364 6.6273C16.7179 6.6273 18 5.3452 18 3.76366C18 2.18212 16.7179 0.900024 15.1364 0.900024C13.5548 0.900024 12.2727 2.18212 12.2727 3.76366C12.2727 3.90125 12.2824 4.03657 12.3012 4.16897L8.94652 6.28851C8.06032 5.01003 6.58248 4.17275 4.90909 4.17275C2.19787 4.17275 0 6.37063 0 9.08184C0 11.7931 2.19787 13.9909 4.90909 13.9909C6.58249 13.9909 8.06033 13.1537 8.94653 11.8752L12.3012 13.9947C12.2824 14.1271 12.2727 14.2624 12.2727 14.4C12.2727 15.9816 13.5548 17.2637 15.1364 17.2637C16.7179 17.2637 18 15.9816 18 14.4C18 12.8185 16.7179 11.5364 15.1364 11.5364C14.1373 11.5364 13.2577 12.048 12.7453 12.8236L9.51546 10.7829C9.71125 10.2529 9.81818 9.67987 9.81818 9.08184C9.81818 8.48381 9.71125 7.91076 9.51546 7.38076L12.7453 5.34008C13.2577 6.11565 14.1373 6.6273 15.1364 6.6273ZM15.1364 5.40002C16.0401 5.40002 16.7727 4.6674 16.7727 3.76366C16.7727 2.85992 16.0401 2.1273 15.1364 2.1273C14.2326 2.1273 13.5 2.85992 13.5 3.76366C13.5 4.6674 14.2326 5.40002 15.1364 5.40002ZM8.59091 9.08184C8.59091 11.1153 6.9425 12.7637 4.90909 12.7637C2.87568 12.7637 1.22727 11.1153 1.22727 9.08184C1.22727 7.04843 2.87568 5.40002 4.90909 5.40002C6.9425 5.40002 8.59091 7.04843 8.59091 9.08184ZM16.7727 14.4C16.7727 15.3038 16.0401 16.0364 15.1364 16.0364C14.2326 16.0364 13.5 15.3038 13.5 14.4C13.5 13.4963 14.2326 12.7637 15.1364 12.7637C16.0401 12.7637 16.7727 13.4963 16.7727 14.4Z" fill="#191919"/>
</svg>
