<svg width="18" height="18" viewBox="0 0 18 18" fill="none" xmlns="http://www.w3.org/2000/svg">
<path d="M10.1773 2.1273C6.53481 2.1273 3.58196 5.08016 3.58196 8.72268C3.58196 8.7227 3.58196 8.72267 3.58196 8.72268L5.93684 8.72273L2.96842 12.1152L0 8.72273H2.35468C2.35468 8.72272 2.35468 8.72275 2.35468 8.72273C2.35468 4.4024 5.85701 0.900024 10.1773 0.900024C14.4977 0.900024 18 4.40235 18 8.72268C18 13.043 14.4977 16.5453 10.1773 16.5453C9.83844 16.5453 9.5637 16.2706 9.5637 15.9317C9.5637 15.5928 9.83844 15.3181 10.1773 15.3181C13.8199 15.3181 16.7727 12.3652 16.7727 8.72268C16.7727 5.08016 13.8199 2.1273 10.1773 2.1273Z" fill="#191919"/>
<path d="M9.75332 4.7166C10.0922 4.7166 10.367 4.99133 10.367 5.33024V8.79067L13.0262 10.3102C13.3204 10.4784 13.4227 10.8532 13.2545 11.1475C13.0864 11.4417 12.7115 11.5439 12.4173 11.3758L9.44886 9.67956C9.25767 9.57031 9.13968 9.36698 9.13968 9.14677V5.33024C9.13968 4.99133 9.41441 4.7166 9.75332 4.7166Z" fill="#191919"/>
</svg>
