<svg width="19" height="19" viewBox="0 0 19 19" fill="none" xmlns="http://www.w3.org/2000/svg">
<g clip-path="url(#clip0_701_19023)">
<path fill-rule="evenodd" clip-rule="evenodd" d="M0.5 5.94531C0.5 5.34858 0.737053 4.77628 1.15901 4.35432C1.58097 3.93237 2.15326 3.69531 2.75 3.69531H11.1875C11.7332 3.69525 12.2604 3.89353 12.6708 4.25323C13.0812 4.61293 13.3469 5.10954 13.4184 5.65056L16.9171 4.09581C17.0884 4.01951 17.276 3.98721 17.4629 4.00186C17.6498 4.01651 17.8301 4.07764 17.9874 4.1797C18.1447 4.28175 18.2739 4.4215 18.3635 4.58623C18.453 4.75096 18.4999 4.93545 18.5 5.12294V13.5177C18.4998 13.705 18.4529 13.8894 18.3634 14.054C18.274 14.2186 18.1448 14.3582 17.9877 14.4602C17.8306 14.5623 17.6505 14.6234 17.4637 14.6382C17.2769 14.653 17.0895 14.6209 16.9182 14.5448L13.4184 12.9901C13.3469 13.5311 13.0812 14.0277 12.6708 14.3874C12.2604 14.7471 11.7332 14.9454 11.1875 14.9453H2.75C2.15326 14.9453 1.58097 14.7083 1.15901 14.2863C0.737053 13.8643 0.5 13.292 0.5 12.6953V5.94531ZM13.4375 11.7672L17.375 13.5177V5.12294L13.4375 6.87344V11.7672ZM2.75 4.82031C2.45163 4.82031 2.16548 4.93884 1.9545 5.14982C1.74353 5.3608 1.625 5.64694 1.625 5.94531V12.6953C1.625 12.9937 1.74353 13.2798 1.9545 13.4908C2.16548 13.7018 2.45163 13.8203 2.75 13.8203H11.1875C11.4859 13.8203 11.772 13.7018 11.983 13.4908C12.194 13.2798 12.3125 12.9937 12.3125 12.6953V5.94531C12.3125 5.64694 12.194 5.3608 11.983 5.14982C11.772 4.93884 11.4859 4.82031 11.1875 4.82031H2.75Z" fill="#191919"/>
</g>
<defs>
<clipPath id="clip0_701_19023">
<rect width="18" height="18" fill="white" transform="translate(0.5 0.320312)"/>
</clipPath>
</defs>
</svg>
