<svg width="18" height="18" viewBox="0 0 18 18" fill="none" xmlns="http://www.w3.org/2000/svg">
<path fill-rule="evenodd" clip-rule="evenodd" d="M5.70455 0.613636C5.70455 0.274734 5.42981 0 5.09091 0C4.75201 0 4.47727 0.274734 4.47727 0.613636V1.22727H1.81818C1.36631 1.22727 1 1.59359 1 2.04545V17.1818C1 17.6337 1.36631 18 1.81818 18H16.5455C16.9973 18 17.3636 17.6337 17.3636 17.1818V2.04545C17.3636 1.59359 16.9973 1.22727 16.5455 1.22727H13.8864V0.613636C13.8864 0.274734 13.6116 0 13.2727 0C12.9338 0 12.6591 0.274734 12.6591 0.613636V1.22727H5.70455V0.613636ZM12.6591 3.06818V2.45455H5.70455V3.06818C5.70455 3.40708 5.42981 3.68182 5.09091 3.68182C4.75201 3.68182 4.47727 3.40708 4.47727 3.06818V2.45455H2.22727V5.93182L16.1364 5.93182V2.45455H13.8864V3.06818C13.8864 3.40708 13.6116 3.68182 13.2727 3.68182C12.9338 3.68182 12.6591 3.40708 12.6591 3.06818ZM2.22727 16.7727V7.15909L16.1364 7.15909V16.7727H2.22727Z" fill="#191919"/>
</svg>
