<svg width="18" height="18" viewBox="0 0 18 18" fill="none" xmlns="http://www.w3.org/2000/svg">
<g clip-path="url(#clip0_573_16291)">
<path fill-rule="evenodd" clip-rule="evenodd" d="M10.8123 3.30541L14.0398 6.53292L15.7712 4.80161L12.5436 1.57411L10.8123 3.30541ZM9.94453 4.17322L13.172 7.40073L6.27522 14.2975L3.22702 14.1182L3.04771 11.07L9.94453 4.17322ZM1.91402 10.4681C1.83526 10.5469 1.79394 10.6555 1.80048 10.7667L2.04557 14.9333C2.05718 15.1307 2.21461 15.2881 2.41194 15.2997L6.57852 15.5448C6.68971 15.5513 6.79839 15.51 6.87715 15.4312L17.231 5.07734C17.3833 4.92506 17.3833 4.67816 17.231 4.52588L12.8194 0.114211C12.6671 -0.0380702 12.4202 -0.0380704 12.2679 0.114211L1.91402 10.4681Z" fill="#191919"/>
<path fill-rule="evenodd" clip-rule="evenodd" d="M1.96693 17.3864C1.96693 17.0475 2.24166 16.7727 2.58056 16.7727H14.113C14.4519 16.7727 14.7266 17.0475 14.7266 17.3864C14.7266 17.7253 14.4519 18 14.113 18H2.58056C2.24166 18 1.96693 17.7253 1.96693 17.3864Z" fill="#191919"/>
</g>
<defs>
<clipPath id="clip0_573_16291">
<rect width="18" height="18" fill="white"/>
</clipPath>
</defs>
</svg>
