<svg width="18" height="18" viewBox="0 0 18 18" fill="none" xmlns="http://www.w3.org/2000/svg">
<path d="M13.3203 5.54754C13.5599 5.3079 13.5599 4.91937 13.3203 4.67973C13.0806 4.44009 12.6921 4.44009 12.4524 4.67973L6.34092 10.7913L5.54756 9.99792C5.30792 9.75828 4.91938 9.75828 4.67974 9.99792C4.4401 10.2376 4.4401 10.6261 4.67974 10.8657L5.4731 11.6591L4.09092 13.0413L1.04755 9.99792C0.807905 9.75828 0.419371 9.75828 0.17973 9.99792C-0.0599101 10.2376 -0.0599101 10.6261 0.17973 10.8657L3.65701 14.343C3.77209 14.4581 3.92817 14.5227 4.09092 14.5227C4.25367 14.5227 4.40975 14.4581 4.52483 14.343L6.34092 12.5269L8.15702 14.343C8.2721 14.4581 8.42818 14.5227 8.59093 14.5227C8.75368 14.5227 8.90976 14.4581 9.02484 14.343L17.8203 5.54754C18.0599 5.3079 18.0599 4.91937 17.8203 4.67973C17.5806 4.44009 17.1921 4.44009 16.9525 4.67973L8.59093 13.0413L7.20873 11.6591L13.3203 5.54754Z" fill="#191919"/>
</svg>
