<svg width="26" height="26" viewBox="0 0 26 26" fill="none" xmlns="http://www.w3.org/2000/svg">
<g clip-path="url(#clip0_573_13108)">
<path fill-rule="evenodd" clip-rule="evenodd" d="M24.8182 8.86364C25.4709 8.86364 26 9.39275 26 10.0455L26 15.9545C26 16.6072 25.4709 17.1364 24.8182 17.1364L1.18182 17.1364C0.52912 17.1364 1.18142e-06 16.6072 1.20995e-06 15.9545L1.46825e-06 10.0455C1.49678e-06 9.39275 0.52912 8.86363 1.18182 8.86363L24.8182 8.86364ZM1.77273 10.6364L24.2273 10.6364L24.2273 15.3636L1.77273 15.3636L1.77273 10.6364Z" fill="#191919"/>
<path fill-rule="evenodd" clip-rule="evenodd" d="M18.9091 1.18182C18.9091 0.529118 18.38 -3.33082e-07 17.7273 -3.61612e-07L1.18182 -1.08484e-06C0.52912 -1.11337e-06 1.88422e-06 0.529117 1.85569e-06 1.18182L1.64905e-06 5.90909C1.62052e-06 6.56179 0.52912 7.09091 1.18182 7.09091L17.7273 7.09091C18.38 7.09091 18.9091 6.56179 18.9091 5.90909L18.9091 1.18182ZM17.1364 1.77273L1.77273 1.77273L1.77273 5.31818L17.1364 5.31818L17.1364 1.77273Z" fill="#191919"/>
<path fill-rule="evenodd" clip-rule="evenodd" d="M18.9091 20.0909C18.9091 19.4382 18.38 18.9091 17.7273 18.9091L1.18182 18.9091C0.52912 18.9091 1.05768e-06 19.4382 1.02915e-06 20.0909L8.22512e-07 24.8182C7.93981e-07 25.4709 0.529119 26 1.18182 26L17.7273 26C18.38 26 18.9091 25.4709 18.9091 24.8182L18.9091 20.0909ZM17.1364 20.6818L1.77273 20.6818L1.77273 24.2273L17.1364 24.2273L17.1364 20.6818Z" fill="#191919"/>
<path d="M17.1364 1.77273L1.77273 1.77273L1.77273 5.31818L17.1364 5.31818L17.1364 1.77273Z" fill="#191919"/>
<path d="M17.1364 20.6818L1.77273 20.6818L1.77273 24.2273L17.1364 24.2273L17.1364 20.6818Z" fill="#191919"/>
</g>
<defs>
<clipPath id="clip0_573_13108">
<rect width="26" height="26" fill="white" transform="translate(26) rotate(90)"/>
</clipPath>
</defs>
</svg>
