<svg width="18" height="18" viewBox="0 0 18 18" fill="none" xmlns="http://www.w3.org/2000/svg">
<path fill-rule="evenodd" clip-rule="evenodd" d="M6.3747 2.19704C6.22684 1.95059 5.96051 1.7998 5.67312 1.7998H0.818182C0.366313 1.7998 0 2.16612 0 2.61799V15.2998C0 15.7517 0.366313 16.118 0.818182 16.118H17.1818C17.6337 16.118 18 15.7517 18 15.2998V4.66344C18 4.21157 17.6337 3.84526 17.1818 3.84526H7.59526C7.45156 3.84526 7.3184 3.76986 7.24447 3.64664L6.3747 2.19704ZM1.22727 7.32253V3.02708H5.44149L6.19209 4.27807C6.48782 4.77095 7.02047 5.07253 7.59526 5.07253H16.7727V7.32253H1.22727ZM1.22727 8.54981V14.8907H16.7727V8.54981H1.22727Z" fill="#191919"/>
</svg>
