<svg width="121" height="35" viewBox="0 0 121 35" fill="none" xmlns="http://www.w3.org/2000/svg">
<g clip-path="url(#clip0_573_14009)">
<path d="M28.7788 16.0214C27.375 18.387 24.3513 19.1935 21.9756 17.8494L12.9586 12.6343C10.5829 11.2365 9.773 8.22572 11.1228 5.86013C12.5267 3.49454 15.5503 2.68809 17.9261 4.03218L26.943 9.24723C29.3187 10.6451 30.1826 13.6558 28.7788 16.0214Z" fill="url(#paint0_linear_573_14009)"/>
<path opacity="0.7" d="M17.9263 32.957C15.1727 33.2258 12.6889 31.2365 12.419 28.5484L10.3672 8.87095C10.0972 6.12902 12.095 3.70966 14.7947 3.44084H14.8487C17.6024 3.17203 20.0321 5.16127 20.3021 7.84945L22.3538 27.5269C22.6238 30.2688 20.68 32.6882 17.9263 32.957Z" fill="url(#paint1_linear_573_14009)"/>
<path d="M6.42612 5.69893C8.00658 5.69893 9.28779 4.42318 9.28779 2.84946C9.28779 1.27575 8.00658 0 6.42612 0C4.84567 0 3.56445 1.27575 3.56445 2.84946C3.56445 4.42318 4.84567 5.69893 6.42612 5.69893Z" fill="url(#paint2_linear_573_14009)"/>
<path d="M25.1074 32.4732C23.7036 34.8388 20.6799 35.6452 18.3042 34.3012L2.48403 25.2151C0.108301 23.8173 -0.701605 20.8065 0.648238 18.4409C2.05208 16.0754 5.07573 15.2689 7.45145 16.613L23.2716 25.699C25.7013 27.0431 26.5112 30.1076 25.1074 32.4732Z" fill="url(#paint3_linear_573_14009)"/>
<path d="M40.6572 27.4192L40.9272 25.2687V11.6128H46.1106V23.7096H55.6675L57.2873 27.0967C57.2873 27.1504 57.0173 27.258 56.5854 27.3117C56.0994 27.3655 55.2355 27.4192 54.0477 27.4192H40.6572Z" fill="#202124"/>
<path d="M64.522 27.6881C62.7402 27.6881 61.3364 27.258 60.4185 26.3977C59.5006 25.5375 59.0146 24.1934 59.0146 22.3117V11.6128H64.306V21.8278C64.306 22.6881 64.522 23.2257 64.9 23.4945C65.3319 23.7633 65.8179 23.9246 66.4658 23.9246H69.9754C70.5693 23.9246 71.0553 23.7633 71.4872 23.4945C71.9192 23.2257 72.1351 22.6343 72.1351 21.8278V11.6128H77.3185V22.3117C77.3185 24.1934 76.8866 25.5375 75.9687 26.3977C75.0508 27.258 73.701 27.6881 71.8652 27.6881H64.522Z" fill="#202124"/>
<path d="M86.3902 27.4193C84.4464 27.4193 83.0426 26.9892 82.1787 26.129C81.3148 25.2688 80.8828 23.9247 80.8828 22.043V17.1505C80.8828 15.215 81.3688 13.8171 82.3406 12.9032C83.3125 12.043 84.6624 11.5591 86.3902 11.5591H94.2733C95.5151 11.5591 96.487 11.6128 97.1349 11.7741C97.7828 11.9354 98.1068 12.043 98.1068 12.2042L97.2969 15.5376C96.865 15.4838 95.9471 15.4301 94.6512 15.3763C93.3554 15.3225 91.6816 15.2688 89.7378 15.2688H88.3339C87.47 15.2688 86.9301 15.43 86.6061 15.7526C86.2822 16.0752 86.1742 16.5591 86.1742 17.2042V21.7741C86.1742 22.3655 86.2822 22.8494 86.5522 23.172C86.8221 23.4946 87.4161 23.6559 88.3339 23.6559H89.4678C92.0595 23.6559 94.0033 23.6021 95.3531 23.5483C96.703 23.4946 97.5129 23.4408 97.7829 23.3333L99.4027 26.2365C99.4027 26.344 99.2407 26.4516 98.8627 26.6666C98.4848 26.8279 97.8908 26.9892 96.9729 27.1505C96.109 27.3118 94.8672 27.3655 93.3554 27.3655H86.3902V27.4193Z" fill="#202124"/>
<path d="M107.825 27.4192V20.8601L99.9424 11.6128H106.422L109.121 15.3225L110.363 17.258H110.633L111.875 15.3225L114.521 11.6128H121L119.92 13.2257L113.063 20.9676V27.4192H107.825Z" fill="#202124"/>
</g>
<defs>
<linearGradient id="paint0_linear_573_14009" x1="10.4289" y1="10.9581" x2="29.4542" y2="10.9581" gradientUnits="userSpaceOnUse">
<stop stop-color="#2F4858"/>
<stop offset="1" stop-color="#00BF8A"/>
</linearGradient>
<linearGradient id="paint1_linear_573_14009" x1="11.3132" y1="14.7014" x2="20.0011" y2="20.0379" gradientUnits="userSpaceOnUse">
<stop stop-color="#57E260"/>
<stop offset="1" stop-color="#00BF8A"/>
</linearGradient>
<linearGradient id="paint2_linear_573_14009" x1="3.53211" y1="2.86651" x2="9.28968" y2="2.86651" gradientUnits="userSpaceOnUse">
<stop stop-color="#57E260"/>
<stop offset="1" stop-color="#00BF8A"/>
</linearGradient>
<linearGradient id="paint3_linear_573_14009" x1="0.00031331" y1="25.4537" x2="25.8016" y2="25.4537" gradientUnits="userSpaceOnUse">
<stop stop-color="#2F4858"/>
<stop offset="1" stop-color="#00BF8A"/>
</linearGradient>
<clipPath id="clip0_573_14009">
<rect width="121" height="35" fill="white"/>
</clipPath>
</defs>
</svg>
