<svg width="18" height="18" viewBox="0 0 18 18" fill="none" xmlns="http://www.w3.org/2000/svg">
<path fill-rule="evenodd" clip-rule="evenodd" d="M9 16.7727C13.2928 16.7727 16.7727 13.2928 16.7727 9C16.7727 4.70724 13.2928 1.22727 9 1.22727C4.70724 1.22727 1.22727 4.70724 1.22727 9C1.22727 13.2928 4.70724 16.7727 9 16.7727ZM9 18C13.9706 18 18 13.9706 18 9C18 4.02944 13.9706 0 9 0C4.02944 0 0 4.02944 0 9C0 13.9706 4.02944 18 9 18Z" fill="#191919"/>
<path fill-rule="evenodd" clip-rule="evenodd" d="M10.1166 9L8.18182 7.66052V10.3395L10.1166 9ZM11.7869 9.33635C12.0219 9.17368 12.0219 8.82632 11.7869 8.66365L7.59649 5.76261C7.32517 5.57477 6.95455 5.76896 6.95455 6.09896V11.901C6.95455 12.231 7.32517 12.4252 7.59649 12.2374L11.7869 9.33635Z" fill="#191919"/>
</svg>
