<svg width="18" height="18" viewBox="0 0 18 18" fill="none" xmlns="http://www.w3.org/2000/svg">
<path d="M7.6875 9C7.6875 8.68934 7.93934 8.4375 8.25 8.4375H13.5C13.8107 8.4375 14.0625 8.68934 14.0625 9C14.0625 9.31066 13.8107 9.5625 13.5 9.5625H8.25C7.93934 9.5625 7.6875 9.31066 7.6875 9Z" fill="#191919"/>
<path d="M8.25 11.4375C7.93934 11.4375 7.6875 11.6893 7.6875 12C7.6875 12.3107 7.93934 12.5625 8.25 12.5625H12C12.3107 12.5625 12.5625 12.3107 12.5625 12C12.5625 11.6893 12.3107 11.4375 12 11.4375H8.25Z" fill="#191919"/>
<path fill-rule="evenodd" clip-rule="evenodd" d="M2.625 0.75C2.10723 0.75 1.6875 1.16973 1.6875 1.6875V13.875C1.6875 14.3928 2.10723 14.8125 2.625 14.8125H5.25V16.5C5.25 16.9142 5.58579 17.25 6 17.25H15.75C16.1642 17.25 16.5 16.9142 16.5 16.5V4.5C16.5 4.08579 16.1642 3.75 15.75 3.75H14.0625V1.6875C14.0625 1.16973 13.6428 0.75 13.125 0.75H2.625ZM12.9375 3.75V1.875H2.8125V13.6875H5.25V4.5C5.25 4.08579 5.58579 3.75 6 3.75H12.9375ZM6.375 16.125V4.875H15.375V16.125H6.375Z" fill="#191919"/>
</svg>
