<svg width="18" height="18" viewBox="0 0 18 18" fill="none" xmlns="http://www.w3.org/2000/svg">
<path fill-rule="evenodd" clip-rule="evenodd" d="M13.9091 2.12727H4.09091V7.85454C4.09091 10.5658 6.28878 12.7636 9 12.7636C11.7112 12.7636 13.9091 10.5658 13.9091 7.85454V2.12727ZM2.86364 0.899994V7.85454C2.86364 11.2436 5.61098 13.9909 9 13.9909C12.389 13.9909 15.1364 11.2436 15.1364 7.85454V0.899994H2.86364Z" fill="#191919"/>
<path fill-rule="evenodd" clip-rule="evenodd" d="M15.75 4.17272H15.1364V6.21818H15.75C16.3148 6.21818 16.7727 5.76029 16.7727 5.19545C16.7727 4.63061 16.3148 4.17272 15.75 4.17272ZM13.9091 2.94545V7.44545H15.75C16.9926 7.44545 18 6.43809 18 5.19545C18 3.95281 16.9926 2.94545 15.75 2.94545H13.9091Z" fill="#191919"/>
<path fill-rule="evenodd" clip-rule="evenodd" d="M2.25 4.17272H2.86364V6.21818H2.25C1.68516 6.21818 1.22727 5.76029 1.22727 5.19545C1.22727 4.63061 1.68516 4.17272 2.25 4.17272ZM4.09091 2.94545V7.44545H2.25C1.00736 7.44545 0 6.43809 0 5.19545C0 3.95281 1.00736 2.94545 2.25 2.94545H4.09091Z" fill="#191919"/>
<path fill-rule="evenodd" clip-rule="evenodd" d="M9 12.9682C9.3389 12.9682 9.61364 13.2429 9.61364 13.5818V15.8318H11.4545C11.7934 15.8318 12.0682 16.1065 12.0682 16.4455C12.0682 16.7844 11.7934 17.0591 11.4545 17.0591H6.54545C6.20655 17.0591 5.93182 16.7844 5.93182 16.4455C5.93182 16.1065 6.20655 15.8318 6.54545 15.8318H8.38636V13.5818C8.38636 13.2429 8.6611 12.9682 9 12.9682Z" fill="#191919"/>
</svg>
