<svg width="18" height="18" viewBox="0 0 18 18" fill="none" xmlns="http://www.w3.org/2000/svg">
<path fill-rule="evenodd" clip-rule="evenodd" d="M5.19585 0.818182C5.19585 0.366312 5.56216 0 6.01403 0H11.7413C12.1932 0 12.5595 0.366313 12.5595 0.818182V1.22727H15.4231C16.2139 1.22727 16.8549 1.86832 16.8549 2.65909V16.5682C16.8549 17.359 16.2139 18 15.4231 18H2.33221C1.54144 18 0.900391 17.359 0.900391 16.5682V2.65909C0.900391 1.86832 1.54144 1.22727 2.33221 1.22727H5.19585V0.818182ZM6.42312 2.45455V1.22727H11.3322V2.45455H6.42312ZM12.5595 2.86364C12.5595 3.31551 12.1932 3.68182 11.7413 3.68182H6.01403C5.56216 3.68182 5.19585 3.31551 5.19585 2.86364V2.45455H2.33221C2.21924 2.45455 2.12766 2.54612 2.12766 2.65909V16.5682C2.12766 16.6811 2.21924 16.7727 2.33221 16.7727H15.4231C15.5361 16.7727 15.6277 16.6811 15.6277 16.5682V2.65909C15.6277 2.54612 15.5361 2.45455 15.4231 2.45455H12.5595V2.86364Z" fill="#191919"/>
</svg>
