<svg width="18" height="18" viewBox="0 0 18 18" fill="none" xmlns="http://www.w3.org/2000/svg">
<path fill-rule="evenodd" clip-rule="evenodd" d="M0 17.3864C0 13.6354 2.4277 10.4515 5.79754 9.32017C4.38821 8.42344 3.45321 6.84765 3.45321 5.05348C3.45321 2.26252 5.71573 0 8.50668 0C11.2976 0 13.5602 2.26252 13.5602 5.05348C13.5602 7.84443 11.2976 10.107 8.50668 10.107C4.48638 10.107 1.22727 13.3661 1.22727 17.3864C1.22727 17.7253 0.952538 18 0.613636 18C0.274734 18 0 17.7253 0 17.3864ZM4.68048 5.05348C4.68048 2.94032 6.39353 1.22727 8.50668 1.22727C10.6198 1.22727 12.3329 2.94032 12.3329 5.05348C12.3329 7.16663 10.6198 8.87968 8.50668 8.87968C6.39353 8.87968 4.68048 7.16663 4.68048 5.05348Z" fill="#191919"/>
<path d="M13.5 12.4773C13.5 12.1384 13.2253 11.8636 12.8864 11.8636C12.5475 11.8636 12.2727 12.1384 12.2727 12.4773V13.0909H11.6591C11.3202 13.0909 11.0455 13.3656 11.0455 13.7045C11.0455 14.0434 11.3202 14.3182 11.6591 14.3182H12.2727V14.9318C12.2727 15.2707 12.5475 15.5455 12.8864 15.5455C13.2253 15.5455 13.5 15.2707 13.5 14.9318V14.3182H14.1136C14.4525 14.3182 14.7273 14.0434 14.7273 13.7045C14.7273 13.3656 14.4525 13.0909 14.1136 13.0909H13.5V12.4773Z" fill="#191919"/>
<path fill-rule="evenodd" clip-rule="evenodd" d="M12.8864 9.40909C10.514 9.40909 8.59091 11.3322 8.59091 13.7045C8.59091 16.0769 10.514 18 12.8864 18C15.2587 18 17.1818 16.0769 17.1818 13.7045C17.1818 11.3322 15.2587 9.40909 12.8864 9.40909ZM9.81818 13.7045C9.81818 12.01 11.1919 10.6364 12.8864 10.6364C14.5809 10.6364 15.9545 12.01 15.9545 13.7045C15.9545 15.3991 14.5809 16.7727 12.8864 16.7727C11.1919 16.7727 9.81818 15.3991 9.81818 13.7045Z" fill="#191919"/>
</svg>
