<svg width="12" height="15" viewBox="0 0 12 15" fill="none" xmlns="http://www.w3.org/2000/svg">
<path d="M3.12936 14.2384C2.85334 14.0547 2.6087 13.8278 2.40486 13.5664C2.18063 13.2965 1.97288 13.0134 1.78273 12.7185C1.33652 12.0648 0.986587 11.3503 0.743672 10.5971C0.451859 9.72206 0.310547 8.88337 0.310547 8.06306C0.310547 7.14694 0.508734 6.34719 0.89636 5.67519C1.1837 5.14994 1.60617 4.71101 2.12005 4.40381C2.61806 4.09449 3.19028 3.92521 3.77642 3.91381C3.98161 3.91381 4.20255 3.94356 4.43705 4.00044C4.60548 4.04812 4.81067 4.12337 5.06136 4.217C5.3803 4.33994 5.55573 4.41519 5.61523 4.43356C5.80205 4.50181 5.95911 4.53156 6.08248 4.53156C6.17611 4.53156 6.30824 4.50181 6.4583 4.45631C6.54274 4.42656 6.70198 4.37406 6.92992 4.2765C7.15567 4.19425 7.3333 4.12381 7.47461 4.07131C7.69117 4.00744 7.90074 3.94837 8.08755 3.91862C8.30902 3.88371 8.53377 3.87446 8.75736 3.89106C9.14482 3.91639 9.52646 3.99849 9.89005 4.13475C10.4846 4.37406 10.9654 4.74769 11.3233 5.27881C11.172 5.37204 11.0301 5.47958 10.8994 5.59994C10.6148 5.85219 10.3724 6.14833 10.1814 6.47712C9.93174 6.92646 9.80229 7.43265 9.80561 7.94669C9.8148 8.578 9.97667 9.13406 10.2956 9.61487C10.5301 9.97122 10.8348 10.276 11.1912 10.5104C11.3736 10.6334 11.5307 10.7178 11.6812 10.7747C11.6107 10.9934 11.5355 11.2052 11.4467 11.4152C11.2452 11.8861 11.0011 12.3376 10.7174 12.764C10.4645 13.1311 10.2663 13.4045 10.1158 13.5865C9.8813 13.8643 9.65555 14.0765 9.42761 14.2244C9.17692 14.3906 8.88074 14.4794 8.57974 14.4794C8.37588 14.4873 8.17208 14.4626 7.97598 14.4064C7.80755 14.3495 7.64086 14.2878 7.4768 14.2174C7.30623 14.139 7.13036 14.0728 6.95049 14.0192C6.50585 13.905 6.03967 13.9042 5.59467 14.017C5.41223 14.0695 5.2368 14.1307 5.06355 14.206C4.81986 14.3084 4.65798 14.3771 4.56436 14.4064C4.37755 14.4611 4.18373 14.4952 3.98773 14.5066C3.68455 14.5066 3.40192 14.4199 3.12192 14.2445L3.12936 14.2384ZM7.12811 3.46931C6.73173 3.6675 6.3533 3.75194 5.97748 3.72437C5.91842 3.34594 5.97748 2.95875 6.13455 2.53481C6.26826 2.17565 6.46584 1.84364 6.71773 1.55481C6.98374 1.25076 7.30652 1.00154 7.66799 0.821125C8.05299 0.622937 8.42005 0.51575 8.77092 0.5C8.81642 0.896375 8.77092 1.28619 8.62524 1.7075C8.49041 2.07994 8.2932 2.42672 8.04205 2.733C7.7857 3.03747 7.4711 3.28766 7.11673 3.46887L7.12811 3.46931Z" fill="#191919"/>
</svg>
