<svg width="14" height="14" viewBox="0 0 14 14" fill="none" xmlns="http://www.w3.org/2000/svg">
<g clip-path="url(#clip0_177_3278)">
<path d="M4.12912 13.7379C3.85309 13.5542 3.60846 13.3273 3.40462 13.0659C3.18039 12.796 2.97264 12.5129 2.78249 12.218C2.33628 11.5643 1.98634 10.8499 1.74343 10.0966C1.45162 9.22157 1.3103 8.38289 1.3103 7.56257C1.3103 6.64645 1.50849 5.8467 1.89612 5.1747C2.18346 4.64945 2.60592 4.21053 3.1198 3.90332C3.61781 3.594 4.19003 3.42472 4.77618 3.41332C4.98137 3.41332 5.2023 3.44307 5.4368 3.49995C5.60524 3.54764 5.81043 3.62289 6.06112 3.71651C6.38005 3.83945 6.55549 3.9147 6.61499 3.93307C6.8018 4.00132 6.95887 4.03107 7.08224 4.03107C7.17587 4.03107 7.30799 4.00132 7.45805 3.95582C7.54249 3.92607 7.70174 3.87357 7.92968 3.77601C8.15543 3.69376 8.33305 3.62332 8.47437 3.57082C8.69093 3.50695 8.90049 3.44789 9.0873 3.41814C9.30877 3.38322 9.53353 3.37397 9.75712 3.39057C10.1446 3.4159 10.5262 3.498 10.8898 3.63426C11.4844 3.87357 11.9652 4.2472 12.3231 4.77832C12.1718 4.87155 12.0298 4.97909 11.8991 5.09945C11.6146 5.3517 11.3722 5.64784 11.1812 5.97664C10.9315 6.42598 10.8021 6.93216 10.8054 7.4462C10.8146 8.07751 10.9764 8.63357 11.2954 9.11439C11.5298 9.47073 11.8346 9.77547 12.1909 10.0099C12.3734 10.1329 12.5304 10.2173 12.6809 10.2742C12.6105 10.4929 12.5352 10.7047 12.4464 10.9147C12.245 11.3856 12.0009 11.8371 11.7171 12.2635C11.4642 12.6306 11.2661 12.904 11.1156 13.086C10.8811 13.3638 10.6553 13.576 10.4274 13.7239C10.1767 13.8901 9.88049 13.9789 9.57949 13.9789C9.37564 13.9868 9.17184 13.9621 8.97574 13.9059C8.8073 13.849 8.64062 13.7873 8.47655 13.7169C8.30599 13.6385 8.13012 13.5723 7.95024 13.5187C7.50561 13.4045 7.03942 13.4037 6.59443 13.5165C6.41199 13.569 6.23655 13.6303 6.0633 13.7055C5.81962 13.8079 5.65774 13.8766 5.56412 13.9059C5.3773 13.9606 5.18349 13.9947 4.98749 14.0061C4.6843 14.0061 4.40168 13.9194 4.12168 13.744L4.12912 13.7379ZM8.12787 2.96882C7.73149 3.16701 7.35305 3.25145 6.97724 3.22389C6.91818 2.84545 6.97724 2.45826 7.1343 2.03432C7.26802 1.67517 7.46559 1.34315 7.71749 1.05432C7.98349 0.750271 8.30628 0.501051 8.66774 0.320637C9.05274 0.122449 9.4198 0.0152617 9.77068 -0.000488281C9.81618 0.395887 9.77068 0.785699 9.62499 1.20701C9.49017 1.57945 9.29296 1.92623 9.0418 2.23251C8.78545 2.53698 8.47086 2.78717 8.11649 2.96839L8.12787 2.96882Z" fill="#191919"/>
</g>
<defs>
<clipPath id="clip0_177_3278">
<rect width="14" height="14" fill="white"/>
</clipPath>
</defs>
</svg>
