<svg width="18" height="18" viewBox="0 0 18 18" fill="none" xmlns="http://www.w3.org/2000/svg">
<path fill-rule="evenodd" clip-rule="evenodd" d="M3.94305 1.22727L2.17652 16.7727H16.6091L14.8425 1.22727H3.94305ZM3.57781 0C3.16169 0 2.81185 0.312337 2.76486 0.7258L0.905358 17.0894C0.850206 17.5748 1.22984 18 1.71831 18H17.0673C17.5557 18 17.9354 17.5748 17.8802 17.0894L16.0207 0.725801C15.9737 0.312338 15.6239 0 15.2078 0H3.57781Z" fill="#191919"/>
<path fill-rule="evenodd" clip-rule="evenodd" d="M6.15122 5.15884C6.41821 4.95011 6.80387 4.99734 7.01259 5.26434C7.5662 5.97248 8.42639 6.42585 9.39279 6.42585C10.3592 6.42585 11.2194 5.97248 11.773 5.26434C11.9817 4.99734 12.3674 4.95011 12.6344 5.15884C12.9014 5.36757 12.9486 5.75322 12.7399 6.02022C11.9637 7.01307 10.7528 7.65313 9.39279 7.65313C8.03276 7.65313 6.8219 7.01307 6.04572 6.02022C5.83699 5.75322 5.88422 5.36757 6.15122 5.15884Z" fill="#191919"/>
</svg>
