<svg width="18" height="18" viewBox="0 0 18 18" fill="none" xmlns="http://www.w3.org/2000/svg">
<path fill-rule="evenodd" clip-rule="evenodd" d="M5.13845 3.77983C5.37809 4.01947 5.37809 4.40801 5.13845 4.64765L1.48145 8.30465L5.13845 11.9617C5.37809 12.2013 5.37809 12.5898 5.13845 12.8295C4.89881 13.0691 4.51028 13.0691 4.27064 12.8295L0.17973 8.73856C-0.05991 8.49892 -0.05991 8.11038 0.17973 7.87074L4.27064 3.77983C4.51028 3.54019 4.89881 3.54019 5.13845 3.77983Z" fill="#191919"/>
<path fill-rule="evenodd" clip-rule="evenodd" d="M12.8615 3.77983C13.1012 3.54019 13.4897 3.54019 13.7294 3.77983L17.8203 7.87074C18.0599 8.11038 18.0599 8.49892 17.8203 8.73856L13.7294 12.8295C13.4897 13.0691 13.1012 13.0691 12.8615 12.8295C12.6219 12.5898 12.6219 12.2013 12.8615 11.9617L16.5186 8.30465L12.8615 4.64764C12.6219 4.408 12.6219 4.01947 12.8615 3.77983Z" fill="#191919"/>
<path fill-rule="evenodd" clip-rule="evenodd" d="M5.52273 8.30465C5.52273 7.96575 5.79746 7.69101 6.13636 7.69101H11.8636C12.2025 7.69101 12.4773 7.96575 12.4773 8.30465C12.4773 8.64355 12.2025 8.91829 11.8636 8.91829H6.13636C5.79746 8.91829 5.52273 8.64355 5.52273 8.30465Z" fill="#191919"/>
</svg>
