<svg width="18" height="18" viewBox="0 0 18 18" fill="none" xmlns="http://www.w3.org/2000/svg">
<path fill-rule="evenodd" clip-rule="evenodd" d="M9 12.2727C10.8075 12.2727 12.2727 10.8075 12.2727 9C12.2727 7.40226 11.1278 6.07193 9.61364 5.78471V3.68182C9.61364 3.34292 9.3389 3.06818 9 3.06818C8.6611 3.06818 8.38636 3.34292 8.38636 3.68182V5.78471C6.8722 6.07193 5.72727 7.40226 5.72727 9C5.72727 10.8075 7.19252 12.2727 9 12.2727ZM9 11.0455C10.1297 11.0455 11.0455 10.1297 11.0455 9C11.0455 7.87033 10.1297 6.95455 9 6.95455C7.87033 6.95455 6.95455 7.87033 6.95455 9C6.95455 10.1297 7.87033 11.0455 9 11.0455Z" fill="#191919"/>
<path fill-rule="evenodd" clip-rule="evenodd" d="M9 18C13.9706 18 18 13.9706 18 9C18 4.02944 13.9706 0 9 0C4.02944 0 0 4.02944 0 9C0 13.9706 4.02944 18 9 18ZM9 16.7727C13.2928 16.7727 16.7727 13.2928 16.7727 9C16.7727 4.70724 13.2928 1.22727 9 1.22727C4.70724 1.22727 1.22727 4.70724 1.22727 9C1.22727 13.2928 4.70724 16.7727 9 16.7727Z" fill="#191919"/>
</svg>
