<svg width="18" height="18" viewBox="0 0 18 18" fill="none" xmlns="http://www.w3.org/2000/svg">
<path d="M7.77273 8.67275C7.77273 9.35056 7.22326 9.90002 6.54545 9.90002C5.86765 9.90002 5.31818 9.35056 5.31818 8.67275C5.31818 7.99495 5.86765 7.44548 6.54545 7.44548C7.22326 7.44548 7.77273 7.99495 7.77273 8.67275Z" fill="#191919"/>
<path d="M12.6818 8.67275C12.6818 9.35056 12.1323 9.90002 11.4545 9.90002C10.7767 9.90002 10.2273 9.35056 10.2273 8.67275C10.2273 7.99495 10.7767 7.44548 11.4545 7.44548C12.1323 7.44548 12.6818 7.99495 12.6818 8.67275Z" fill="#191919"/>
<path fill-rule="evenodd" clip-rule="evenodd" d="M9 2.1273C4.62983 2.1273 1.22727 5.22192 1.22727 8.8773C1.22727 12.5327 4.62983 15.6273 9 15.6273C9.96322 15.6273 10.8837 15.4751 11.7323 15.1981C11.9588 15.1241 12.21 15.1279 12.4409 15.2215L14.7273 16.1483V13.8645C14.7273 13.5933 14.8349 13.3414 15.0115 13.1545C16.1196 11.9816 16.7727 10.4911 16.7727 8.8773C16.7727 5.22192 13.3702 2.1273 9 2.1273ZM0 8.8773C0 4.39902 4.10685 0.900024 9 0.900024C13.8932 0.900024 18 4.39902 18 8.8773C18 10.8099 17.2254 12.5733 15.9545 13.9429V16.4519C15.9545 17.1774 15.22 17.6723 14.5476 17.3997L12.047 16.3861C11.0941 16.6897 10.0679 16.8546 9 16.8546C4.10685 16.8546 0 13.3556 0 8.8773Z" fill="#191919"/>
</svg>
