<svg width="18" height="18" viewBox="0 0 18 18" fill="none" xmlns="http://www.w3.org/2000/svg">
<path fill-rule="evenodd" clip-rule="evenodd" d="M5.76923 1.72727C5.76923 1.32561 6.09067 1 6.48718 1H11.5128C11.9093 1 12.2308 1.32561 12.2308 1.72727V2.09091H14.7436C15.4375 2.09091 16 2.66073 16 3.36364V15.7273C16 16.4302 15.4375 17 14.7436 17H3.25641C2.56251 17 2 16.4302 2 15.7273V3.36364C2 2.66073 2.56251 2.09091 3.25641 2.09091H5.76923V1.72727ZM6.84615 3.18182V2.09091H11.1538V3.18182H6.84615ZM12.2308 3.54545C12.2308 3.94712 11.9093 4.27273 11.5128 4.27273H6.48718C6.09067 4.27273 5.76923 3.94712 5.76923 3.54545V3.18182H3.25641C3.15728 3.18182 3.07692 3.26322 3.07692 3.36364V15.7273C3.07692 15.8277 3.15728 15.9091 3.25641 15.9091H14.7436C14.8427 15.9091 14.9231 15.8277 14.9231 15.7273V3.36364C14.9231 3.26322 14.8427 3.18182 14.7436 3.18182H12.2308V3.54545Z" fill="#191919"/>
<path fill-rule="evenodd" clip-rule="evenodd" d="M11.66 7.63889C11.66 9.09631 10.4691 10.2778 9.00001 10.2778C7.53093 10.2778 6.34001 9.09631 6.34001 7.63889C6.34001 6.18147 7.53093 5 9.00001 5C10.4691 5 11.66 6.18147 11.66 7.63889ZM10.5547 7.63889C10.5547 8.49073 9.85867 9.18128 9.00001 9.18128C8.14135 9.18128 7.44527 8.49073 7.44527 7.63889C7.44527 6.78705 8.14135 6.09649 9.00001 6.09649C9.85867 6.09649 10.5547 6.78705 10.5547 7.63889Z" fill="#191919"/>
<path fill-rule="evenodd" clip-rule="evenodd" d="M5.5 13.845C5.5 12.4829 6.33456 11.3141 7.52408 10.8145C7.97753 11.0055 8.47633 11.1111 8.99999 11.1111C9.52366 11.1111 10.0225 11.0055 10.4759 10.8145C11.6654 11.3141 12.5 12.4829 12.5 13.845V14.269C12.5 14.6727 12.1701 15 11.7632 15H6.23684C5.8299 15 5.5 14.6727 5.5 14.269V13.845ZM6.60526 13.845C6.60526 13.0773 7.00308 12.4 7.60802 12.0077C8.05007 12.1379 8.51755 12.2076 8.99999 12.2076C9.48243 12.2076 9.94992 12.1379 10.392 12.0077C10.9969 12.4 11.3947 13.0773 11.3947 13.845V13.9035H6.60526V13.845Z" fill="#191919"/>
<line x1="16" y1="2.41421" x2="1.41421" y2="17" stroke="#FF734C" stroke-width="2" stroke-linecap="round"/>
</svg>
