<svg width="18" height="18" viewBox="0 0 18 18" fill="none" xmlns="http://www.w3.org/2000/svg">
<path fill-rule="evenodd" clip-rule="evenodd" d="M6.5285 1.53886C6.5285 0.688971 7.21747 0 8.06736 0H9.93264C10.7825 0 11.4715 0.688971 11.4715 1.53886V2.06933C11.4715 2.18622 11.5555 2.33393 11.734 2.40805C11.9078 2.48019 12.0673 2.4374 12.1529 2.35176L12.5816 2.78042L12.1529 2.35176L12.5282 1.97654C13.1291 1.37558 14.1035 1.37558 14.7044 1.97654L16.0234 3.29549C16.6244 3.89646 16.6244 4.87081 16.0234 5.47177L15.6482 5.84694L15.2196 5.41828L15.6482 5.84694C15.5626 5.9326 15.5198 6.09218 15.5919 6.26596C15.6661 6.44452 15.8138 6.5285 15.9307 6.5285L16.4611 6.5285C17.311 6.5285 18 7.21747 18 8.06736V9.93264C18 10.7825 17.311 11.4715 16.4611 11.4715H15.9307C15.8138 11.4715 15.6661 11.5555 15.5919 11.734C15.5198 11.9078 15.5626 12.0674 15.6482 12.153L16.0234 12.5282C16.6244 13.1291 16.6244 14.1035 16.0234 14.7045L14.7045 16.0234C14.1035 16.6244 13.1291 16.6244 12.5282 16.0234L12.153 15.6482C12.0674 15.5626 11.9078 15.5198 11.734 15.5919C11.5555 15.6661 11.4715 15.8138 11.4715 15.9307V16.4611C11.4715 17.311 10.7825 18 9.93264 18H8.06736C7.21747 18 6.5285 17.311 6.5285 16.4611V15.9307C6.5285 15.8138 6.44452 15.6661 6.26596 15.5919C6.09218 15.5198 5.9326 15.5626 5.84694 15.6482L5.47176 16.0234C4.87079 16.6244 3.89644 16.6244 3.29548 16.0234L1.97652 14.7045C1.37556 14.1035 1.37556 13.1291 1.97652 12.5282L2.35176 12.1529C2.4374 12.0673 2.48019 11.9078 2.40805 11.734C2.33393 11.5555 2.18622 11.4715 2.06933 11.4715H1.53886C0.688971 11.4715 0 10.7825 0 9.93264V8.06736C0 7.21747 0.688971 6.5285 1.53886 6.5285L2.06932 6.5285C2.18621 6.5285 2.33393 6.44453 2.40806 6.26598C2.48021 6.09222 2.43741 5.93265 2.35176 5.847L1.97654 5.47177C1.37558 4.87081 1.37558 3.89646 1.97654 3.2955L3.29549 1.97654C3.89646 1.37558 4.87081 1.37558 5.47177 1.97654L5.15592 2.2924L5.47177 1.97654L5.84699 2.35176C5.93264 2.43741 6.09221 2.48021 6.26598 2.40806C6.44453 2.33393 6.5285 2.18621 6.5285 2.06931V1.53886ZM8.06736 1.21244C7.88708 1.21244 7.74093 1.35858 7.74093 1.53886V2.06931C7.74093 2.75041 7.28933 3.29597 6.73088 3.52782C6.16737 3.76178 5.4685 3.68792 4.98967 3.20908L4.61445 2.83386C4.48697 2.70639 4.28029 2.70639 4.15282 2.83386L2.83386 4.15282C2.70638 4.2803 2.70638 4.48698 2.83386 4.61445L3.20908 4.98968C3.68791 5.46851 3.76178 6.16738 3.52782 6.73088C3.29597 7.28933 2.75041 7.74093 2.06932 7.74093L1.53886 7.74093C1.35858 7.74093 1.21244 7.88708 1.21244 8.06736V9.93264C1.21244 10.1129 1.35858 10.2591 1.53886 10.2591H2.06933C2.75042 10.2591 3.29596 10.7107 3.52782 11.2691C3.76177 11.8326 3.6879 12.5314 3.20908 13.0103L2.83384 13.3855C2.70637 13.513 2.70637 13.7197 2.83384 13.8471L4.1528 15.1661C4.28028 15.2936 4.48696 15.2936 4.61444 15.1661L4.98962 14.7909C5.46846 14.3121 6.16734 14.2382 6.73087 14.4722C7.28932 14.704 7.74093 15.2496 7.74093 15.9307V16.4611C7.74093 16.6414 7.88708 16.7876 8.06736 16.7876H9.93264C10.1129 16.7876 10.2591 16.6414 10.2591 16.4611V15.9307C10.2591 15.2496 10.7107 14.704 11.2691 14.4722C11.8326 14.2382 12.5315 14.3121 13.0103 14.7909L13.3855 15.1661C13.513 15.2936 13.7197 15.2936 13.8471 15.1661L15.1661 13.8471C15.2936 13.7197 15.2936 13.513 15.1661 13.3855L14.7909 13.0103C14.3121 12.5315 14.2382 11.8326 14.4722 11.2691C14.704 10.7107 15.2496 10.2591 15.9307 10.2591H16.4611C16.6414 10.2591 16.7876 10.1129 16.7876 9.93264V8.06736C16.7876 7.88708 16.6414 7.74093 16.4611 7.74093H15.9307C15.2496 7.74093 14.704 7.28932 14.4722 6.73087C14.2382 6.16735 14.3121 5.46846 14.7909 4.98962L15.1661 4.61445C15.2936 4.48697 15.2936 4.28029 15.1661 4.15282L13.8471 2.83386C13.7196 2.70638 13.513 2.70638 13.3855 2.83386L13.0103 3.20908C12.5314 3.6879 11.8326 3.76177 11.2691 3.52782C10.7107 3.29596 10.2591 2.75042 10.2591 2.06933V1.53886C10.2591 1.35858 10.1129 1.21244 9.93264 1.21244H8.06736ZM9 7.74093C8.30464 7.74093 7.74093 8.30464 7.74093 9C7.74093 9.69536 8.30464 10.2591 9 10.2591C9.69536 10.2591 10.2591 9.69536 10.2591 9C10.2591 8.30464 9.69536 7.74093 9 7.74093ZM6.5285 9C6.5285 7.63503 7.63503 6.5285 9 6.5285C10.365 6.5285 11.4715 7.63503 11.4715 9C11.4715 10.365 10.365 11.4715 9 11.4715C7.63503 11.4715 6.5285 10.365 6.5285 9Z" fill="#191919"/>
</svg>
