<svg width="18" height="18" viewBox="0 0 18 18" fill="none" xmlns="http://www.w3.org/2000/svg">
<path fill-rule="evenodd" clip-rule="evenodd" d="M0 3.84526C0 2.71559 0.915781 1.7998 2.04545 1.7998H15.9545C17.0842 1.7998 18 2.71559 18 3.84526V13.6634C18 14.7931 17.0842 15.7089 15.9545 15.7089H2.04545C0.915781 15.7089 0 14.7931 0 13.6634V3.84526ZM15.4717 3.02708H2.52824L8.99998 7.98152L15.4717 3.02708ZM1.26332 3.60433C1.23989 3.6805 1.22727 3.76141 1.22727 3.84526V13.6634C1.22727 14.1153 1.59359 14.4816 2.04545 14.4816H15.9545C16.4064 14.4816 16.7727 14.1153 16.7727 13.6634V3.84526C16.7727 3.7614 16.7601 3.68048 16.7367 3.6043L9.37299 9.24157C9.15286 9.41009 8.84709 9.41009 8.62696 9.24157L1.26332 3.60433Z" fill="#191919"/>
</svg>
