<svg width="18" height="18" viewBox="0 0 18 18" fill="none" xmlns="http://www.w3.org/2000/svg">
<path fill-rule="evenodd" clip-rule="evenodd" d="M10.0187 1.12682C13.3898 1.70719 15.9545 4.64499 15.9545 8.18182V14.1136H16.9773C17.3162 14.1136 17.5909 14.3884 17.5909 14.7273C17.5909 15.0662 17.3162 15.3409 16.9773 15.3409H12.1759C11.808 16.8666 10.4341 18 8.79546 18C7.15683 18 5.78292 16.8666 5.41499 15.3409H0.613636C0.274734 15.3409 0 15.0662 0 14.7273C0 14.3884 0.274734 14.1136 0.613636 14.1136H1.63636V8.18182C1.63636 4.64499 4.20112 1.70719 7.57223 1.12682C7.62334 0.496 8.15147 0 8.79546 0C9.43944 0 9.96757 0.496 10.0187 1.12682ZM14.7273 8.18182V14.1136H2.86364V8.18182C2.86364 4.90577 5.5194 2.25 8.79546 2.25C12.0715 2.25 14.7273 4.90577 14.7273 8.18182ZM8.79546 16.7727C7.84146 16.7727 7.02614 16.179 6.69884 15.3409H10.8921C10.5648 16.179 9.74945 16.7727 8.79546 16.7727Z" fill="#191919"/>
<circle cx="14.5" cy="3.5" r="3.5" fill="#FF734C"/>
</svg>
