<svg width="18" height="18" viewBox="0 0 18 18" fill="none" xmlns="http://www.w3.org/2000/svg">
<path fill-rule="evenodd" clip-rule="evenodd" d="M0.17973 0.17973C0.41937 -0.05991 0.807903 -0.05991 1.04754 0.17973L9 8.13219L16.9525 0.17973C17.1921 -0.05991 17.5806 -0.05991 17.8203 0.17973C18.0599 0.41937 18.0599 0.807903 17.8203 1.04754L9.86781 9L17.8203 16.9525C18.0599 17.1921 18.0599 17.5806 17.8203 17.8203C17.5806 18.0599 17.1921 18.0599 16.9525 17.8203L9 9.86781L1.04754 17.8203C0.807903 18.0599 0.41937 18.0599 0.17973 17.8203C-0.0599094 17.5806 -0.0599094 17.1921 0.17973 16.9525L8.13219 9L0.17973 1.04754C-0.05991 0.807903 -0.05991 0.41937 0.17973 0.17973Z" fill="#191919"/>
</svg>
