<svg width="18" height="18" viewBox="0 0 18 18" fill="none" xmlns="http://www.w3.org/2000/svg">
<path fill-rule="evenodd" clip-rule="evenodd" d="M9.03488 0C6.37621 0 4.22093 2.15528 4.22093 4.81395V5.44186H2.33721C1.87483 5.44186 1.5 5.81669 1.5 6.27907V17.1628C1.5 17.6252 1.87483 18 2.33721 18H15.7326C16.1949 18 16.5698 17.6252 16.5698 17.1628V6.27907C16.5698 5.81669 16.1949 5.44186 15.7326 5.44186H13.8488V4.81395C13.8488 2.15528 11.6936 0 9.03488 0ZM12.593 5.44186V4.81395C12.593 2.84885 11 1.25581 9.03488 1.25581C7.06978 1.25581 5.47674 2.84885 5.47674 4.81395V5.44186H12.593ZM2.75581 6.69767V16.7442H15.314V6.69767H2.75581ZM7.36047 11.7209C7.36047 10.7962 8.11013 10.0465 9.03488 10.0465C9.95964 10.0465 10.7093 10.7962 10.7093 11.7209C10.7093 12.6457 9.95964 13.3953 9.03488 13.3953C8.11013 13.3953 7.36047 12.6457 7.36047 11.7209Z" fill="#191919"/>
</svg>
