<svg width="18" height="18" viewBox="0 0 18 18" fill="none" xmlns="http://www.w3.org/2000/svg">
<path fill-rule="evenodd" clip-rule="evenodd" d="M9 16.7727C13.2928 16.7727 16.7727 13.2928 16.7727 9C16.7727 4.70724 13.2928 1.22727 9 1.22727C4.70724 1.22727 1.22727 4.70724 1.22727 9C1.22727 13.2928 4.70724 16.7727 9 16.7727ZM9 18C13.9706 18 18 13.9706 18 9C18 4.02944 13.9706 0 9 0C4.02944 0 0 4.02944 0 9C0 13.9706 4.02944 18 9 18Z" fill="#191919"/>
<path fill-rule="evenodd" clip-rule="evenodd" d="M9 3.88636C9.3389 3.88636 9.61364 4.1611 9.61364 4.5V9.15491L12.2975 11.8388C12.5372 12.0785 12.5372 12.467 12.2975 12.7066C12.0579 12.9463 11.6694 12.9463 11.4297 12.7066L8.56609 9.843C8.45101 9.72792 8.38636 9.57184 8.38636 9.40909V4.5C8.38636 4.1611 8.6611 3.88636 9 3.88636Z" fill="#191919"/>
</svg>
