<svg width="18" height="18" viewBox="0 0 18 18" fill="none" xmlns="http://www.w3.org/2000/svg">
<path fill-rule="evenodd" clip-rule="evenodd" d="M0.613636 0C0.952538 0 1.22727 0.274734 1.22727 0.613636V16.7727H17.3864C17.7253 16.7727 18 17.0475 18 17.3864C18 17.7253 17.7253 18 17.3864 18H0.613636C0.274734 18 0 17.7253 0 17.3864V0.613636C0 0.274734 0.274734 0 0.613636 0Z" fill="#191919"/>
<path fill-rule="evenodd" clip-rule="evenodd" d="M3.657 11.4794C3.89664 11.719 4.28518 11.719 4.52482 11.4794L8.02281 7.98136L11.6848 10.911C11.9118 11.0925 12.2349 11.09 12.459 10.9049L17.1635 7.01854C17.4248 6.8027 17.4617 6.41592 17.2458 6.15464C17.03 5.89336 16.6432 5.85652 16.3819 6.07236L12.062 9.64101L8.36061 6.67992C8.11645 6.48459 7.76446 6.50409 7.54337 6.72518L3.657 10.6115C3.41736 10.8512 3.41736 11.2397 3.657 11.4794Z" fill="#191919"/>
</svg>
