<svg width="18" height="18" viewBox="0 0 18 18" fill="none" xmlns="http://www.w3.org/2000/svg">
<path fill-rule="evenodd" clip-rule="evenodd" d="M0 5.11364C0 4.77473 0.274734 4.5 0.613636 4.5H17.3864C17.7253 4.5 18 4.77473 18 5.11364C18 5.45254 17.7253 5.72727 17.3864 5.72727H0.613636C0.274734 5.72727 0 5.45254 0 5.11364Z" fill="#191919"/>
<path fill-rule="evenodd" clip-rule="evenodd" d="M0 9.20454C0 8.86564 0.274734 8.59091 0.613636 8.59091H11.6591C11.998 8.59091 12.2727 8.86564 12.2727 9.20454C12.2727 9.54345 11.998 9.81818 11.6591 9.81818H0.613636C0.274734 9.81818 0 9.54345 0 9.20454Z" fill="#191919"/>
<path fill-rule="evenodd" clip-rule="evenodd" d="M0 13.2955C0 12.9566 0.274734 12.6818 0.613636 12.6818H17.3864C17.7253 12.6818 18 12.9566 18 13.2955C18 13.6344 17.7253 13.9091 17.3864 13.9091H0.613636C0.274734 13.9091 0 13.6344 0 13.2955Z" fill="#191919"/>
</svg>
