<svg width="18" height="18" viewBox="0 0 18 18" fill="none" xmlns="http://www.w3.org/2000/svg">
<g clip-path="url(#clip0_573_16435)">
<path fill-rule="evenodd" clip-rule="evenodd" d="M13.2294 5.13845C12.9898 5.37809 12.6013 5.37809 12.3616 5.13845L8.70463 1.48145L5.04763 5.13845C4.80799 5.37809 4.41945 5.37809 4.17981 5.13845C3.94017 4.89881 3.94017 4.51028 4.17981 4.27064L8.27072 0.17973C8.51036 -0.0599102 8.89889 -0.0599102 9.13853 0.17973L13.2294 4.27064C13.4691 4.51028 13.4691 4.89881 13.2294 5.13845Z" fill="#191919"/>
<path fill-rule="evenodd" clip-rule="evenodd" d="M13.2294 12.8615C13.4691 13.1012 13.4691 13.4897 13.2294 13.7294L9.13853 17.8203C8.89889 18.0599 8.51036 18.0599 8.27072 17.8203L4.17981 13.7294C3.94017 13.4897 3.94017 13.1012 4.17981 12.8615C4.41945 12.6219 4.80799 12.6219 5.04763 12.8615L8.70463 16.5186L12.3616 12.8615C12.6013 12.6219 12.9898 12.6219 13.2294 12.8615Z" fill="#191919"/>
<path fill-rule="evenodd" clip-rule="evenodd" d="M8.70463 5.52273C9.04353 5.52273 9.31826 5.79746 9.31826 6.13636L9.31826 11.8636C9.31826 12.2025 9.04353 12.4773 8.70463 12.4773C8.36573 12.4773 8.09099 12.2025 8.09099 11.8636L8.09099 6.13636C8.09099 5.79746 8.36573 5.52273 8.70463 5.52273Z" fill="#191919"/>
</g>
<defs>
<clipPath id="clip0_573_16435">
<rect width="18" height="18" fill="white" transform="translate(18) rotate(90)"/>
</clipPath>
</defs>
</svg>
