<svg width="18" height="18" viewBox="0 0 18 18" fill="none" xmlns="http://www.w3.org/2000/svg">
<path d="M3.47727 6.01366C3.47727 5.67476 3.75201 5.40002 4.09091 5.40002H11.4545C11.7934 5.40002 12.0682 5.67476 12.0682 6.01366C12.0682 6.35256 11.7934 6.6273 11.4545 6.6273H4.09091C3.75201 6.6273 3.47727 6.35256 3.47727 6.01366Z" fill="#191919"/>
<path d="M4.09091 8.67275C3.75201 8.67275 3.47727 8.94749 3.47727 9.28639C3.47727 9.62529 3.75201 9.90002 4.09091 9.90002H6.54545C6.88436 9.90002 7.15909 9.62529 7.15909 9.28639C7.15909 8.94749 6.88436 8.67275 6.54545 8.67275H4.09091Z" fill="#191919"/>
<path d="M12.6818 11.7409C12.3429 11.7409 12.0682 12.0157 12.0682 12.3546C12.0682 12.6935 12.3429 12.9682 12.6818 12.9682H14.7273C15.0662 12.9682 15.3409 12.6935 15.3409 12.3546C15.3409 12.0157 15.0662 11.7409 14.7273 11.7409H12.6818Z" fill="#191919"/>
<path fill-rule="evenodd" clip-rule="evenodd" d="M0 1.92275C0 1.35792 0.457891 0.900024 1.02273 0.900024H15.1364C15.7012 0.900024 16.1591 1.35791 16.1591 1.92275V8.82904C17.2719 9.60526 18 10.8949 18 12.3546C18 14.7269 16.0769 16.65 13.7045 16.65C12.4324 16.65 11.2894 16.097 10.5028 15.2182H1.02273C0.457891 15.2182 0 14.7603 0 14.1955V1.92275ZM14.9318 2.1273V8.237C14.543 8.12126 14.131 8.05912 13.7045 8.05912C11.3322 8.05912 9.40909 9.98226 9.40909 12.3546C9.40909 12.934 9.52381 13.4866 9.73177 13.9909H1.22727V2.1273H14.9318ZM10.6364 12.3546C10.6364 14.0491 12.01 15.4228 13.7045 15.4228C15.3991 15.4228 16.7727 14.0491 16.7727 12.3546C16.7727 10.6601 15.3991 9.28639 13.7045 9.28639C12.01 9.28639 10.6364 10.6601 10.6364 12.3546Z" fill="#191919"/>
</svg>
