<svg width="14" height="14" viewBox="0 0 14 14" fill="none" xmlns="http://www.w3.org/2000/svg">
<path d="M12.4893 11.5069C12.4315 11.4912 12.3613 11.4999 12.2806 11.5297C11.2003 12.0238 10.1497 12.3759 9.12902 12.5844C6.92446 13.0329 4.77603 12.7981 2.68547 11.8819C2.10496 11.6261 1.2982 11.1951 0.265194 10.5854C0.238577 10.5644 0.206105 10.5522 0.172242 10.5504C0.137165 10.5486 0.10735 10.5521 0.0792892 10.5661C0.051228 10.5802 0.030182 10.5977 0.0143976 10.6204C-0.00138679 10.6432 -0.00489432 10.6748 0.00738244 10.7151C0.0179054 10.7536 0.0442127 10.7974 0.0880583 10.8447C0.270456 11.0584 0.496699 11.2862 0.765034 11.528C1.03337 11.7697 1.3894 12.043 1.83311 12.3479C2.27683 12.6527 2.74159 12.9243 3.22389 13.1608C3.70795 13.3973 4.26917 13.597 4.90932 13.7582C5.54946 13.9194 6.18961 14 6.828 14C7.46289 14 8.08023 13.9352 8.67829 13.809C9.27809 13.6811 9.78319 13.5305 10.1953 13.3553C10.6057 13.1818 10.9846 12.9874 11.3318 12.7771C11.6791 12.5669 11.9351 12.3882 12.1017 12.2463C12.2684 12.1026 12.3876 11.9905 12.456 11.9064C12.5367 11.8065 12.577 11.7207 12.577 11.6454C12.5788 11.5665 12.5472 11.521 12.4893 11.5069V11.5069ZM7.26997 4.13465C7.00338 4.15743 6.68243 4.20648 6.30536 4.28006C5.92829 4.3519 5.57928 4.443 5.25658 4.54987C4.93387 4.65674 4.60415 4.80566 4.26917 4.99487C3.93244 5.18408 3.64657 5.40133 3.4098 5.6431C3.17303 5.88487 2.98011 6.18796 2.82928 6.55412C2.67846 6.91853 2.60304 7.31973 2.60304 7.75773C2.60304 8.23251 2.68547 8.65474 2.85384 9.02791C3.02045 9.40108 3.24319 9.69366 3.5238 9.9109C3.80266 10.1281 4.1201 10.2981 4.47086 10.4225C4.82163 10.5469 5.19344 10.6029 5.57928 10.5872C5.96512 10.5714 6.34219 10.5118 6.70874 10.4067C7.07354 10.3033 7.41729 10.1369 7.73648 9.9109C8.05568 9.6849 8.317 9.41684 8.5222 9.11025C8.59761 9.22588 8.66425 9.31173 8.72388 9.36779L8.87647 9.52371C8.97819 9.62708 9.13428 9.7795 9.34474 9.98098C9.55344 10.1825 9.76741 10.3787 9.98138 10.5714L11.8124 8.82117L11.7071 8.73533C11.6317 8.67751 11.5423 8.59517 11.4406 8.4848C11.3388 8.37617 11.2371 8.25529 11.1389 8.12564C11.0389 7.996 10.953 7.84357 10.8811 7.67188C10.8092 7.50019 10.7723 7.33375 10.7723 7.17257V2.56839C10.7723 2.39144 10.739 2.20048 10.6724 1.99374C10.604 1.78876 10.4847 1.56451 10.3093 1.32274C10.134 1.08097 9.91648 0.863722 9.65692 0.674509C9.3956 0.485296 9.04834 0.324115 8.61164 0.194469C8.17669 0.0648229 7.68913 0 7.15246 0C6.60351 0 6.09315 0.064823 5.61611 0.190965C5.14082 0.318859 4.73394 0.4888 4.39369 0.70254C4.05521 0.916281 3.76407 1.16331 3.52204 1.44538C3.28002 1.72744 3.09937 2.02177 2.98187 2.32837C2.86436 2.63496 2.80473 2.94506 2.80473 3.25867L5.1759 3.46715C5.27236 3.17983 5.40214 2.93105 5.56174 2.71731C5.72309 2.50357 5.87568 2.34939 6.01423 2.25303C6.15453 2.15668 6.30536 2.07959 6.46496 2.02177C6.62631 1.96396 6.73505 1.93418 6.79117 1.92717C6.84729 1.92191 6.89114 1.92016 6.92446 1.92016C7.39273 1.92016 7.71719 2.05857 7.89959 2.33363C8.01359 2.50006 8.06971 2.75235 8.06971 3.09223V4.08384C7.80313 4.09436 7.53655 4.11188 7.26997 4.13465V4.13465ZM8.07146 6.79589C8.07146 7.08672 8.03288 7.35127 7.95746 7.58428C7.79611 8.09411 7.48919 8.41472 7.03846 8.54436C6.6456 8.65999 6.27204 8.60218 5.91777 8.37267C5.5407 8.12739 5.35304 7.7805 5.35304 7.33375C5.35304 6.98511 5.44073 6.68727 5.61611 6.43849C5.79149 6.19147 6.02475 6.00576 6.31764 5.88312C6.61053 5.76048 6.8964 5.67288 7.17701 5.62207C7.45587 5.56952 7.75577 5.53798 8.07146 5.52747V6.79589V6.79589ZM13.9503 10.631C13.8749 10.5364 13.6714 10.475 13.3382 10.4435C13.005 10.412 12.7156 10.4137 12.4665 10.4505C12.1982 10.482 11.9211 10.5591 11.637 10.6853C11.3511 10.8097 11.2266 10.9148 11.2582 10.9971L11.2704 11.0199L11.2862 11.0322L11.3108 11.0357H11.3915C11.4055 11.0357 11.423 11.0339 11.4476 11.0322C11.4721 11.0304 11.4949 11.0269 11.516 11.0252C11.537 11.0234 11.5668 11.0199 11.6054 11.0181C11.6422 11.0164 11.6773 11.0111 11.7106 11.0059C11.7159 11.0059 11.7755 11.0006 11.8913 10.9901C12.007 10.9796 12.0912 10.9726 12.1421 10.9673C12.1929 10.9621 12.2789 10.9568 12.3964 10.9516C12.5139 10.9463 12.6086 10.9463 12.6788 10.9516C12.7489 10.9568 12.8278 10.9638 12.9173 10.9708C13.0067 10.9778 13.0786 10.9936 13.1348 11.0181C13.1909 11.0409 13.233 11.0707 13.2593 11.1075C13.3505 11.2231 13.3329 11.4789 13.2067 11.8766C13.0804 12.2743 12.9611 12.5914 12.8489 12.8262C12.7998 12.926 12.7998 12.9874 12.8489 13.0136C12.898 13.0399 12.9664 13.0154 13.0576 12.9436C13.3312 12.7298 13.5592 12.4075 13.7433 11.9747C13.8503 11.7189 13.9275 11.4526 13.9731 11.1741C14.0152 10.8955 14.0082 10.7151 13.9503 10.631V10.631Z" fill="#191919"/>
</svg>
