<svg width="18" height="18" viewBox="0 0 18 18" fill="none" xmlns="http://www.w3.org/2000/svg">
<path fill-rule="evenodd" clip-rule="evenodd" d="M5.13845 3.77971C5.37809 4.01935 5.37809 4.40788 5.13845 4.64752L1.48145 8.30453L5.13845 11.9615C5.37809 12.2012 5.37809 12.5897 5.13845 12.8293C4.89881 13.069 4.51028 13.069 4.27064 12.8293L0.17973 8.73843C-0.05991 8.49879 -0.05991 8.11026 0.17973 7.87062L4.27064 3.77971C4.51028 3.54007 4.89881 3.54007 5.13845 3.77971Z" fill="#191919"/>
<path fill-rule="evenodd" clip-rule="evenodd" d="M12.8615 3.77971C13.1012 3.54007 13.4897 3.54007 13.7294 3.77971L17.8203 7.87062C18.0599 8.11026 18.0599 8.49879 17.8203 8.73843L13.7294 12.8293C13.4897 13.069 13.1012 13.069 12.8615 12.8293C12.6219 12.5897 12.6219 12.2012 12.8615 11.9615L16.5186 8.30453L12.8615 4.64752C12.6219 4.40788 12.6219 4.01934 12.8615 3.77971Z" fill="#191919"/>
<path fill-rule="evenodd" clip-rule="evenodd" d="M5.52273 8.30453C5.52273 7.96563 5.79746 7.69089 6.13636 7.69089H11.8636C12.2025 7.69089 12.4773 7.96563 12.4773 8.30453C12.4773 8.64343 12.2025 8.91816 11.8636 8.91816H6.13636C5.79746 8.91816 5.52273 8.64343 5.52273 8.30453Z" fill="#191919"/>
</svg>
