<svg width="18" height="18" viewBox="0 0 18 18" fill="none" xmlns="http://www.w3.org/2000/svg">
<path d="M11.7303 8.29213C11.7303 7.95704 11.4587 7.68539 11.1236 7.68539C10.7885 7.68539 10.5169 7.95704 10.5169 8.29213V12.7416C10.5169 13.0767 10.7885 13.3483 11.1236 13.3483C11.4587 13.3483 11.7303 13.0767 11.7303 12.7416V8.29213Z" fill="#191919"/>
<path d="M6.26966 7.68539C6.60476 7.68539 6.8764 7.95704 6.8764 8.29213V12.7416C6.8764 13.0767 6.60476 13.3483 6.26966 13.3483C5.93457 13.3483 5.66292 13.0767 5.66292 12.7416V8.29213C5.66292 7.95704 5.93457 7.68539 6.26966 7.68539Z" fill="#191919"/>
<path fill-rule="evenodd" clip-rule="evenodd" d="M4.98838 2.83146H0.606742C0.271647 2.83146 0 3.10311 0 3.4382C0 3.7733 0.271647 4.04494 0.606742 4.04494H1.82022V15.9775C1.82022 17.0945 2.72572 18 3.8427 18H13.5506C14.6675 18 15.573 17.0945 15.573 15.9775V4.04494H17.191C17.5261 4.04494 17.7978 3.7733 17.7978 3.4382C17.7978 3.10311 17.5261 2.83146 17.191 2.83146H12.4049C11.961 1.19979 10.4689 0 8.69663 0C6.92434 0 5.43229 1.19979 4.98838 2.83146ZM3.03371 4.24719H14.3596V15.9775C14.3596 16.4243 13.9974 16.7865 13.5506 16.7865H3.8427C3.3959 16.7865 3.03371 16.4243 3.03371 15.9775V4.24719ZM6.26892 2.83146H11.1243C10.7281 1.88132 9.79036 1.21348 8.69663 1.21348C7.6029 1.21348 6.66515 1.88132 6.26892 2.83146Z" fill="#191919"/>
</svg>
