<svg width="18" height="18" viewBox="0 0 18 18" fill="none" xmlns="http://www.w3.org/2000/svg">
<path fill-rule="evenodd" clip-rule="evenodd" d="M1.43182 1.22727C1.31885 1.22727 1.22727 1.31885 1.22727 1.43182V16.5682C1.22727 16.6811 1.31885 16.7727 1.43182 16.7727H16.5682C16.6811 16.7727 16.7727 16.6811 16.7727 16.5682V9C16.7727 8.6611 17.0475 8.38636 17.3864 8.38636C17.7253 8.38636 18 8.6611 18 9V16.5682C18 17.359 17.359 18 16.5682 18H1.43182C0.641047 18 0 17.359 0 16.5682V1.43182C0 0.641047 0.641047 0 1.43182 0H9C9.3389 0 9.61364 0.274734 9.61364 0.613636C9.61364 0.952538 9.3389 1.22727 9 1.22727H1.43182Z" fill="#191919"/>
<path fill-rule="evenodd" clip-rule="evenodd" d="M12.4773 1.22727C12.1384 1.22727 11.8636 0.952538 11.8636 0.613636C11.8636 0.274734 12.1384 0 12.4773 0H17.3864C17.7253 0 18 0.274734 18 0.613636V5.52273C18 5.86163 17.7253 6.13636 17.3864 6.13636C17.0475 6.13636 16.7727 5.86163 16.7727 5.52273V2.09509L9.22936 9.63845C8.98972 9.87809 8.60119 9.87809 8.36155 9.63845C8.12191 9.39881 8.12191 9.01028 8.36155 8.77064L15.9049 1.22727H12.4773Z" fill="#191919"/>
</svg>
