<svg width="18" height="18" viewBox="0 0 18 18" fill="none" xmlns="http://www.w3.org/2000/svg">
<path fill-rule="evenodd" clip-rule="evenodd" d="M13.675 4.5C13.675 6.98528 11.5819 9 9 9C6.41807 9 4.325 6.98528 4.325 4.5C4.325 2.01472 6.41807 0 9 0C11.5819 0 13.675 2.01472 13.675 4.5ZM12.4 4.5C12.4 6.30748 10.8778 7.77273 9 7.77273C7.12223 7.77273 5.6 6.30748 5.6 4.5C5.6 2.69252 7.12223 1.22727 9 1.22727C10.8778 1.22727 12.4 2.69252 12.4 4.5Z" fill="#191919"/>
<path fill-rule="evenodd" clip-rule="evenodd" d="M4.325 9.81818H4.34411C5.60156 10.8392 7.22612 11.4545 9 11.4545C10.7739 11.4545 12.3984 10.8392 13.6559 9.81818H13.675C15.7875 9.81818 17.5 11.4666 17.5 13.5V16.3636C17.5 17.2674 16.7389 18 15.8 18H2.2C1.26112 18 0.5 17.2674 0.5 16.3636V13.5C0.5 11.4666 2.21251 9.81818 4.325 9.81818ZM9 12.6818C10.8952 12.6818 12.6479 12.0835 14.0617 11.0735C15.2865 11.2528 16.225 12.2709 16.225 13.5V16.3636C16.225 16.5896 16.0347 16.7727 15.8 16.7727H2.2C1.96528 16.7727 1.775 16.5896 1.775 16.3636V13.5C1.775 12.2709 2.71349 11.2528 3.93832 11.0735C5.35213 12.0835 7.10484 12.6818 9 12.6818Z" fill="#191919"/>
<path d="M12.4 4.5C12.4 6.30748 10.8778 7.77273 9 7.77273C7.12223 7.77273 5.6 6.30748 5.6 4.5C5.6 2.69252 7.12223 1.22727 9 1.22727C10.8778 1.22727 12.4 2.69252 12.4 4.5Z" fill="#191919"/>
<path d="M9 12.6818C10.8952 12.6818 12.6479 12.0835 14.0617 11.0735C15.2865 11.2528 16.225 12.2709 16.225 13.5V16.3636C16.225 16.5896 16.0347 16.7727 15.8 16.7727H2.2C1.96528 16.7727 1.775 16.5896 1.775 16.3636V13.5C1.775 12.2709 2.71349 11.2528 3.93832 11.0735C5.35213 12.0835 7.10484 12.6818 9 12.6818Z" fill="#191919"/>
</svg>
