<svg width="14" height="14" viewBox="0 0 14 14" fill="none" xmlns="http://www.w3.org/2000/svg">
<g clip-path="url(#clip0_573_16384)">
<path d="M4.12936 13.7379C3.85334 13.5543 3.6087 13.3274 3.40486 13.0659C3.18063 12.7961 2.97288 12.5129 2.78273 12.2181C2.33652 11.5644 1.98659 10.8499 1.74367 10.0966C1.45186 9.22163 1.31055 8.38295 1.31055 7.56263C1.31055 6.64651 1.50873 5.84676 1.89636 5.17476C2.1837 4.64952 2.60617 4.21059 3.12005 3.90339C3.61806 3.59406 4.19028 3.42478 4.77642 3.41339C4.98161 3.41339 5.20255 3.44314 5.43705 3.50001C5.60548 3.5477 5.81067 3.62295 6.06136 3.71657C6.3803 3.83951 6.55573 3.91476 6.61523 3.93314C6.80205 4.00139 6.95911 4.03114 7.08248 4.03114C7.17611 4.03114 7.30824 4.00139 7.4583 3.95589C7.54274 3.92614 7.70198 3.87363 7.92992 3.77607C8.15567 3.69382 8.3333 3.62339 8.47461 3.57089C8.69117 3.50701 8.90074 3.44795 9.08755 3.4182C9.30902 3.38328 9.53377 3.37403 9.75736 3.39063C10.1448 3.41596 10.5265 3.49807 10.89 3.63432C11.4846 3.87364 11.9654 4.24726 12.3233 4.77839C12.172 4.87161 12.0301 4.97915 11.8994 5.09951C11.6148 5.35176 11.3724 5.6479 11.1814 5.9767C10.9317 6.42604 10.8023 6.93222 10.8056 7.44626C10.8148 8.07757 10.9767 8.63363 11.2956 9.11445C11.5301 9.47079 11.8348 9.77553 12.1912 10.01C12.3736 10.1329 12.5307 10.2174 12.6812 10.2743C12.6107 10.493 12.5355 10.7048 12.4467 10.9148C12.2452 11.3857 12.0011 11.8372 11.7174 12.2636C11.4645 12.6306 11.2663 12.9041 11.1158 13.0861C10.8813 13.3639 10.6555 13.5761 10.4276 13.7239C10.1769 13.8902 9.88074 13.979 9.57974 13.979C9.37588 13.9868 9.17208 13.9622 8.97598 13.9059C8.80755 13.8491 8.64086 13.7874 8.4768 13.7169C8.30623 13.6386 8.13036 13.5724 7.95049 13.5188C7.50585 13.4046 7.03967 13.4038 6.59467 13.5166C6.41223 13.5691 6.2368 13.6303 6.06355 13.7056C5.81986 13.8079 5.65798 13.8766 5.56436 13.9059C5.37755 13.9606 5.18373 13.9948 4.98773 14.0061C4.68455 14.0061 4.40192 13.9195 4.12192 13.7441L4.12936 13.7379ZM8.12811 2.96888C7.73173 3.16707 7.3533 3.25151 6.97748 3.22395C6.91842 2.84551 6.97748 2.45832 7.13455 2.03439C7.26826 1.67523 7.46584 1.34322 7.71773 1.05439C7.98374 0.750332 8.30652 0.501112 8.66799 0.320698C9.05299 0.12251 9.42005 0.0153228 9.77092 -0.000427246C9.81642 0.395948 9.77092 0.78576 9.62524 1.20707C9.49041 1.57951 9.2932 1.92629 9.04205 2.23257C8.7857 2.53704 8.4711 2.78723 8.11673 2.96845L8.12811 2.96888Z" fill="#191919"/>
</g>
<defs>
<clipPath id="clip0_573_16384">
<rect width="14" height="14" fill="white"/>
</clipPath>
</defs>
</svg>
