<svg width="18" height="18" viewBox="0 0 18 18" fill="none" xmlns="http://www.w3.org/2000/svg">
<path fill-rule="evenodd" clip-rule="evenodd" d="M9 11.0455C10.8075 11.0455 12.2727 9.5802 12.2727 7.77273C12.2727 5.96525 10.8075 4.5 9 4.5C7.19252 4.5 5.72727 5.96525 5.72727 7.77273C5.72727 9.5802 7.19252 11.0455 9 11.0455ZM9 9.81818C10.1297 9.81818 11.0455 8.9024 11.0455 7.77273C11.0455 6.64305 10.1297 5.72727 9 5.72727C7.87033 5.72727 6.95455 6.64305 6.95455 7.77273C6.95455 8.9024 7.87033 9.81818 9 9.81818Z" fill="#191919"/>
<path fill-rule="evenodd" clip-rule="evenodd" d="M9 18C13.9706 18 18 13.9706 18 9C18 4.02944 13.9706 0 9 0C4.02944 0 0 4.02944 0 9C0 13.9706 4.02944 18 9 18ZM14.0156 14.9382C15.7019 13.5124 16.7727 11.3812 16.7727 9C16.7727 4.70724 13.2928 1.22727 9 1.22727C4.70724 1.22727 1.22727 4.70724 1.22727 9C1.22727 11.3813 2.29809 13.5124 3.98447 14.9382C5.14364 13.442 6.95895 12.4773 9.00005 12.4773C11.0411 12.4773 12.8564 13.4419 14.0156 14.9382ZM13.0182 15.6549C12.0811 14.4662 10.6293 13.7045 9.00005 13.7045C7.37077 13.7045 5.91893 14.4662 4.98187 15.6549C6.1544 16.3644 7.52951 16.7727 9 16.7727C10.4705 16.7727 11.8457 16.3644 13.0182 15.6549Z" fill="#191919"/>
</svg>
