<svg width="18" height="18" viewBox="0 0 18 18" fill="none" xmlns="http://www.w3.org/2000/svg">
<g clip-path="url(#clip0_573_16433)">
<path fill-rule="evenodd" clip-rule="evenodd" d="M17.1818 6.13636C17.6337 6.13636 18 6.50268 18 6.95455L18 11.0455C18 11.4973 17.6337 11.8636 17.1818 11.8636L0.818181 11.8636C0.366313 11.8636 -5.02564e-07 11.4973 -4.82812e-07 11.0455L-3.03993e-07 6.95454C-2.84241e-07 6.50268 0.366313 6.13636 0.818182 6.13636L17.1818 6.13636ZM1.22727 7.36364L16.7727 7.36364L16.7727 10.6364L1.22727 10.6364L1.22727 7.36364Z" fill="#191919"/>
<path fill-rule="evenodd" clip-rule="evenodd" d="M13.0909 0.818182C13.0909 0.366312 12.7246 -2.30595e-07 12.2727 -2.50347e-07L0.818182 -7.51041e-07C0.366313 -7.70793e-07 -1.6012e-08 0.366312 -3.57639e-08 0.818181L-1.78819e-07 4.09091C-1.98571e-07 4.54278 0.366313 4.90909 0.818182 4.90909L12.2727 4.90909C12.7246 4.90909 13.0909 4.54278 13.0909 4.09091L13.0909 0.818182ZM11.8636 1.22727L1.22727 1.22727L1.22727 3.68182L11.8636 3.68182L11.8636 1.22727Z" fill="#191919"/>
<path fill-rule="evenodd" clip-rule="evenodd" d="M13.0909 13.9091C13.0909 13.4572 12.7246 13.0909 12.2727 13.0909L0.818181 13.0909C0.366312 13.0909 -5.88234e-07 13.4572 -6.07986e-07 13.9091L-7.51041e-07 17.1818C-7.70793e-07 17.6337 0.366312 18 0.818181 18L12.2727 18C12.7246 18 13.0909 17.6337 13.0909 17.1818L13.0909 13.9091ZM11.8636 14.3182L1.22727 14.3182L1.22727 16.7727L11.8636 16.7727L11.8636 14.3182Z" fill="#191919"/>
</g>
<defs>
<clipPath id="clip0_573_16433">
<rect width="18" height="18" fill="white" transform="translate(18) rotate(90)"/>
</clipPath>
</defs>
</svg>
