<svg width="32" height="22" viewBox="0 0 32 22" fill="none" xmlns="http://www.w3.org/2000/svg">
<g clip-path="url(#clip0_573_16368)">
<path d="M29.0959 22H2.90411C1.30016 22 0 20.7306 0 19.1648V2.83523C0 1.26933 1.30016 0 2.90411 0H29.096C30.6998 0 32.0001 1.26933 32.0001 2.83523V19.1648C32 20.7306 30.6998 22 29.0959 22Z" fill="#0066B2"/>
<path fill-rule="evenodd" clip-rule="evenodd" d="M20.1952 8.27248L19.9574 9.61486C19.2441 9.23119 17.6211 9.14049 17.621 9.84693C17.621 10.1276 17.9882 10.3207 18.4308 10.5534C19.1022 10.9063 19.9469 11.3504 19.9469 12.3297C19.9469 13.8943 18.2309 14.4695 17.0937 14.4695C15.9564 14.4695 15.2122 14.1164 15.2122 14.1164L15.4602 12.7133C16.1425 13.2481 18.2102 13.3996 18.2102 12.5518C18.2102 12.1956 17.8032 11.9855 17.3313 11.7419C16.68 11.4056 15.9049 11.0054 15.9049 10.069C15.9049 8.35312 17.8691 8 18.6962 8C19.4612 8 20.1952 8.27248 20.1952 8.27248ZM9.52999 12.4121L11.119 8.11328V8.11338H12.9128L10.261 14.3634H8.52448L7.07641 8.93376C6.13658 8.38225 5.33301 8.21916 5.33301 8.21916L5.36381 8.11338H7.99057C8.71349 8.11338 8.78122 8.67627 8.78122 8.67627L9.34224 11.4867L9.34205 11.4864L9.52999 12.4121ZM12.5205 14.3634H14.1871L15.229 8.11328H13.5622L12.5205 14.3634ZM24.2279 14.3633H25.7582L24.4239 8.11328H23.0839C22.4651 8.11328 22.3144 8.57912 22.3144 8.57912L19.8288 14.3634H21.566L21.9135 13.4351H24.0323L24.2279 14.3633ZM22.3938 12.1524L23.2696 9.81343L23.7623 12.1524H22.3938Z" fill="white"/>
<path d="M9.79624 11.5696L9.23532 8.75924C9.23532 8.75924 9.16759 8.19635 8.44467 8.19635H5.81791L5.78711 8.30214C5.78711 8.30214 7.04966 8.55763 8.261 9.51473C9.4186 10.4294 9.79624 11.5696 9.79624 11.5696Z" fill="#F9A533"/>
</g>
<defs>
<clipPath id="clip0_573_16368">
<rect width="32" height="22" fill="white"/>
</clipPath>
</defs>
</svg>
