<svg width="18" height="18" viewBox="0 0 18 18" fill="none" xmlns="http://www.w3.org/2000/svg">
<g clip-path="url(#clip0_573_16364)">
<path fill-rule="evenodd" clip-rule="evenodd" d="M9 6.10352e-05C4.02931 6.10352e-05 0 4.02937 0 9.00006C0 13.9708 4.02931 18.0001 9 18.0001C13.9707 18.0001 18 13.9708 18 9.00006C18 4.02937 13.9707 6.10352e-05 9 6.10352e-05ZM1.22981 9.00006C1.22981 4.70858 4.70852 1.22987 9 1.22987C13.2915 1.22987 16.7702 4.70858 16.7702 9.00006C16.7702 13.2915 13.2915 16.7702 9 16.7702C4.70852 16.7702 1.22981 13.2915 1.22981 9.00006ZM9.61491 3.54975C9.61491 3.21015 9.3396 2.93484 9 2.93484C8.6604 2.93484 8.38509 3.21015 8.38509 3.54975V4.48694C7.95062 4.54977 7.52524 4.69865 7.16547 4.97121C6.60568 5.39532 6.28882 6.05537 6.28882 6.90379C6.28882 7.31692 6.38493 7.68357 6.57389 8.00014C6.76073 8.31315 7.01854 8.54421 7.29419 8.71963C7.62201 8.92824 8.00779 9.07624 8.38509 9.19446V11.7191L6.74313 10.9577C6.48756 10.8392 6.18414 10.9096 6.00676 11.1284C5.82938 11.3473 5.82341 11.6587 5.99227 11.8842C6.55316 12.6332 7.4677 13.0788 8.38509 13.2353V14.4504C8.38509 14.79 8.6604 15.0653 9 15.0653C9.3396 15.0653 9.61491 14.79 9.61491 14.4504V13.2715C10.1436 13.2097 10.6607 13.0416 11.0935 12.7385C11.7246 12.2966 12.1304 11.5964 12.1304 10.6771C12.1304 10.2639 12.0343 9.8973 11.8454 9.58073C11.6585 9.26772 11.4007 9.03666 11.1251 8.86124C10.6737 8.57404 10.1126 8.40172 9.61491 8.26384V5.97232L11.2886 6.63679C11.5597 6.74441 11.8691 6.6468 12.0293 6.40311C12.1896 6.15943 12.1566 5.8367 11.9503 5.63047C11.3778 5.05797 10.4956 4.65533 9.61491 4.51009V3.54975ZM7.90813 5.95147C8.03245 5.85729 8.19302 5.78413 8.38509 5.73765V7.89339C8.22305 7.83015 8.0793 7.76153 7.95445 7.68208C7.79775 7.58237 7.69526 7.47934 7.62989 7.36981C7.56664 7.26386 7.51863 7.11954 7.51863 6.90379C7.51863 6.38543 7.69649 6.11181 7.90813 5.95147ZM9.61491 12.0296V9.5446C9.95653 9.64877 10.241 9.75639 10.4648 9.89878C10.6215 9.9985 10.724 10.1015 10.7894 10.2111C10.8526 10.317 10.9006 10.4613 10.9006 10.6771C10.9006 11.1924 10.6927 11.5178 10.388 11.7311C10.1834 11.8744 9.91832 11.9771 9.61491 12.0296Z" fill="#191919"/>
</g>
<defs>
<clipPath id="clip0_573_16364">
<rect width="18" height="18" fill="white"/>
</clipPath>
</defs>
</svg>
