<svg width="18" height="18" viewBox="0 0 18 18" fill="none" xmlns="http://www.w3.org/2000/svg">
<path fill-rule="evenodd" clip-rule="evenodd" d="M6.36572 3.17973C6.60536 3.41937 6.60536 3.8079 6.36572 4.04754L1.48145 8.93182L6.36572 13.8161C6.60536 14.0557 6.60536 14.4443 6.36572 14.6839C6.12608 14.9235 5.73755 14.9235 5.49791 14.6839L0.17973 9.36572C-0.05991 9.12608 -0.05991 8.73755 0.17973 8.49791L5.49791 3.17973C5.73755 2.94009 6.12608 2.94009 6.36572 3.17973Z" fill="#191919"/>
<path fill-rule="evenodd" clip-rule="evenodd" d="M11.6343 3.17973C11.8739 2.94009 12.2624 2.94009 12.5021 3.17973L17.8203 8.49791C18.0599 8.73755 18.0599 9.12608 17.8203 9.36572L12.5021 14.6839C12.2624 14.9235 11.8739 14.9235 11.6343 14.6839C11.3946 14.4443 11.3946 14.0557 11.6343 13.8161L16.5185 8.93182L11.6343 4.04754C11.3946 3.8079 11.3946 3.41937 11.6343 3.17973Z" fill="#191919"/>
</svg>
