<svg width="18" height="18" viewBox="0 0 18 18" fill="none" xmlns="http://www.w3.org/2000/svg">
<path fill-rule="evenodd" clip-rule="evenodd" d="M17.4375 4.125C17.4375 4.43566 17.1857 4.6875 16.875 4.6875L1.5 4.6875C1.18934 4.6875 0.9375 4.43566 0.9375 4.125C0.9375 3.81434 1.18934 3.5625 1.5 3.5625L16.875 3.5625C17.1857 3.5625 17.4375 3.81434 17.4375 4.125Z" fill="#191919"/>
<path fill-rule="evenodd" clip-rule="evenodd" d="M0.9375 13.875C0.9375 13.5643 1.18934 13.3125 1.5 13.3125L16.875 13.3125C17.1857 13.3125 17.4375 13.5643 17.4375 13.875C17.4375 14.1857 17.1857 14.4375 16.875 14.4375L1.5 14.4375C1.18934 14.4375 0.9375 14.1857 0.9375 13.875Z" fill="#191919"/>
<path fill-rule="evenodd" clip-rule="evenodd" d="M0.9375 9C0.9375 8.68934 1.18934 8.4375 1.5 8.4375H16.875C17.1857 8.4375 17.4375 8.68934 17.4375 9C17.4375 9.31066 17.1857 9.5625 16.875 9.5625L1.5 9.5625C1.18934 9.5625 0.9375 9.31066 0.9375 9Z" fill="#191919"/>
</svg>
