<svg width="18" height="18" viewBox="0 0 18 18" fill="none" xmlns="http://www.w3.org/2000/svg">
<path d="M15.5 4.5004C15.5 4.5004 17 6.0004 17 8.50039C17 11.0004 15.5 12.5004 15.5 12.5004" stroke="#191919" stroke-width="1.2" stroke-linecap="round" stroke-linejoin="round"/>
<path d="M13.0879 5.93405C13.0879 5.93405 14.1099 6.89216 14.1099 8.48902C14.1099 10.0859 13.0879 11.044 13.0879 11.044" stroke="#191919" stroke-width="1.2" stroke-linecap="round" stroke-linejoin="round"/>
<path d="M1 11.0003V7.00025C1 6.73504 1.10536 6.48068 1.29289 6.29315C1.48043 6.10561 1.73478 6.00025 2 6.00025H4.697C4.89453 6.0003 5.08765 5.94184 5.252 5.83225L9.445 3.03625C9.59574 2.93568 9.77098 2.87796 9.95198 2.86926C10.133 2.86056 10.313 2.9012 10.4726 2.98685C10.6323 3.0725 10.7658 3.19993 10.8586 3.35553C10.9515 3.51113 11.0004 3.68904 11 3.87025V14.1302C11 14.3113 10.9509 14.4889 10.8579 14.6443C10.7648 14.7996 10.6314 14.9267 10.4718 15.0121C10.3121 15.0975 10.1323 15.138 9.95148 15.1292C9.77065 15.1204 9.5956 15.0627 9.445 14.9622L5.252 12.1673C5.08754 12.058 4.89443 11.9999 4.697 12.0003H2C1.73478 12.0003 1.48043 11.8949 1.29289 11.7074C1.10536 11.5198 1 11.2655 1 11.0003Z" stroke="#191919" stroke-width="1.2"/>
</svg>
