<svg width="18" height="18" viewBox="0 0 18 18" fill="none" xmlns="http://www.w3.org/2000/svg">
<path fill-rule="evenodd" clip-rule="evenodd" d="M15.9545 1.22727H2.04545C1.59359 1.22727 1.22727 1.59359 1.22727 2.04545V15.9545C1.22727 16.4064 1.59359 16.7727 2.04545 16.7727H15.9545C16.4064 16.7727 16.7727 16.4064 16.7727 15.9545V2.04545C16.7727 1.59359 16.4064 1.22727 15.9545 1.22727ZM2.04545 0C0.915781 0 0 0.915781 0 2.04545V15.9545C0 17.0842 0.915781 18 2.04545 18H15.9545C17.0842 18 18 17.0842 18 15.9545V2.04545C18 0.915781 17.0842 0 15.9545 0H2.04545Z" fill="#191919"/>
<path fill-rule="evenodd" clip-rule="evenodd" d="M12.6818 4.70455C13.0207 4.70455 13.2955 4.97928 13.2955 5.31818V13.5C13.2955 13.8389 13.0207 14.1136 12.6818 14.1136C12.3429 14.1136 12.0682 13.8389 12.0682 13.5V5.31818C12.0682 4.97928 12.3429 4.70455 12.6818 4.70455Z" fill="#191919"/>
<path fill-rule="evenodd" clip-rule="evenodd" d="M9 6.75C9.3389 6.75 9.61364 7.02473 9.61364 7.36364V13.5C9.61364 13.8389 9.3389 14.1136 9 14.1136C8.6611 14.1136 8.38636 13.8389 8.38636 13.5V7.36364C8.38636 7.02473 8.6611 6.75 9 6.75Z" fill="#191919"/>
<path fill-rule="evenodd" clip-rule="evenodd" d="M5.31818 8.79545C5.65708 8.79545 5.93182 9.07019 5.93182 9.40909V13.5C5.93182 13.8389 5.65708 14.1136 5.31818 14.1136C4.97928 14.1136 4.70455 13.8389 4.70455 13.5V9.40909C4.70455 9.07019 4.97928 8.79545 5.31818 8.79545Z" fill="#191919"/>
</svg>
