<svg width="18" height="18" viewBox="0 0 18 18" fill="none" xmlns="http://www.w3.org/2000/svg">
<g clip-path="url(#clip0_573_16390)">
<path d="M0 8.99968C0 6.61279 0.948191 4.32365 2.63598 2.63586C4.32377 0.948069 6.61291 -0.00012207 8.99981 -0.00012207C11.3867 -0.00012207 13.6758 0.948069 15.3636 2.63586C17.0514 4.32365 17.9996 6.61279 17.9996 8.99968C17.9996 11.3866 17.0514 13.6757 15.3636 15.3635C13.6758 17.0513 11.3867 17.9995 8.99981 17.9995C6.61291 17.9995 4.32377 17.0513 2.63598 15.3635C0.948191 13.6757 0 11.3866 0 8.99968ZM8.99981 1.12485C8.90418 1.12485 8.80856 1.1271 8.71294 1.13048C8.84568 1.38022 8.99756 1.69747 9.13255 2.05633C9.44755 2.89557 9.72541 4.10041 9.22818 5.15902C8.77368 6.1265 7.99408 6.37849 7.39222 6.53374L7.28309 6.56186C6.71385 6.70811 6.43374 6.78011 6.23687 7.07935C6.04562 7.36847 6.09174 7.72509 6.27849 8.33145L6.32124 8.47094C6.39661 8.70831 6.48323 8.98506 6.52823 9.24493C6.58448 9.56667 6.59573 9.96041 6.40111 10.3362C6.19862 10.722 5.93537 10.9819 5.62488 11.1506C5.36112 11.2842 5.07722 11.3735 4.78452 11.415L4.68552 11.4319C4.22766 11.5129 3.95991 11.559 3.71017 11.8267C3.51105 12.0405 3.39743 12.3982 3.33218 12.8854C3.30518 13.0856 3.28943 13.2847 3.27255 13.4861L3.26468 13.593C3.25038 13.8216 3.22069 14.049 3.17581 14.2736L3.17018 14.2961C3.9077 15.1094 4.80755 15.7591 5.81167 16.2033C6.81579 16.6474 7.90186 16.876 8.99981 16.8745C10.5185 16.8745 11.9382 16.4436 13.142 15.6989C13.0323 15.5899 12.929 15.4745 12.8326 15.3535C12.5277 14.9711 12.1475 14.3309 12.2791 13.5873C12.3421 13.2352 12.5334 12.9337 12.7257 12.6941C12.9226 12.4511 13.16 12.225 13.3737 12.0281L13.5177 11.8965C13.682 11.7469 13.8248 11.6153 13.9474 11.4881C14.1128 11.3149 14.1623 11.2215 14.1724 11.1923C14.2489 10.938 14.1578 10.7378 14.0307 10.6388C13.9249 10.5566 13.6988 10.479 13.3445 10.704C13.2262 10.7803 13.105 10.852 12.9811 10.9189C12.8633 10.9847 12.7357 11.031 12.6031 11.0561C12.4926 11.076 12.3789 11.0682 12.2721 11.0335C12.1653 10.9987 12.0688 10.9381 11.9911 10.857C11.8852 10.7386 11.8157 10.5921 11.7909 10.4352C11.774 10.3323 11.7628 10.2287 11.7571 10.1247L11.7515 10.0504C11.7447 9.96716 11.7391 9.88166 11.729 9.78267C11.7011 9.46938 11.6473 9.15895 11.5681 8.85456C11.4253 8.3022 11.0731 7.85558 10.7086 7.39209L10.5489 7.18847C10.3689 6.95673 10.1405 6.65073 10.0584 6.32224C10.0036 6.11926 10.013 5.90428 10.0854 5.70688C10.1664 5.49313 10.3138 5.32889 10.4814 5.20289C10.9629 4.8429 11.7504 4.06329 12.4422 3.34443C12.7831 2.99119 13.0902 2.66157 13.3141 2.4197L13.3197 2.41295C12.0369 1.56988 10.5348 1.12199 8.99981 1.12485ZM14.2174 3.10144L14.1398 3.18468C13.9137 3.42993 13.5998 3.76517 13.2533 4.12516C12.5761 4.8294 11.7324 5.66976 11.1665 6.09725C11.2003 6.17149 11.279 6.29524 11.4388 6.50111L11.5782 6.67886C11.9337 7.12547 12.449 7.77233 12.6571 8.57219C12.773 9.01656 12.8225 9.3878 12.8495 9.67917L12.8506 9.69042C13.5121 9.31918 14.2118 9.35743 14.7181 9.75004C15.2344 10.1483 15.4527 10.8424 15.249 11.5185C15.1579 11.82 14.9419 12.0754 14.7608 12.2655C14.6089 12.4241 14.4278 12.5906 14.2591 12.7436C14.2177 12.781 14.1765 12.8185 14.1353 12.8561C13.9238 13.0518 13.7416 13.2296 13.6021 13.4017C13.4592 13.5783 13.4018 13.7032 13.3872 13.7865C13.3422 14.0418 13.4682 14.3456 13.7135 14.6549C13.8271 14.7989 13.9486 14.9182 14.0408 15.0037L14.0689 15.0273C14.9486 14.2889 15.6557 13.3666 16.1405 12.3254C16.6252 11.2841 16.8758 10.1493 16.8746 9.00081C16.876 7.88518 16.6398 6.78206 16.1816 5.76485C15.7234 4.74765 15.0539 3.8397 14.2174 3.10144ZM7.64758 1.5231C7.59964 1.43685 7.54976 1.35171 7.49796 1.26773C6.26434 1.50762 5.10601 2.03915 4.11968 2.81794C3.13335 3.59674 2.34765 4.60019 1.82816 5.74453C1.30868 6.88886 1.0705 8.14087 1.1335 9.39602C1.1965 10.6512 1.55886 11.873 2.19033 12.9596C2.19829 12.8852 2.20729 12.811 2.21733 12.7369C2.28708 12.2115 2.43445 11.5455 2.88781 11.0595C3.40755 10.5027 4.04204 10.398 4.46728 10.3283L4.58878 10.3069C4.81715 10.2664 4.96677 10.2282 5.08714 10.1629C5.22605 10.083 5.33626 9.96138 5.40213 9.81529C5.43588 9.75454 5.45613 9.64992 5.42013 9.4373C5.37813 9.23305 5.32327 9.03165 5.25589 8.83431L5.20301 8.66219C5.03089 8.10308 4.78227 7.24247 5.29751 6.45949C5.7475 5.77663 6.46748 5.60226 6.9591 5.48188L7.11097 5.44476C7.63634 5.30976 7.97833 5.17252 8.21007 4.67978C8.50369 4.05429 8.37094 3.22631 8.07958 2.45232C7.95807 2.13261 7.8137 1.82207 7.64758 1.5231Z" fill="#191919"/>
</g>
<defs>
<clipPath id="clip0_573_16390">
<rect width="18" height="18" fill="white"/>
</clipPath>
</defs>
</svg>
