<svg width="18" height="18" viewBox="0 0 18 18" fill="none" xmlns="http://www.w3.org/2000/svg">
<path d="M9.59091 11.8636C9.59091 12.3155 9.2246 12.6818 8.77273 12.6818C8.32086 12.6818 7.95455 12.3155 7.95455 11.8636C7.95455 11.4118 8.32086 11.0455 8.77273 11.0455C9.2246 11.0455 9.59091 11.4118 9.59091 11.8636Z" fill="#191919"/>
<path d="M9.38636 4.90909C9.38636 4.57019 9.11163 4.29545 8.77273 4.29545C8.43383 4.29545 8.15909 4.57019 8.15909 4.90909V9.40909C8.15909 9.74799 8.43383 10.0227 8.77273 10.0227C9.11163 10.0227 9.38636 9.74799 9.38636 9.40909V4.90909Z" fill="#191919"/>
<path fill-rule="evenodd" clip-rule="evenodd" d="M1.30498 1.94708C1.12526 1.99461 1 2.15629 1 2.34306V11.2958C1 11.9602 1.14286 12.6272 1.5436 13.1556C3.42541 15.6369 7.36635 17.4592 8.47619 17.9381C8.66758 18.0206 8.87788 18.0206 9.06927 17.9381C10.1791 17.4592 14.12 15.6369 16.0019 13.1556C16.4026 12.6272 16.5455 11.9602 16.5455 11.2958V2.34306C16.5455 2.15629 16.4202 1.99461 16.2405 1.94708L8.98095 0.0270745C8.84446 -0.00902474 8.701 -0.00902486 8.56451 0.0270743L1.30498 1.94708ZM15.3182 2.97262L8.77273 1.24147L2.22727 2.97262L2.22727 11.2958C2.22727 11.8035 2.3388 12.1732 2.52146 12.414C3.32288 13.4707 4.62244 14.4506 5.93652 15.2488C7.09265 15.951 8.17965 16.465 8.77273 16.7282C9.36581 16.465 10.4528 15.951 11.6089 15.2488C12.923 14.4506 14.2226 13.4707 15.024 12.414C15.2067 12.1732 15.3182 11.8035 15.3182 11.2958V2.97262Z" fill="#191919"/>
</svg>
