<svg width="18" height="18" viewBox="0 0 18 18" fill="none" xmlns="http://www.w3.org/2000/svg">
<path fill-rule="evenodd" clip-rule="evenodd" d="M3.94341 1.22727L2.17689 16.7727H16.6094L14.8429 1.22727H3.94341ZM3.57818 0C3.16205 0 2.81221 0.312337 2.76523 0.7258L0.905724 17.0894C0.850572 17.5748 1.23021 18 1.71867 18H17.0676C17.5561 18 17.9357 17.5748 17.8806 17.0894L16.0211 0.725801C15.9741 0.312338 15.6243 0 15.2081 0H3.57818Z" fill="#191919"/>
<path fill-rule="evenodd" clip-rule="evenodd" d="M6.15159 5.15884C6.41858 4.95011 6.80423 4.99734 7.01296 5.26434C7.56656 5.97248 8.42675 6.42585 9.39316 6.42585C10.3596 6.42585 11.2198 5.97248 11.7734 5.26434C11.9821 4.99734 12.3677 4.95011 12.6347 5.15884C12.9017 5.36757 12.949 5.75322 12.7402 6.02022C11.964 7.01307 10.7532 7.65313 9.39316 7.65313C8.03313 7.65313 6.82227 7.01307 6.04608 6.02022C5.83736 5.75322 5.88459 5.36757 6.15159 5.15884Z" fill="#191919"/>
</svg>
