<svg width="18" height="18" viewBox="0 0 18 18" fill="none" xmlns="http://www.w3.org/2000/svg">
<path fill-rule="evenodd" clip-rule="evenodd" d="M4.82954 9.1409C6.85667 9.1409 8.49999 7.49758 8.49999 5.47044C8.49999 3.44331 6.85667 1.79999 4.82954 1.79999C2.8024 1.79999 1.15908 3.44331 1.15908 5.47044C1.15908 7.49758 2.8024 9.1409 4.82954 9.1409ZM4.82954 7.91362C6.17887 7.91362 7.27272 6.81977 7.27272 5.47044C7.27272 4.12111 6.17887 3.02726 4.82954 3.02726C3.4802 3.02726 2.38636 4.12111 2.38636 5.47044C2.38636 6.81977 3.4802 7.91362 4.82954 7.91362Z" fill="#191919"/>
<path fill-rule="evenodd" clip-rule="evenodd" d="M17.0673 7.46999C17.0673 9.10124 15.7449 10.4236 14.1136 10.4236C12.4824 10.4236 11.16 9.10124 11.16 7.46999C11.16 5.83874 12.4824 4.51635 14.1136 4.51635C15.7449 4.51635 17.0673 5.83874 17.0673 7.46999ZM15.84 7.46999C15.84 8.42343 15.0671 9.19635 14.1136 9.19635C13.1602 9.19635 12.3873 8.42343 12.3873 7.46999C12.3873 6.51654 13.1602 5.74362 14.1136 5.74362C15.0671 5.74362 15.84 6.51654 15.84 7.46999Z" fill="#191919"/>
<path fill-rule="evenodd" clip-rule="evenodd" d="M10.2273 14.4164C10.2273 12.8917 11.154 11.5836 12.4748 11.0244C12.9783 11.2381 13.5322 11.3564 14.1136 11.3564C14.6951 11.3564 15.249 11.2381 15.7525 11.0244C17.0733 11.5836 18 12.8917 18 14.4164V14.8909C18 15.3428 17.6337 15.7091 17.1818 15.7091H11.0455C10.5936 15.7091 10.2273 15.3428 10.2273 14.8909V14.4164ZM11.4545 14.4164C11.4545 13.5571 11.8963 12.7989 12.568 12.3599C13.0588 12.5056 13.5779 12.5836 14.1136 12.5836C14.6493 12.5836 15.1684 12.5056 15.6593 12.3599C16.331 12.7989 16.7727 13.5571 16.7727 14.4164V14.4818H11.4545V14.4164Z" fill="#191919"/>
<path fill-rule="evenodd" clip-rule="evenodd" d="M0 13.2091C0 11.6027 1.02876 10.2366 2.46338 9.73366C3.17355 10.0958 3.9777 10.3 4.82954 10.3C5.68139 10.3 6.48554 10.0958 7.19571 9.73366C8.63033 10.2366 9.65909 11.6027 9.65909 13.2091V14.8909C9.65909 15.3428 9.29278 15.7091 8.84091 15.7091H0.818183C0.366314 15.7091 0 15.3428 0 14.8909V13.2091ZM1.22727 13.2091C1.22727 12.2987 1.72336 11.502 2.46224 11.0781C3.19618 11.3682 3.99541 11.5273 4.82954 11.5273C5.66368 11.5273 6.46291 11.3682 7.19685 11.0781C7.93573 11.502 8.43182 12.2987 8.43182 13.2091V14.4818H1.22727V13.2091Z" fill="#191919"/>
</svg>
