<svg width="18" height="18" viewBox="0 0 18 18" fill="none" xmlns="http://www.w3.org/2000/svg">
<path fill-rule="evenodd" clip-rule="evenodd" d="M13.2294 5.13845C12.9897 5.37809 12.6012 5.37809 12.3616 5.13845L8.70455 1.48145L5.04755 5.13845C4.80791 5.37809 4.41938 5.37809 4.17974 5.13845C3.9401 4.89881 3.9401 4.51028 4.17974 4.27064L8.27064 0.17973C8.51028 -0.05991 8.89882 -0.0599099 9.13846 0.17973L13.2294 4.27064C13.469 4.51028 13.469 4.89881 13.2294 5.13845Z" fill="#191919"/>
<path fill-rule="evenodd" clip-rule="evenodd" d="M13.2294 12.8615C13.469 13.1012 13.469 13.4897 13.2294 13.7294L9.13845 17.8203C8.89881 18.0599 8.51028 18.0599 8.27064 17.8203L4.17973 13.7294C3.94009 13.4897 3.94009 13.1012 4.17973 12.8615C4.41937 12.6219 4.8079 12.6219 5.04754 12.8615L8.70454 16.5186L12.3616 12.8615C12.6012 12.6219 12.9897 12.6219 13.2294 12.8615Z" fill="#191919"/>
<path fill-rule="evenodd" clip-rule="evenodd" d="M8.70455 5.52273C9.04345 5.52273 9.31818 5.79746 9.31818 6.13636L9.31818 11.8636C9.31818 12.2025 9.04345 12.4773 8.70455 12.4773C8.36565 12.4773 8.09091 12.2025 8.09091 11.8636L8.09091 6.13636C8.09091 5.79746 8.36565 5.52273 8.70455 5.52273Z" fill="#191919"/>
</svg>
