<svg width="18" height="18" viewBox="0 0 18 18" fill="none" xmlns="http://www.w3.org/2000/svg">
<path fill-rule="evenodd" clip-rule="evenodd" d="M0 1.81818C0 1.36631 0.366313 1 0.818182 1H17.1818C17.6337 1 18 1.36631 18 1.81818V15.7273C18 16.1791 17.6337 16.5455 17.1818 16.5455H0.818182C0.366313 16.5455 0 16.1791 0 15.7273V1.81818ZM1.22727 9.64333V2.22727H16.7727V11.6736L12.3197 6.72586C12.1982 6.59085 12.0231 6.51661 11.8416 6.52312C11.6601 6.52964 11.4908 6.61625 11.3792 6.75963L8.98349 9.83987L5.38048 5.51625C5.26157 5.37357 5.08444 5.29241 4.89873 5.29554C4.71302 5.29867 4.53872 5.38574 4.42469 5.53235L1.22727 9.64333ZM1.22727 11.6423V15.3182H16.7727V13.5082L11.8979 8.09177L9.48435 11.1949C9.37032 11.3415 9.19602 11.4286 9.01032 11.4317C8.82461 11.4349 8.64747 11.3537 8.52857 11.211L4.92555 6.8874L1.22727 11.6423Z" fill="#191919"/>
</svg>
