<svg width="18" height="18" viewBox="0 0 18 18" fill="none" xmlns="http://www.w3.org/2000/svg">
<path fill-rule="evenodd" clip-rule="evenodd" d="M9.3347 0C7.26779 0 5.50664 1.30232 4.82403 3.12905C4.70264 3.45389 4.86758 3.81563 5.19242 3.93702C5.51726 4.05841 5.87901 3.89347 6.00039 3.56863C6.50557 2.21674 7.8087 1.25581 9.3347 1.25581C11.2998 1.25581 12.8928 2.84885 12.8928 4.81395V5.44186H2.63701C2.17464 5.44186 1.7998 5.81669 1.7998 6.27907V17.1628C1.7998 17.6252 2.17464 18 2.63701 18H16.0324C16.4947 18 16.8696 17.6252 16.8696 17.1628V6.27907C16.8696 5.81669 16.4947 5.44186 16.0324 5.44186H14.1487V4.81395C14.1487 2.15528 11.9934 0 9.3347 0ZM3.05562 6.69767V16.7442H15.6138V6.69767H3.05562ZM7.66027 11.7209C7.66027 10.7962 8.40993 10.0465 9.33469 10.0465C10.2594 10.0465 11.0091 10.7962 11.0091 11.7209C11.0091 12.6457 10.2594 13.3953 9.33469 13.3953C8.40993 13.3953 7.66027 12.6457 7.66027 11.7209Z" fill="#191919"/>
</svg>
