<svg width="18" height="18" viewBox="0 0 18 18" fill="none" xmlns="http://www.w3.org/2000/svg">
<g clip-path="url(#clip0_110_4138)">
<path d="M9 14.3182C10.5815 14.3182 11.8636 13.0361 11.8636 11.4546H6.13637C6.13637 13.0361 7.41846 14.3182 9 14.3182Z" fill="#191919"/>
<path fill-rule="evenodd" clip-rule="evenodd" d="M1.47799 5.80701C2.34865 2.46602 5.38634 0 9 0H15.9545C16.4064 0 16.7727 0.366313 16.7727 0.818182V5.89747C17.4951 6.21311 18 6.93396 18 7.77273C18 8.61149 17.4951 9.33235 16.7727 9.64798V10.2273C16.7727 14.52 13.2928 18 9 18C4.70724 18 1.22728 14.52 1.22728 10.2273V9.64798C0.504859 9.33235 0 8.61149 0 7.77273C0 6.83995 0.624375 6.053 1.47799 5.80701ZM15.5455 1.22727H9C6.75027 1.22727 4.76563 2.36228 3.58747 4.09091H15.5455V1.22727ZM2.45455 7.77273C2.45455 6.90472 2.62351 6.07617 2.93034 5.31818H15.5455V10.2273C15.5455 13.8422 12.615 16.7727 9 16.7727C5.38505 16.7727 2.45455 13.8422 2.45455 10.2273V7.77273Z" fill="#191919"/>
</g>
<defs>
<clipPath id="clip0_110_4138">
<rect width="18" height="18" fill="white"/>
</clipPath>
</defs>
</svg>
