<svg width="18" height="18" viewBox="0 0 18 18" fill="none" xmlns="http://www.w3.org/2000/svg">
<path d="M9.61364 2.86364C9.61364 2.52473 9.3389 2.25 9 2.25C8.6611 2.25 8.38636 2.52473 8.38636 2.86364V4.09091C8.38636 4.42981 8.6611 4.70455 9 4.70455C9.3389 4.70455 9.61364 4.42981 9.61364 4.09091V2.86364Z" fill="#191919"/>
<path d="M4.22699 4.22699C4.46663 3.98735 4.85517 3.98735 5.09481 4.22699L5.96262 5.09481C6.20226 5.33445 6.20226 5.72298 5.96262 5.96262C5.72298 6.20226 5.33445 6.20226 5.09481 5.96262L4.22699 5.09481C3.98735 4.85517 3.98735 4.46663 4.22699 4.22699Z" fill="#191919"/>
<path fill-rule="evenodd" clip-rule="evenodd" d="M12.6818 9C12.6818 11.0334 11.0334 12.6818 9 12.6818C6.96659 12.6818 5.31818 11.0334 5.31818 9C5.31818 6.96659 6.96659 5.31818 9 5.31818C11.0334 5.31818 12.6818 6.96659 12.6818 9ZM11.4545 9C11.4545 10.3556 10.3556 11.4545 9 11.4545V6.54545C10.3556 6.54545 11.4545 7.64439 11.4545 9Z" fill="#191919"/>
<path d="M13.9091 8.38636C13.5702 8.38636 13.2955 8.6611 13.2955 9C13.2955 9.3389 13.5702 9.61364 13.9091 9.61364H15.1364C15.4753 9.61364 15.75 9.3389 15.75 9C15.75 8.6611 15.4753 8.38636 15.1364 8.38636H13.9091Z" fill="#191919"/>
<path d="M12.0374 12.0374C12.277 11.7977 12.6655 11.7977 12.9052 12.0374L13.773 12.9052C14.0126 13.1448 14.0126 13.5334 13.773 13.773C13.5334 14.0126 13.1448 14.0126 12.9052 13.773L12.0374 12.9052C11.7977 12.6655 11.7977 12.277 12.0374 12.0374Z" fill="#191919"/>
<path d="M9.61364 13.9091C9.61364 13.5702 9.3389 13.2955 9 13.2955C8.6611 13.2955 8.38636 13.5702 8.38636 13.9091V15.1364C8.38636 15.4753 8.6611 15.75 9 15.75C9.3389 15.75 9.61364 15.4753 9.61364 15.1364V13.9091Z" fill="#191919"/>
<path d="M5.96263 12.0374C6.20227 12.277 6.20227 12.6655 5.96263 12.9052L5.09481 13.773C4.85517 14.0126 4.46664 14.0126 4.227 13.773C3.98736 13.5334 3.98736 13.1448 4.227 12.9052L5.09481 12.0374C5.33445 11.7977 5.72299 11.7977 5.96263 12.0374Z" fill="#191919"/>
<path d="M2.86364 8.38636C2.52473 8.38636 2.25 8.6611 2.25 9C2.25 9.3389 2.52473 9.61364 2.86364 9.61364H4.09091C4.42981 9.61364 4.70455 9.3389 4.70455 9C4.70455 8.6611 4.42981 8.38636 4.09091 8.38636H2.86364Z" fill="#191919"/>
<path d="M13.773 4.22699C14.0126 4.46663 14.0126 4.85517 13.773 5.09481L12.9052 5.96262C12.6656 6.20226 12.277 6.20226 12.0374 5.96262C11.7977 5.72298 11.7977 5.33445 12.0374 5.09481L12.9052 4.22699C13.1448 3.98735 13.5334 3.98735 13.773 4.22699Z" fill="#191919"/>
<path fill-rule="evenodd" clip-rule="evenodd" d="M0 0.818182C0 0.366313 0.366313 0 0.818182 0H17.1818C17.6337 0 18 0.366313 18 0.818182V17.1818C18 17.6337 17.6337 18 17.1818 18H0.818182C0.366313 18 0 17.6337 0 17.1818V0.818182ZM1.22727 16.7727V1.22727H16.7727V16.7727H1.22727Z" fill="#191919"/>
</svg>
