<svg width="18" height="18" viewBox="0 0 18 18" fill="none" xmlns="http://www.w3.org/2000/svg">
<path d="M7.77273 8.67263C7.77273 9.35043 7.22326 9.8999 6.54545 9.8999C5.86765 9.8999 5.31818 9.35043 5.31818 8.67263C5.31818 7.99483 5.86765 7.44536 6.54545 7.44536C7.22326 7.44536 7.77273 7.99483 7.77273 8.67263Z" fill="#191919"/>
<path d="M12.6818 8.67263C12.6818 9.35043 12.1323 9.8999 11.4545 9.8999C10.7767 9.8999 10.2273 9.35043 10.2273 8.67263C10.2273 7.99483 10.7767 7.44536 11.4545 7.44536C12.1323 7.44536 12.6818 7.99483 12.6818 8.67263Z" fill="#191919"/>
<path fill-rule="evenodd" clip-rule="evenodd" d="M9 2.12718C4.62983 2.12718 1.22727 5.2218 1.22727 8.87717C1.22727 12.5326 4.62983 15.6272 9 15.6272C9.96322 15.6272 10.8837 15.475 11.7323 15.1979C11.9588 15.124 12.21 15.1278 12.4409 15.2214L14.7273 16.1481V13.8644C14.7273 13.5932 14.8349 13.3413 15.0115 13.1544C16.1196 11.9815 16.7727 10.491 16.7727 8.87717C16.7727 5.2218 13.3702 2.12718 9 2.12718ZM0 8.87717C0 4.3989 4.10685 0.899902 9 0.899902C13.8932 0.899902 18 4.3989 18 8.87717C18 10.8098 17.2254 12.5732 15.9545 13.9428V16.4518C15.9545 17.1773 15.22 17.6721 14.5476 17.3996L12.047 16.386C11.0941 16.6896 10.0679 16.8544 9 16.8544C4.10685 16.8544 0 13.3554 0 8.87717Z" fill="#191919"/>
</svg>
