<svg width="16" height="16" viewBox="0 0 16 16" fill="none" xmlns="http://www.w3.org/2000/svg">
<path fill-rule="evenodd" clip-rule="evenodd" d="M11.3905 8L8.52859 5.13807C8.26825 4.87772 8.26825 4.45561 8.52859 4.19526C8.78894 3.93491 9.21105 3.93491 9.4714 4.19526L12.8047 7.5286C13.0651 7.78895 13.0651 8.21105 12.8047 8.4714L9.4714 11.8047C9.21105 12.0651 8.78894 12.0651 8.52859 11.8047C8.26824 11.5444 8.26824 11.1223 8.52859 10.8619L11.3905 8Z" fill="#686868"/>
<path fill-rule="evenodd" clip-rule="evenodd" d="M6.39052 8L3.5286 5.13807C3.26825 4.87772 3.26825 4.45561 3.5286 4.19526C3.78895 3.93491 4.21106 3.93491 4.47141 4.19526L7.80474 7.5286C8.06509 7.78895 8.06509 8.21105 7.80474 8.4714L4.47141 11.8047C4.21106 12.0651 3.78895 12.0651 3.5286 11.8047C3.26825 11.5444 3.26825 11.1223 3.5286 10.8619L6.39052 8Z" fill="#686868"/>
</svg>
