<svg width="18" height="18" viewBox="0 0 18 18" fill="none" xmlns="http://www.w3.org/2000/svg">
<g clip-path="url(#clip0_118_2549)">
<path d="M4.08979 1.29151C2.54434 1.29151 1.29151 2.54434 1.29151 4.08979C1.29151 5.63523 2.54434 6.88806 4.08979 6.88806C4.1238 6.88806 4.15768 6.88746 4.1914 6.88625L4.69117 8.13567C4.4949 8.1646 4.29409 8.17958 4.08979 8.17958C1.83106 8.17958 0 6.34852 0 4.08979C0 1.83106 1.83106 0 4.08979 0C6.34852 0 8.17958 1.83106 8.17958 4.08979C8.17958 4.29409 8.1646 4.49489 8.13567 4.69116L6.88625 4.19139C6.88746 4.15767 6.88806 4.1238 6.88806 4.08979C6.88806 2.54434 5.63523 1.29151 4.08979 1.29151Z" fill="#191919"/>
<path d="M11.2252 2.79831C11.2252 2.45941 11.4999 2.18467 11.8388 2.18467H16.1439C16.4828 2.18467 16.7575 2.45941 16.7575 2.79831C16.7575 3.13721 16.4828 3.41194 16.1439 3.41194H11.8388C11.4999 3.41194 11.2252 3.13721 11.2252 2.79831Z" fill="#191919"/>
<path fill-rule="evenodd" clip-rule="evenodd" d="M9.44862 17.8583C9.38107 18.0441 9.11988 18.0482 9.04647 17.8647L3.35419 3.63399C3.28391 3.45828 3.45828 3.28391 3.63399 3.35419L17.8647 9.04647C18.0482 9.11988 18.0441 9.38107 17.8583 9.44862L11.7856 11.6569C11.7258 11.6786 11.6786 11.7258 11.6569 11.7856L9.44862 17.8583ZM9.2013 14.9472L10.5035 11.3662C10.6493 10.9652 10.9652 10.6493 11.3662 10.5035L14.9472 9.2013L5.37067 5.37067L9.2013 14.9472Z" fill="#191919"/>
</g>
<defs>
<clipPath id="clip0_118_2549">
<rect width="18" height="18" fill="white"/>
</clipPath>
</defs>
</svg>
