<svg width="18" height="18" viewBox="0 0 18 18" fill="none" xmlns="http://www.w3.org/2000/svg">
<g clip-path="url(#clip0_1803_12702)">
<path d="M1.6362 1.2276C1.52791 1.22784 1.42411 1.27096 1.34754 1.34754C1.27096 1.42411 1.22784 1.52791 1.2276 1.6362V16.3638C1.2276 16.5888 1.4103 16.7724 1.6362 16.7724H16.3638C16.4721 16.7722 16.5759 16.729 16.6525 16.6525C16.729 16.5759 16.7722 16.4721 16.7724 16.3638V1.6362C16.7722 1.52791 16.729 1.42411 16.6525 1.34754C16.5759 1.27096 16.4721 1.22784 16.3638 1.2276H1.6362ZM16.3638 0C17.2674 0 18 0.7326 18 1.6362V16.3638C18 16.5787 17.9577 16.7914 17.8755 16.9899C17.7932 17.1885 17.6727 17.3688 17.5208 17.5208C17.3688 17.6727 17.1885 17.7932 16.9899 17.8755C16.7914 17.9577 16.5787 18 16.3638 18H1.6362C1.42133 18 1.20857 17.9577 1.01005 17.8755C0.81154 17.7932 0.631167 17.6727 0.479232 17.5208C0.327297 17.3688 0.206775 17.1885 0.124548 16.9899C0.0423216 16.7914 0 16.5787 0 16.3638L0 1.6362C0 0.7326 0.7326 0 1.6362 0H16.3638ZM10.9863 6.1362L9.009 8.109L7.0335 6.1362C6.93061 6.03325 6.79447 5.97021 6.6494 5.95834C6.50433 5.94647 6.35976 5.98654 6.2415 6.0714L6.1659 6.1362C6.05093 6.25129 5.98634 6.40732 5.98634 6.57C5.98634 6.73268 6.05093 6.88871 6.1659 7.0038L8.1414 8.9775L6.1659 10.9512C6.05073 11.0663 5.98598 11.2223 5.9859 11.3851C5.98585 11.4657 6.00169 11.5456 6.0325 11.62C6.0633 11.6945 6.10848 11.7622 6.16545 11.8192C6.22242 11.8763 6.29006 11.9215 6.36451 11.9524C6.43897 11.9833 6.51878 11.9992 6.59938 11.9993C6.76217 11.9993 6.91833 11.9348 7.0335 11.8197L9.009 9.8442L10.9863 11.8197C11.2023 12.0357 11.538 12.0564 11.7783 11.8836L11.8539 11.8188C11.9689 11.7037 12.0335 11.5477 12.0335 11.385C12.0335 11.2223 11.9689 11.0663 11.8539 10.9512L9.8775 8.9775L11.853 7.0038C11.9596 6.8872 12.0171 6.734 12.0136 6.57607C12.0101 6.41814 11.9458 6.26765 11.8342 6.15589C11.7225 6.04413 11.5721 5.97972 11.4142 5.97605C11.2563 5.97238 11.103 6.02974 10.9863 6.1362Z" fill="#191919"/>
</g>
<defs>
<clipPath id="clip0_1803_12702">
<rect width="18" height="18" fill="white"/>
</clipPath>
</defs>
</svg>
