<svg width="18" height="18" viewBox="0 0 18 18" fill="none" xmlns="http://www.w3.org/2000/svg">
<g clip-path="url(#clip0_132_2656)">
<path fill-rule="evenodd" clip-rule="evenodd" d="M9 0C4.02931 0 0 4.02931 0 9C0 13.9707 4.02931 18 9 18C13.9707 18 18 13.9707 18 9C18 4.02931 13.9707 0 9 0ZM1.22981 9C1.22981 4.70852 4.70852 1.22981 9 1.22981C13.2915 1.22981 16.7702 4.70852 16.7702 9C16.7702 13.2915 13.2915 16.7702 9 16.7702C4.70852 16.7702 1.22981 13.2915 1.22981 9ZM9.61491 3.54969C9.61491 3.21009 9.3396 2.93478 9 2.93478C8.6604 2.93478 8.38509 3.21009 8.38509 3.54969V4.48688C7.95062 4.54971 7.52524 4.69859 7.16547 4.97115C6.60568 5.39526 6.28882 6.05531 6.28882 6.90373C6.28882 7.31686 6.38493 7.68351 6.57389 8.00008C6.76073 8.31309 7.01854 8.54415 7.29419 8.71957C7.62201 8.92818 8.00779 9.07618 8.38509 9.1944V11.719L6.74313 10.9577C6.48756 10.8392 6.18414 10.9095 6.00676 11.1284C5.82938 11.3472 5.82341 11.6586 5.99227 11.8841C6.55316 12.6331 7.4677 13.0787 8.38509 13.2352V14.4503C8.38509 14.7899 8.6604 15.0652 9 15.0652C9.3396 15.0652 9.61491 14.7899 9.61491 14.4503V13.2715C10.1436 13.2097 10.6607 13.0415 11.0935 12.7384C11.7246 12.2965 12.1304 11.5963 12.1304 10.677C12.1304 10.2639 12.0343 9.89724 11.8454 9.58067C11.6585 9.26766 11.4007 9.03659 11.1251 8.86118C10.6737 8.57398 10.1126 8.40166 9.61491 8.26378V5.97226L11.2886 6.63673C11.5597 6.74435 11.8691 6.64674 12.0293 6.40305C12.1896 6.15937 12.1566 5.83664 11.9503 5.63041C11.3778 5.0579 10.4956 4.65527 9.61491 4.51003V3.54969ZM7.90813 5.95141C8.03245 5.85723 8.19302 5.78407 8.38509 5.73759V7.89333C8.22305 7.83009 8.0793 7.76147 7.95445 7.68202C7.79775 7.5823 7.69526 7.47927 7.62989 7.36975C7.56664 7.26379 7.51863 7.11947 7.51863 6.90373C7.51863 6.38537 7.69649 6.11175 7.90813 5.95141ZM9.61491 12.0295V9.54454C9.95653 9.64871 10.241 9.75633 10.4648 9.89872C10.6215 9.99844 10.724 10.1015 10.7894 10.211C10.8526 10.317 10.9006 10.4613 10.9006 10.677C10.9006 11.1924 10.6927 11.5177 10.388 11.7311C10.1834 11.8744 9.91832 11.977 9.61491 12.0295Z" fill="#191919"/>
</g>
<defs>
<clipPath id="clip0_132_2656">
<rect width="18" height="18" fill="white"/>
</clipPath>
</defs>
</svg>
