<svg width="33" height="33" viewBox="0 0 33 33" fill="none" xmlns="http://www.w3.org/2000/svg">
<g clip-path="url(#clip0_1348_49039)">
<path fill-rule="evenodd" clip-rule="evenodd" d="M2.70964 10.6462C4.30586 4.52104 9.87496 0 16.5 0H29.25C30.0784 0 30.75 0.671573 30.75 1.5V10.812C32.0744 11.3907 33 12.7123 33 14.25C33 15.7877 32.0744 17.1093 30.75 17.688V18.75C30.75 26.6201 24.3701 33 16.5 33C8.62995 33 2.25001 26.6201 2.25001 18.75V17.688C0.925574 17.1093 0 15.7877 0 14.25C0 12.5399 1.14469 11.0972 2.70964 10.6462ZM28.5 2.25H16.5C12.3755 2.25 8.73699 4.33084 6.57703 7.5H28.5V2.25ZM4.50001 14.25C4.50001 12.6586 4.80977 11.1396 5.37228 9.75H28.5V18.75C28.5 25.3774 23.1274 30.75 16.5 30.75C9.87259 30.75 4.50001 25.3774 4.50001 18.75V14.25Z" fill="#191919"/>
<path d="M14 16H14.01" stroke="#191919" stroke-width="2" stroke-linecap="round" stroke-linejoin="round"/>
<path d="M20 16H20.01" stroke="#191919" stroke-width="2" stroke-linecap="round" stroke-linejoin="round"/>
<path d="M14 22C14.3911 21.6834 14.8578 21.4319 15.373 21.2602C15.8881 21.0884 16.4412 21 17 21C17.5588 21 18.1119 21.0884 18.627 21.2602C19.1422 21.4319 19.6089 21.6834 20 22" stroke="#191919" stroke-width="2" stroke-linecap="round" stroke-linejoin="round"/>
<path d="M23.5658 18.606C23.293 18.8867 23.1086 19.2412 23.0353 19.6256C22.9621 20.0101 23.0033 20.4076 23.1537 20.7689C23.3042 21.1302 23.5574 21.4394 23.8819 21.6582C24.2064 21.877 24.5879 21.9958 24.9793 21.9998C25.3706 22.0039 25.7546 21.893 26.0835 21.681C26.4125 21.4689 26.672 21.165 26.8299 20.807C26.9879 20.4489 27.0373 20.0523 26.972 19.6664C26.9067 19.2805 26.7297 18.9222 26.4628 18.636L24.9998 17L23.5658 18.606Z" stroke="#191919" stroke-width="2" stroke-linecap="round" stroke-linejoin="round"/>
</g>
<defs>
<clipPath id="clip0_1348_49039">
<rect width="33" height="33" fill="white"/>
</clipPath>
</defs>
</svg>
