<svg width="18" height="18" viewBox="0 0 18 18" fill="none" xmlns="http://www.w3.org/2000/svg">
<path fill-rule="evenodd" clip-rule="evenodd" d="M9 16.7727C13.2928 16.7727 16.7727 13.2928 16.7727 9C16.7727 4.70724 13.2928 1.22727 9 1.22727C4.70724 1.22727 1.22727 4.70724 1.22727 9C1.22727 13.2928 4.70724 16.7727 9 16.7727ZM9 18C13.9706 18 18 13.9706 18 9C18 4.02944 13.9706 0 9 0C4.02944 0 0 4.02944 0 9C0 13.9706 4.02944 18 9 18Z" fill="#191919"/>
<path d="M5.52875 5.52875C5.20923 5.84827 4.69118 5.84827 4.37166 5.52875C4.05214 5.20923 4.05214 4.69118 4.37166 4.37166C4.69118 4.05214 5.20923 4.05214 5.52875 4.37166C5.84827 4.69118 5.84827 5.20923 5.52875 5.52875Z" fill="#191919"/>
<path d="M13.6283 13.6283C13.3088 13.9479 12.7908 13.9479 12.4712 13.6283C12.1517 13.3088 12.1517 12.7908 12.4712 12.4713C12.7908 12.1517 13.3088 12.1517 13.6283 12.4713C13.9479 12.7908 13.9479 13.3088 13.6283 13.6283Z" fill="#191919"/>
<path fill-rule="evenodd" clip-rule="evenodd" d="M10.1571 10.1571L13.6283 4.37166L7.84292 7.84292L4.37167 13.6283L10.1571 10.1571ZM8.18182 9C8.18182 9.45187 8.54813 9.81818 9 9.81818C9.45187 9.81818 9.81818 9.45187 9.81818 9C9.81818 8.54813 9.45187 8.18182 9 8.18182C8.54813 8.18181 8.18182 8.54813 8.18182 9Z" fill="#191919"/>
</svg>
