<svg width="18" height="18" viewBox="0 0 18 18" fill="none" xmlns="http://www.w3.org/2000/svg">
<g clip-path="url(#clip0_196_1788)">
<path d="M0.00012207 8.99956C0.00012207 6.61266 0.948313 4.32353 2.6361 2.63574C4.32389 0.947947 6.61303 -0.000244141 8.99993 -0.000244141C11.3868 -0.000244141 13.676 0.947947 15.3638 2.63574C17.0515 4.32353 17.9997 6.61266 17.9997 8.99956C17.9997 11.3865 17.0515 13.6756 15.3638 15.3634C13.676 17.0512 11.3868 17.9994 8.99993 17.9994C6.61303 17.9994 4.32389 17.0512 2.6361 15.3634C0.948313 13.6756 0.00012207 11.3865 0.00012207 8.99956ZM8.99993 1.12473C8.9043 1.12473 8.80868 1.12698 8.71306 1.13036C8.84581 1.3801 8.99768 1.69734 9.13267 2.05621C9.44767 2.89544 9.72554 4.10029 9.2283 5.15889C8.77381 6.12637 7.9942 6.37837 7.39234 6.53361L7.28321 6.56174C6.71398 6.70799 6.43386 6.77998 6.23699 7.07923C6.04574 7.36835 6.09187 7.72496 6.27861 8.33133L6.32136 8.47082C6.39673 8.70819 6.48336 8.98494 6.52836 9.24481C6.5846 9.56655 6.59585 9.96029 6.40123 10.336C6.19874 10.7219 5.93549 10.9818 5.625 11.1505C5.36124 11.2841 5.07735 11.3734 4.78464 11.4149L4.68565 11.4318C4.22778 11.5128 3.96004 11.5589 3.71029 11.8266C3.51117 12.0404 3.39755 12.3981 3.3323 12.8852C3.3053 13.0855 3.28955 13.2846 3.27268 13.486L3.2648 13.5928C3.25051 13.8214 3.22081 14.0488 3.17593 14.2734L3.1703 14.2959C3.90782 15.1093 4.80768 15.759 5.81179 16.2031C6.81591 16.6473 7.90198 16.8759 8.99993 16.8744C10.5186 16.8744 11.9384 16.4435 13.1421 15.6988C13.0324 15.5897 12.9291 15.4744 12.8327 15.3534C12.5279 14.9709 12.1476 14.3308 12.2792 13.5872C12.3422 13.2351 12.5335 12.9336 12.7258 12.694C12.9227 12.451 13.1601 12.2249 13.3738 12.028L13.5178 11.8964C13.6821 11.7468 13.8249 11.6151 13.9476 11.488C14.1129 11.3148 14.1624 11.2214 14.1726 11.1921C14.2491 10.9379 14.1579 10.7376 14.0308 10.6387C13.9251 10.5565 13.699 10.4789 13.3446 10.7039C13.2263 10.7802 13.1051 10.8519 12.9812 10.9188C12.8634 10.9845 12.7358 11.0309 12.6032 11.056C12.4927 11.0759 12.379 11.0681 12.2722 11.0334C12.1654 10.9986 12.0689 10.938 11.9912 10.8569C11.8853 10.7384 11.8158 10.592 11.791 10.435C11.7742 10.3322 11.7629 10.2286 11.7572 10.1245L11.7516 10.0503C11.7449 9.96704 11.7392 9.88154 11.7291 9.78254C11.7012 9.46926 11.6474 9.15883 11.5682 8.85444C11.4254 8.30208 11.0733 7.85546 10.7088 7.39197L10.549 7.18835C10.369 6.95661 10.1407 6.65061 10.0585 6.32212C10.0037 6.11914 10.0131 5.90416 10.0855 5.70676C10.1665 5.49301 10.3139 5.32877 10.4815 5.20277C10.963 4.84278 11.7505 4.06317 12.4424 3.34431C12.7832 2.99107 13.0903 2.66145 13.3142 2.41958L13.3198 2.41283C12.037 1.56975 10.535 1.12187 8.99993 1.12473ZM14.2176 3.10131L14.1399 3.18456C13.9138 3.42981 13.6 3.76505 13.2535 4.12504C12.5762 4.82928 11.7325 5.66963 11.1666 6.09712C11.2004 6.17137 11.2791 6.29512 11.4389 6.50099L11.5784 6.67874C11.9339 7.12535 12.4491 7.77221 12.6572 8.57207C12.7731 9.01644 12.8226 9.38768 12.8496 9.67905L12.8507 9.6903C13.5122 9.31906 14.2119 9.3573 14.7182 9.74992C15.2345 10.1482 15.4528 10.8423 15.2492 11.5184C15.158 11.8199 14.942 12.0752 14.7609 12.2654C14.6091 12.424 14.4279 12.5905 14.2592 12.7435C14.2179 12.7809 14.1766 12.8184 14.1354 12.856C13.9239 13.0517 13.7417 13.2295 13.6022 13.4016C13.4593 13.5782 13.402 13.7031 13.3873 13.7863C13.3423 14.0417 13.4683 14.3454 13.7136 14.6548C13.8272 14.7988 13.9487 14.9181 14.0409 15.0036L14.0691 15.0272C14.9487 14.2887 15.6558 13.3664 16.1406 12.3252C16.6253 11.284 16.8759 10.1492 16.8748 9.00069C16.8761 7.88506 16.6399 6.78194 16.1817 5.76473C15.7236 4.74753 15.054 3.83958 14.2176 3.10131ZM7.64771 1.52297C7.59977 1.43673 7.54988 1.35159 7.49809 1.2676C6.26446 1.5075 5.10613 2.03903 4.1198 2.81782C3.13347 3.59661 2.34777 4.60007 1.82829 5.74441C1.3088 6.88874 1.07062 8.14075 1.13362 9.3959C1.19663 10.651 1.55899 11.8729 2.19045 12.9595C2.19841 12.8851 2.20741 12.8108 2.21745 12.7367C2.2872 12.2114 2.43457 11.5454 2.88793 11.0594C3.40767 10.5025 4.04216 10.3979 4.4674 10.3282L4.5889 10.3068C4.81727 10.2663 4.96689 10.228 5.08726 10.1628C5.22617 10.0829 5.33638 9.96125 5.40226 9.81517C5.436 9.75442 5.45625 9.6498 5.42025 9.43718C5.37825 9.23293 5.32339 9.03153 5.25601 8.83419L5.20313 8.66207C5.03101 8.10296 4.78239 7.24235 5.29763 6.45937C5.74762 5.77651 6.46761 5.60213 6.95922 5.48176L7.11109 5.44464C7.63646 5.30964 7.97845 5.17239 8.21019 4.67965C8.50381 4.05417 8.37107 3.22619 8.0797 2.4522C7.9582 2.13249 7.81383 1.82194 7.64771 1.52297Z" fill="#191919"/>
</g>
<defs>
<clipPath id="clip0_196_1788">
<rect width="18" height="18" fill="white"/>
</clipPath>
</defs>
</svg>
