<svg width="18" height="18" viewBox="0 0 18 18" fill="none" xmlns="http://www.w3.org/2000/svg">
<g clip-path="url(#clip0_118_2562)">
<path fill-rule="evenodd" clip-rule="evenodd" d="M10.8126 3.30541L14.0401 6.53292L15.7714 4.80161L12.5439 1.57411L10.8126 3.30541ZM9.94477 4.17322L13.1723 7.40073L6.27546 14.2975L3.22726 14.1182L3.04796 11.07L9.94477 4.17322ZM1.91426 10.4681C1.8355 10.5469 1.79418 10.6555 1.80072 10.7667L2.04582 14.9333C2.05742 15.1307 2.21485 15.2881 2.41218 15.2997L6.57876 15.5448C6.68995 15.5513 6.79863 15.51 6.87739 15.4312L17.2313 5.07734C17.3836 4.92506 17.3836 4.67816 17.2313 4.52588L12.8196 0.114211C12.6673 -0.0380702 12.4204 -0.0380704 12.2682 0.114211L1.91426 10.4681Z" fill="#191919"/>
<path fill-rule="evenodd" clip-rule="evenodd" d="M1.96717 17.3864C1.96717 17.0475 2.24191 16.7727 2.58081 16.7727H14.1132C14.4521 16.7727 14.7268 17.0475 14.7268 17.3864C14.7268 17.7253 14.4521 18 14.1132 18H2.58081C2.24191 18 1.96717 17.7253 1.96717 17.3864Z" fill="#191919"/>
</g>
<defs>
<clipPath id="clip0_118_2562">
<rect width="18" height="18" fill="white"/>
</clipPath>
</defs>
</svg>
