<svg width="18" height="18" viewBox="0 0 18 18" fill="none" xmlns="http://www.w3.org/2000/svg">
<path d="M3.47727 6.01354C3.47727 5.67464 3.75201 5.3999 4.09091 5.3999H11.4545C11.7934 5.3999 12.0682 5.67464 12.0682 6.01354C12.0682 6.35244 11.7934 6.62718 11.4545 6.62718H4.09091C3.75201 6.62718 3.47727 6.35244 3.47727 6.01354Z" fill="#191919"/>
<path d="M4.09091 8.67263C3.75201 8.67263 3.47727 8.94736 3.47727 9.28627C3.47727 9.62517 3.75201 9.8999 4.09091 9.8999H6.54545C6.88436 9.8999 7.15909 9.62517 7.15909 9.28627C7.15909 8.94736 6.88436 8.67263 6.54545 8.67263H4.09091Z" fill="#191919"/>
<path d="M12.6818 11.7408C12.3429 11.7408 12.0682 12.0155 12.0682 12.3544C12.0682 12.6933 12.3429 12.9681 12.6818 12.9681H14.7273C15.0662 12.9681 15.3409 12.6933 15.3409 12.3544C15.3409 12.0155 15.0662 11.7408 14.7273 11.7408H12.6818Z" fill="#191919"/>
<path fill-rule="evenodd" clip-rule="evenodd" d="M0 1.92263C0 1.35779 0.457891 0.899902 1.02273 0.899902H15.1364C15.7012 0.899902 16.1591 1.35779 16.1591 1.92263V8.82892C17.2719 9.60513 18 10.8948 18 12.3544C18 14.7268 16.0769 16.6499 13.7045 16.6499C12.4324 16.6499 11.2894 16.0969 10.5028 15.2181H1.02273C0.457891 15.2181 0 14.7602 0 14.1954V1.92263ZM14.9318 2.12718V8.23687C14.543 8.12114 14.131 8.05899 13.7045 8.05899C11.3322 8.05899 9.40909 9.98213 9.40909 12.3544C9.40909 12.9339 9.52381 13.4865 9.73177 13.9908H1.22727V2.12718H14.9318ZM10.6364 12.3544C10.6364 14.049 12.01 15.4226 13.7045 15.4226C15.3991 15.4226 16.7727 14.049 16.7727 12.3544C16.7727 10.6599 15.3991 9.28627 13.7045 9.28627C12.01 9.28627 10.6364 10.6599 10.6364 12.3544Z" fill="#191919"/>
</svg>
