<svg width="18" height="18" viewBox="0 0 18 18" fill="none" xmlns="http://www.w3.org/2000/svg">
<path d="M1.6875 0.75C1.37684 0.75 1.125 1.00184 1.125 1.3125V16.6875C1.125 16.9982 1.37684 17.25 1.6875 17.25H15.4441C15.7547 17.25 16.0066 16.9982 16.0066 16.6875V13.0461C16.0066 12.7354 15.7547 12.4836 15.4441 12.4836C15.1334 12.4836 14.8816 12.7354 14.8816 13.0461V16.125H2.25V1.875H14.8816V2.93092C14.8816 3.24158 15.1334 3.49342 15.4441 3.49342C15.7547 3.49342 16.0066 3.24158 16.0066 2.93092V1.3125C16.0066 1.00184 15.7547 0.75 15.4441 0.75H1.6875Z" fill="#191919"/>
<path d="M4.51974 4.39146C4.20908 4.39146 3.95724 4.6433 3.95724 4.95396C3.95724 5.26462 4.20908 5.51646 4.51974 5.51646H7.75658C8.06724 5.51646 8.31908 5.26462 8.31908 4.95396C8.31908 4.6433 8.06724 4.39146 7.75658 4.39146H4.51974Z" fill="#191919"/>
<path d="M3.95724 7.78619C3.95724 7.47553 4.20908 7.22369 4.51974 7.22369H6.13816C6.44882 7.22369 6.70066 7.47553 6.70066 7.78619C6.70066 8.09685 6.44882 8.34869 6.13816 8.34869H4.51974C4.20908 8.34869 3.95724 8.09685 3.95724 7.78619Z" fill="#191919"/>
<path fill-rule="evenodd" clip-rule="evenodd" d="M6.90194 11.4277C6.91274 11.3377 6.95346 11.2539 7.01756 11.1898L13.785 4.4224C13.943 4.26439 14.1992 4.26439 14.3572 4.4224L16.9321 6.99729C17.0901 7.1553 17.0901 7.41148 16.9321 7.56949L10.1647 14.3369C10.1006 14.401 10.0168 14.4417 9.92676 14.4525L7.00075 14.8037C6.74041 14.8349 6.51958 14.6141 6.55082 14.3537L6.90194 11.4277ZM7.77705 13.5774L7.98924 11.8091L14.0711 5.72729L15.6272 7.28339L9.54534 13.3652L7.77705 13.5774Z" fill="#191919"/>
</svg>
