<svg width="18" height="18" viewBox="0 0 18 18" fill="none" xmlns="http://www.w3.org/2000/svg">
<path fill-rule="evenodd" clip-rule="evenodd" d="M13.68 2.51123C13.68 2.00969 13.8708 1.66855 14.1347 1.44457C14.4104 1.21063 14.7973 1.08001 15.2051 1.08001C15.6129 1.08001 15.9998 1.21063 16.2755 1.44457C16.5395 1.66855 16.7302 2.00969 16.7302 2.51123C16.7302 2.87914 16.6416 3.10249 16.5276 3.27357C16.4074 3.45382 16.2499 3.59525 16.0252 3.79702L15.9703 3.84641C15.7318 4.06106 15.4388 4.33366 15.2162 4.72686C14.9884 5.1294 14.8528 5.62233 14.8528 6.26595C14.8528 6.56418 15.0946 6.80595 15.3929 6.80595C15.6911 6.80595 15.9329 6.56418 15.9329 6.26595C15.9329 5.78315 16.032 5.4782 16.1561 5.25887C16.2856 5.03019 16.4619 4.85692 16.6928 4.64917L16.7583 4.59049C16.9653 4.4058 17.2257 4.17331 17.4262 3.87265C17.6641 3.51573 17.8102 3.082 17.8102 2.51123C17.8102 1.69862 17.4847 1.05415 16.9742 0.621053C16.4755 0.197916 15.8299 0 15.2051 0C14.5804 0 13.9347 0.197916 13.436 0.621053C12.9256 1.05415 12.6 1.69862 12.6 2.51123C12.6 2.80947 12.8418 3.05124 13.14 3.05124C13.4383 3.05124 13.68 2.80947 13.68 2.51123ZM7.65006 9.89993C9.97382 9.89993 11.8576 8.08667 11.8576 5.8499C11.8576 3.61313 9.97382 1.79987 7.65006 1.79987C5.32631 1.79987 3.44253 3.61313 3.44253 5.8499C3.44253 8.08667 5.32631 9.89993 7.65006 9.89993ZM7.65006 8.79538C9.34007 8.79538 10.7101 7.47664 10.7101 5.8499C10.7101 4.22316 9.34007 2.90442 7.65006 2.90442C5.96006 2.90442 4.59004 4.22316 4.59004 5.8499C4.59004 7.47664 5.96006 8.79538 7.65006 8.79538ZM3.45973 10.6363H3.44253C1.54127 10.6363 0 12.1199 0 13.95V16.5273C0 17.3406 0.68501 18 1.53001 18H13.7701C14.6151 18 15.3001 17.3406 15.3001 16.5273V13.95C15.3001 12.1199 13.7589 10.6363 11.8576 10.6363H11.8404C10.7087 11.5552 9.24657 12.109 7.65006 12.109C6.05356 12.109 4.59144 11.5552 3.45973 10.6363ZM12.2056 11.7661C10.9332 12.6751 9.35572 13.2136 7.65006 13.2136C5.94441 13.2136 4.36696 12.6751 3.09452 11.7661C1.99216 11.9275 1.14751 12.8438 1.14751 13.95V16.5273C1.14751 16.7306 1.31876 16.8954 1.53001 16.8954H13.7701C13.9814 16.8954 14.1526 16.7306 14.1526 16.5273V13.95C14.1526 12.8438 13.308 11.9275 12.2056 11.7661Z" fill="#191919"/>
<path fill-rule="evenodd" clip-rule="evenodd" d="M15.8279 8.12767C16.0285 8.31005 16.0433 8.62052 15.8609 8.82114L15.8542 8.82856C15.6718 9.02917 15.3613 9.04396 15.1607 8.86158C14.9601 8.6792 14.9453 8.36873 15.1277 8.16811L15.1344 8.16069C15.3168 7.96008 15.6273 7.94529 15.8279 8.12767Z" fill="#191919"/>
</svg>
