<svg width="18" height="18" viewBox="0 0 18 18" fill="none" xmlns="http://www.w3.org/2000/svg">
<path fill-rule="evenodd" clip-rule="evenodd" d="M9.00001 3.12987L8.31145 2.43631C6.4101 0.521228 3.32738 0.521228 1.42603 2.43631C-0.475344 4.3514 -0.475344 7.45629 1.42603 9.37138L9.00001 17L16.574 9.37138C18.4753 7.45641 18.4753 4.3514 16.574 2.43631C14.6726 0.521228 11.5899 0.521228 9.68854 2.43631L9.00001 3.12987ZM15.7156 3.3391C17.1251 4.7588 17.1251 7.04903 15.7156 8.46856L9.00001 15.2326L2.28441 8.46858C0.874894 7.04891 0.874901 4.75878 2.28441 3.3391C3.70871 1.90451 6.02876 1.90452 7.45307 3.3391L9.00003 4.89729L10.547 3.33907C11.9713 1.90451 14.2913 1.90452 15.7156 3.3391Z" fill="#191919"/>
</svg>
