<svg width="18" height="18" viewBox="0 0 18 18" fill="none" xmlns="http://www.w3.org/2000/svg">
<path d="M10.1773 2.12718C6.53481 2.12718 3.58196 5.08003 3.58196 8.72256C3.58196 8.72258 3.58196 8.72255 3.58196 8.72256L5.93684 8.72261L2.96842 12.1151L0 8.72261H2.35468C2.35468 8.72259 2.35468 8.72263 2.35468 8.72261C2.35468 4.40227 5.85701 0.899902 10.1773 0.899902C14.4977 0.899902 18 4.40223 18 8.72256C18 13.0429 14.4977 16.5452 10.1773 16.5452C9.83844 16.5452 9.5637 16.2705 9.5637 15.9316C9.5637 15.5927 9.83844 15.3179 10.1773 15.3179C13.8199 15.3179 16.7727 12.3651 16.7727 8.72256C16.7727 5.08003 13.8199 2.12718 10.1773 2.12718Z" fill="#191919"/>
<path d="M9.75332 4.71647C10.0922 4.71647 10.367 4.99121 10.367 5.33011V8.79054L13.0262 10.3101C13.3204 10.4782 13.4227 10.8531 13.2545 11.1473C13.0864 11.4416 12.7115 11.5438 12.4173 11.3757L9.44886 9.67944C9.25767 9.57019 9.13968 9.36686 9.13968 9.14665V5.33011C9.13968 4.99121 9.41441 4.71647 9.75332 4.71647Z" fill="#191919"/>
</svg>
