<svg width="18" height="18" viewBox="0 0 18 18" fill="none" xmlns="http://www.w3.org/2000/svg">
<path d="M7.36364 11.119C7.36364 10.2249 8.09626 9.5 9 9.5C9.90374 9.5 10.6364 10.2249 10.6364 11.119C10.6364 12.0132 9.90374 12.7381 9 12.7381C8.09626 12.7381 7.36364 12.0132 7.36364 11.119Z" fill="#191919"/>
<path fill-rule="evenodd" clip-rule="evenodd" d="M4.25059 8.92062V16.7857H13.7494V8.92062H15.5998L9 2.39067L2.40021 8.92062H4.25059ZM8.43651 1.23093C8.74772 0.923022 9.25228 0.923022 9.56349 1.23093L17.8825 9.46191C18.1335 9.71026 17.9557 10.1349 17.6008 10.1349H14.9767V17.2115C14.9767 17.647 14.6199 18 14.1798 18H3.82021C3.3801 18 3.02332 17.647 3.02332 17.2115V10.1349H0.399244C0.0442672 10.1349 -0.133506 9.71026 0.117501 9.46191L8.43651 1.23093Z" fill="#191919"/>
</svg>
