<svg width="18" height="18" viewBox="0 0 18 18" fill="none" xmlns="http://www.w3.org/2000/svg">
<path d="M9.61364 0.613636C9.61364 0.274734 9.3389 0 9 0C8.6611 0 8.38636 0.274734 8.38636 0.613636V8.73793H4.25232C4.07009 8.73793 3.97883 8.95825 4.10768 9.08711L8.71071 13.6901C8.87047 13.8499 9.12949 13.8499 9.28925 13.6901L13.8923 9.08711C14.0211 8.95825 13.9299 8.73793 13.7476 8.73793H9.61364V0.613636Z" fill="#191919"/>
<path d="M0.613636 8.12429C0.952538 8.12429 1.22727 8.39902 1.22727 8.73793C1.22727 13.0307 4.70724 16.5107 9 16.5107C13.2928 16.5107 16.7727 13.0307 16.7727 8.73793C16.7727 8.39902 17.0475 8.12429 17.3864 8.12429C17.7253 8.12429 18 8.39902 18 8.73793C18 13.7085 13.9706 17.7379 9 17.7379C4.02944 17.7379 0 13.7085 0 8.73793C0 8.39902 0.274734 8.12429 0.613636 8.12429Z" fill="#191919"/>
</svg>
