<svg width="20" height="16" viewBox="0 0 20 16" fill="none" xmlns="http://www.w3.org/2000/svg">
<path fill-rule="evenodd" clip-rule="evenodd" d="M5.36615 8.65657C7.61853 8.65657 9.44444 6.83066 9.44444 4.57828C9.44444 2.32591 7.61853 0.5 5.36615 0.5C3.11378 0.5 1.28787 2.32591 1.28787 4.57828C1.28787 6.83066 3.11378 8.65657 5.36615 8.65657ZM5.36615 7.29293C6.86541 7.29293 8.0808 6.07754 8.0808 4.57828C8.0808 3.07903 6.86541 1.86364 5.36615 1.86364C3.86689 1.86364 2.65151 3.07903 2.65151 4.57828C2.65151 6.07754 3.86689 7.29293 5.36615 7.29293Z" fill="#191919"/>
<path fill-rule="evenodd" clip-rule="evenodd" d="M18.9636 6.8C18.9636 8.6125 17.4943 10.0818 15.6818 10.0818C13.8693 10.0818 12.4 8.6125 12.4 6.8C12.4 4.9875 13.8693 3.51818 15.6818 3.51818C17.4943 3.51818 18.9636 4.9875 18.9636 6.8ZM17.6 6.8C17.6 7.85938 16.7412 8.71818 15.6818 8.71818C14.6224 8.71818 13.7636 7.85938 13.7636 6.8C13.7636 5.74062 14.6224 4.88182 15.6818 4.88182C16.7412 4.88182 17.6 5.74062 17.6 6.8Z" fill="#191919"/>
<path fill-rule="evenodd" clip-rule="evenodd" d="M11.3636 14.5182C11.3636 12.8242 12.3933 11.3707 13.8609 10.7493C14.4203 10.9868 15.0357 11.1182 15.6818 11.1182C16.3279 11.1182 16.9433 10.9868 17.5027 10.7493C18.9703 11.3706 20 12.8242 20 14.5182V15.0455C20 15.5475 19.593 15.9545 19.0909 15.9545H12.2727C11.7707 15.9545 11.3636 15.5475 11.3636 15.0455V14.5182ZM12.7273 14.5182C12.7273 13.5634 13.2181 12.7211 13.9644 12.2333C14.5098 12.3951 15.0866 12.4818 15.6818 12.4818C16.277 12.4818 16.8538 12.3951 17.3992 12.2332C18.1456 12.7211 18.6364 13.5634 18.6364 14.5182V14.5909H12.7273V14.5182Z" fill="#191919"/>
<path fill-rule="evenodd" clip-rule="evenodd" d="M0 13.1768C0 11.3919 1.14306 9.874 2.73708 9.31519C3.52617 9.71755 4.41966 9.94445 5.36616 9.94445C6.31265 9.94445 7.20615 9.71755 7.99523 9.31519C9.58926 9.874 10.7323 11.3919 10.7323 13.1768V15.0455C10.7323 15.5475 10.3253 15.9545 9.82323 15.9545H0.909092C0.407015 15.9545 0 15.5475 0 15.0455V13.1768ZM1.36364 13.1768C1.36364 12.1653 1.91484 11.28 2.73582 10.809C3.55131 11.1313 4.43934 11.3081 5.36616 11.3081C6.29298 11.3081 7.18101 11.1313 7.9965 10.809C8.81748 11.28 9.36869 12.1653 9.36869 13.1768V14.5909H1.36364V13.1768Z" fill="#191919"/>
</svg>
