<svg width="20" height="21" viewBox="0 0 20 21" fill="none" xmlns="http://www.w3.org/2000/svg">
<path fill-rule="evenodd" clip-rule="evenodd" d="M0 19.8182C0 15.6505 2.69744 12.1128 6.44171 10.8557C4.87579 9.85938 3.8369 8.1085 3.8369 6.11497C3.8369 3.01391 6.35081 0.5 9.45187 0.5C12.5529 0.5 15.0668 3.01391 15.0668 6.11497C15.0668 9.21604 12.5529 11.7299 9.45187 11.7299C4.98486 11.7299 1.36364 15.3512 1.36364 19.8182C1.36364 20.1947 1.05838 20.5 0.681818 20.5C0.30526 20.5 0 20.1947 0 19.8182ZM5.20053 6.11497C5.20053 3.76702 7.10392 1.86364 9.45187 1.86364C11.7998 1.86364 13.7032 3.76702 13.7032 6.11497C13.7032 8.46292 11.7998 10.3663 9.45187 10.3663C7.10392 10.3663 5.20053 8.46292 5.20053 6.11497Z" fill="#191919"/>
<path d="M15 14.3636C15 13.9871 14.6947 13.6818 14.3182 13.6818C13.9416 13.6818 13.6364 13.9871 13.6364 14.3636V15.0455H12.9545C12.578 15.0455 12.2727 15.3507 12.2727 15.7273C12.2727 16.1038 12.578 16.4091 12.9545 16.4091H13.6364V17.0909C13.6364 17.4675 13.9416 17.7727 14.3182 17.7727C14.6947 17.7727 15 17.4675 15 17.0909V16.4091H15.6818C16.0584 16.4091 16.3636 16.1038 16.3636 15.7273C16.3636 15.3507 16.0584 15.0455 15.6818 15.0455H15V14.3636Z" fill="#191919"/>
<path fill-rule="evenodd" clip-rule="evenodd" d="M14.3182 10.9545C11.6823 10.9545 9.54545 13.0914 9.54545 15.7273C9.54545 18.3632 11.6823 20.5 14.3182 20.5C16.9541 20.5 19.0909 18.3632 19.0909 15.7273C19.0909 13.0914 16.9541 10.9545 14.3182 10.9545ZM10.9091 15.7273C10.9091 13.8445 12.4354 12.3182 14.3182 12.3182C16.201 12.3182 17.7273 13.8445 17.7273 15.7273C17.7273 17.6101 16.201 19.1364 14.3182 19.1364C12.4354 19.1364 10.9091 17.6101 10.9091 15.7273Z" fill="#191919"/>
</svg>
