<svg width="18" height="18" viewBox="0 0 18 18" fill="none" xmlns="http://www.w3.org/2000/svg">
<path fill-rule="evenodd" clip-rule="evenodd" d="M6.34091 9.40909C8.03542 9.40909 9.40909 8.03542 9.40909 6.34091C9.40909 4.6464 8.03542 3.27273 6.34091 3.27273C4.6464 3.27273 3.27273 4.6464 3.27273 6.34091C3.27273 8.03542 4.6464 9.40909 6.34091 9.40909ZM6.34091 8.18182C7.35761 8.18182 8.18182 7.35761 8.18182 6.34091C8.18182 5.3242 7.35761 4.5 6.34091 4.5C5.3242 4.5 4.5 5.3242 4.5 6.34091C4.5 7.35761 5.3242 8.18182 6.34091 8.18182Z" fill="#191919"/>
<path fill-rule="evenodd" clip-rule="evenodd" d="M0.818182 0C0.366313 0 0 0.366313 0 0.818182V17.1818C0 17.6337 0.366313 18 0.818182 18H17.1818C17.6337 18 18 17.6337 18 17.1818V0.818182C18 0.366313 17.6337 0 17.1818 0H0.818182ZM1.22727 1.22727V16.7727H9.21485C9.42095 12.6926 12.6926 9.42095 16.7727 9.21485V1.22727H1.22727ZM16.7727 10.444C13.3706 10.6474 10.6474 13.3706 10.444 16.7727H16.7727V10.444Z" fill="#191919"/>
</svg>
