<svg width="28" height="28" viewBox="0 0 28 28" fill="none" xmlns="http://www.w3.org/2000/svg">
<path d="M6.82691 17.9231L7.35724 18.4534L6.82691 17.9231ZM11.4231 17.9231L10.8928 18.4534H10.8928L11.4231 17.9231ZM11.7019 18.2019L12.2322 17.6716H12.2322L11.7019 18.2019ZM16.2981 18.2019L15.7678 17.6716H15.7678L16.2981 18.2019ZM19.8269 14.6731L19.2966 14.1428L19.8269 14.6731ZM24.4231 14.6731L24.9534 14.1428L24.4231 14.6731ZM2.625 1.75H25.375V0.25H2.625V1.75ZM26.25 2.625V25.375H27.75V2.625H26.25ZM25.375 26.25H2.625V27.75H25.375V26.25ZM1.75 25.375V2.625H0.25V25.375H1.75ZM2.625 26.25C2.14175 26.25 1.75 25.8582 1.75 25.375H0.25C0.25 26.6867 1.31332 27.75 2.625 27.75V26.25ZM26.25 25.375C26.25 25.8582 25.8582 26.25 25.375 26.25V27.75C26.6867 27.75 27.75 26.6867 27.75 25.375H26.25ZM25.375 1.75C25.8582 1.75 26.25 2.14175 26.25 2.625H27.75C27.75 1.31332 26.6867 0.25 25.375 0.25V1.75ZM2.625 0.25C1.31332 0.25 0.25 1.31332 0.25 2.625H1.75C1.75 2.14175 2.14175 1.75 2.625 1.75V0.25ZM1.53033 24.2803L7.35724 18.4534L6.29658 17.3928L0.46967 23.2197L1.53033 24.2803ZM10.8928 18.4534L11.1716 18.7322L12.2322 17.6716L11.9534 17.3928L10.8928 18.4534ZM16.8284 18.7322L20.3572 15.2034L19.2966 14.1428L15.7678 17.6716L16.8284 18.7322ZM23.8928 15.2034L26.4697 17.7803L27.5303 16.7197L24.9534 14.1428L23.8928 15.2034ZM20.3572 15.2034C21.3335 14.2271 22.9165 14.2271 23.8928 15.2034L24.9534 14.1428C23.3913 12.5807 20.8587 12.5807 19.2966 14.1428L20.3572 15.2034ZM11.1716 18.7322C12.7337 20.2943 15.2663 20.2943 16.8284 18.7322L15.7678 17.6716C14.7915 18.6479 13.2085 18.6479 12.2322 17.6716L11.1716 18.7322ZM7.35724 18.4534C8.33355 17.4771 9.91646 17.4771 10.8928 18.4534L11.9534 17.3928C10.3913 15.8307 7.85867 15.8307 6.29658 17.3928L7.35724 18.4534ZM11.1229 8.87475C11.1229 10.1164 10.1148 11.1245 8.87313 11.1245V12.6245C10.9432 12.6245 12.6229 10.9448 12.6229 8.87475H11.1229ZM8.87313 11.1245C7.63335 11.1245 6.625 10.1167 6.625 8.87475H5.125C5.125 10.9446 6.8044 12.6245 8.87313 12.6245V11.1245ZM6.625 8.87475C6.625 7.63282 7.63335 6.625 8.87313 6.625V5.125C6.8044 5.125 5.125 6.80492 5.125 8.87475H6.625ZM8.87313 6.625C10.1148 6.625 11.1229 7.63309 11.1229 8.87475H12.6229C12.6229 6.80466 10.9432 5.125 8.87313 5.125V6.625Z" fill="#1743D7"/>
</svg>
