<svg width="18" height="18" viewBox="0 0 18 18" fill="none" xmlns="http://www.w3.org/2000/svg">
<path d="M12.0428 5.95942C12.1577 6.07457 12.2222 6.23058 12.2222 6.39324C12.2222 6.55589 12.1577 6.7119 12.0428 6.82705L6.82823 12.0405C6.71209 12.1536 6.5564 12.2168 6.39432 12.2168C6.23224 12.2168 6.07656 12.1536 5.96042 12.0405C5.84552 11.9254 5.78099 11.7694 5.78099 11.6067C5.78099 11.4441 5.84552 11.288 5.96042 11.1729L11.175 5.95942C11.2901 5.84455 11.4462 5.78003 11.6089 5.78003C11.7715 5.78003 11.9276 5.84455 12.0428 5.95942ZM9.8694 12.4782L7.69604 14.6434C7.41244 14.9306 7.07463 15.1586 6.7022 15.3142C6.32978 15.4698 5.93015 15.55 5.52651 15.55C5.12287 15.55 4.72324 15.4698 4.35082 15.3142C3.9784 15.1586 3.64059 14.9306 3.35699 14.6434C2.7825 14.0677 2.45988 13.2876 2.45988 12.4743C2.45988 11.6611 2.7825 10.881 3.35699 10.3053L5.52267 8.13234C5.62857 8.01549 5.68546 7.86241 5.68158 7.70478C5.6777 7.54715 5.61334 7.39705 5.50182 7.28556C5.3903 7.17406 5.24017 7.10971 5.08251 7.10583C4.92485 7.10195 4.77173 7.15884 4.65486 7.26471L2.4815 9.43763C1.67493 10.244 1.2218 11.3378 1.2218 12.4782C1.2218 13.6186 1.67493 14.7123 2.4815 15.5187C3.28807 16.3251 4.38201 16.7782 5.52267 16.7782C6.66333 16.7782 7.75728 16.3251 8.56385 15.5187L10.7372 13.3458C10.8521 13.2307 10.9166 13.0747 10.9166 12.912C10.9166 12.7493 10.8521 12.5933 10.7372 12.4782C10.6807 12.4204 10.6132 12.3744 10.5387 12.3431C10.4642 12.3117 10.3842 12.2956 10.3033 12.2956C10.2225 12.2956 10.1424 12.3117 10.0679 12.3431C9.9934 12.3744 9.92591 12.4204 9.8694 12.4782V12.4782ZM15.5217 2.48121C15.1223 2.08189 14.6482 1.76513 14.1264 1.54902C13.6046 1.33291 13.0453 1.22168 12.4805 1.22168C11.9157 1.22168 11.3564 1.33291 10.8346 1.54902C10.3128 1.76513 9.83869 2.08189 9.43934 2.48121L7.26597 4.65413C7.16008 4.77098 7.10318 4.92406 7.10706 5.08169C7.11095 5.23932 7.17531 5.38942 7.28682 5.50092C7.39834 5.61241 7.54847 5.67676 7.70613 5.68064C7.86379 5.68452 8.01691 5.62764 8.13378 5.52176L10.3071 3.35652C10.5907 3.06935 10.9286 2.84134 11.301 2.68572C11.6734 2.5301 12.073 2.44997 12.4767 2.44997C12.8803 2.44997 13.2799 2.5301 13.6524 2.68572C14.0248 2.84134 14.3626 3.06935 14.6462 3.35652C15.2207 3.93228 15.5433 4.71234 15.5433 5.5256C15.5433 6.33887 15.2207 7.11893 14.6462 7.69469L12.4805 9.86761C12.4227 9.9241 12.3767 9.99158 12.3454 10.0661C12.314 10.1406 12.2979 10.2206 12.2979 10.3014C12.2979 10.3823 12.314 10.4623 12.3454 10.5368C12.3767 10.6113 12.4227 10.6787 12.4805 10.7352C12.5359 10.7936 12.6026 10.84 12.6765 10.8717C12.7505 10.9034 12.8301 10.9197 12.9106 10.9195C12.9921 10.9194 13.0728 10.903 13.148 10.8714C13.2231 10.8397 13.2912 10.7935 13.3483 10.7352L15.5217 8.56232C16.3264 7.75495 16.7783 6.66159 16.7783 5.52176C16.7783 4.38194 16.3264 3.28858 15.5217 2.48121V2.48121Z" fill="#191919"/>
</svg>
