<svg width="18" height="18" viewBox="0 0 18 18" fill="none" xmlns="http://www.w3.org/2000/svg">
<g clip-path="url(#clip0_110_4139)">
<path fill-rule="evenodd" clip-rule="evenodd" d="M9.97702 8.96135L10.798 10.3833C11.1368 10.9702 11.8873 11.1713 12.4743 10.8324L17.3862 7.9965C17.9732 7.65763 18.1743 6.90713 17.8354 6.32019L15.5799 2.41358C15.241 1.82665 14.4905 1.62555 13.9036 1.96442L8.99164 4.80034C8.40471 5.1392 8.20361 5.88971 8.54248 6.47664L9.36345 7.89861L8.02298 8.67254L7.20204 7.25064C6.86317 6.6637 6.11267 6.46261 5.52574 6.80147L0.613775 9.63739C0.0268428 9.97626 -0.174255 10.7268 0.16461 11.3137L2.4201 15.2203C2.75896 15.8072 3.50947 16.0083 4.0964 15.6695L9.00836 12.8336C9.59529 12.4947 9.79639 11.7442 9.45752 11.1573L8.63655 9.73527L9.97702 8.96135ZM14.5172 3.02715L9.60521 5.86307L10.4262 7.28504L12.3795 6.1573C12.673 5.98787 13.0482 6.08842 13.2176 6.38188C13.3871 6.67535 13.2865 7.0506 12.9931 7.22004L11.0398 8.34778L11.8607 9.76969L16.7727 6.93376L14.5172 3.02715ZM6.96024 9.28611L5.00695 10.4138C4.71348 10.5833 4.61293 10.9585 4.78236 11.252C4.9518 11.5455 5.32705 11.646 5.62052 11.4766L7.57381 10.3488L8.39479 11.7708L3.48283 14.6067L1.22734 10.7001L6.13931 7.8642L6.96024 9.28611Z" fill="#191919"/>
</g>
<defs>
<clipPath id="clip0_110_4139">
<rect width="18" height="18" fill="white"/>
</clipPath>
</defs>
</svg>
