<svg width="18" height="18" viewBox="0 0 18 18" fill="none" xmlns="http://www.w3.org/2000/svg">
<path fill-rule="evenodd" clip-rule="evenodd" d="M15.381 2.25954L11.4542 2.25954C11.0921 2.25954 10.7986 1.97758 10.7986 1.62977C10.7986 1.28196 11.0921 1 11.4542 1L15.381 1C16.7684 1 18 1.9968 18 3.34733V13.6527C18 15.0032 16.7684 16 15.381 16H11.4542C11.0921 16 10.7986 15.718 10.7986 15.3702C10.7986 15.0224 11.0921 14.7405 11.4542 14.7405H15.381C16.1623 14.7405 16.6887 14.1993 16.6887 13.6527V3.34733C16.6887 2.8007 16.1623 2.25954 15.381 2.25954ZM8.02442 4.64084C8.26823 4.38369 8.6829 4.36508 8.95061 4.59927L12.8774 8.03438C13.0138 8.15372 13.0915 8.32276 13.0915 8.5C13.0915 8.67724 13.0138 8.84628 12.8774 8.96562L8.95061 12.4007C8.6829 12.6349 8.26823 12.6163 8.02442 12.3592C7.78061 12.102 7.79999 11.7037 8.0677 11.4695L10.7423 9.12977L0.655629 9.12977C0.293535 9.12977 0 8.84781 0 8.5C0 8.15219 0.293535 7.87023 0.655629 7.87023L10.7423 7.87023L8.0677 5.5305C7.79999 5.29631 7.78061 4.89799 8.02442 4.64084Z" fill="#191919"/>
</svg>
