<svg width="18" height="18" viewBox="0 0 18 18" fill="none" xmlns="http://www.w3.org/2000/svg">
<path fill-rule="evenodd" clip-rule="evenodd" d="M0 1.46512C0 0.655955 0.641047 0 1.43182 0H16.5682C17.359 0 18 0.655955 18 1.46512V16.5349C18 17.344 17.359 18 16.5682 18H1.43182C0.641047 18 0 17.344 0 16.5349V1.46512ZM1.43182 1.25581C1.31885 1.25581 1.22727 1.34952 1.22727 1.46512V4.18605L4.09091 4.18605L4.09091 1.25581H1.43182ZM5.31818 1.25581L5.31818 16.7442H12.6818L12.6818 1.25581H5.31818ZM4.09091 16.7442L4.09091 13.814L1.22727 13.814V16.5349C1.22727 16.6505 1.31885 16.7442 1.43182 16.7442H4.09091ZM4.09091 12.5581L4.09091 9.62791L1.22727 9.62791V12.5581L4.09091 12.5581ZM4.09091 8.37209L4.09091 5.44186L1.22727 5.44186V8.37209L4.09091 8.37209ZM16.5682 16.7442H13.9091V13.814H16.7727V16.5349C16.7727 16.6505 16.6811 16.7442 16.5682 16.7442ZM16.7727 12.5581H13.9091V9.62791H16.7727V12.5581ZM16.7727 8.37209H13.9091V5.44186H16.7727V8.37209ZM16.7727 4.18605H13.9091V1.25581H16.5682C16.6811 1.25581 16.7727 1.34952 16.7727 1.46512V4.18605Z" fill="#191919"/>
</svg>
