<svg width="18" height="18" viewBox="0 0 18 18" fill="none" xmlns="http://www.w3.org/2000/svg">
<path d="M5.40002 7.36364C5.40002 7.02473 5.67476 6.75 6.01366 6.75H11.7409C12.0798 6.75 12.3546 7.02473 12.3546 7.36364C12.3546 7.70254 12.0798 7.97727 11.7409 7.97727H6.01366C5.67476 7.97727 5.40002 7.70254 5.40002 7.36364Z" fill="#191919"/>
<path d="M7.24093 9.61364C6.90203 9.61364 6.6273 9.88837 6.6273 10.2273C6.6273 10.5662 6.90203 10.8409 7.24093 10.8409H10.5137C10.8526 10.8409 11.1273 10.5662 11.1273 10.2273C11.1273 9.88837 10.8526 9.61364 10.5137 9.61364H7.24093Z" fill="#191919"/>
<path fill-rule="evenodd" clip-rule="evenodd" d="M5.19548 0.818182C5.19548 0.366312 5.56179 0 6.01366 0H11.7409C12.1928 0 12.5591 0.366313 12.5591 0.818182V1.22727H15.4228C16.2135 1.22727 16.8546 1.86832 16.8546 2.65909V16.5682C16.8546 17.359 16.2135 18 15.4228 18H2.33184C1.54107 18 0.900024 17.359 0.900024 16.5682V2.65909C0.900024 1.86832 1.54107 1.22727 2.33184 1.22727H5.19548V0.818182ZM6.42275 2.45455V1.22727H11.3318V2.45455H6.42275ZM12.5591 2.86364C12.5591 3.31551 12.1928 3.68182 11.7409 3.68182H6.01366C5.56179 3.68182 5.19548 3.31551 5.19548 2.86364V2.45455H2.33184C2.21888 2.45455 2.1273 2.54612 2.1273 2.65909V16.5682C2.1273 16.6811 2.21888 16.7727 2.33184 16.7727H15.4228C15.5357 16.7727 15.6273 16.6811 15.6273 16.5682V2.65909C15.6273 2.54612 15.5357 2.45455 15.4228 2.45455H12.5591V2.86364Z" fill="#191919"/>
</svg>
