<svg width="18" height="18" viewBox="0 0 18 18" fill="none" xmlns="http://www.w3.org/2000/svg">
<path fill-rule="evenodd" clip-rule="evenodd" d="M4.82954 9.14096C6.85667 9.14096 8.49999 7.49764 8.49999 5.4705C8.49999 3.44337 6.85667 1.80005 4.82954 1.80005C2.8024 1.80005 1.15908 3.44337 1.15908 5.4705C1.15908 7.49764 2.8024 9.14096 4.82954 9.14096ZM4.82954 7.91369C6.17887 7.91369 7.27272 6.81984 7.27272 5.4705C7.27272 4.12117 6.17887 3.02732 4.82954 3.02732C3.4802 3.02732 2.38636 4.12117 2.38636 5.4705C2.38636 6.81984 3.4802 7.91369 4.82954 7.91369Z" fill="#191919"/>
<path fill-rule="evenodd" clip-rule="evenodd" d="M17.0673 7.47005C17.0673 9.1013 15.7449 10.4237 14.1136 10.4237C12.4824 10.4237 11.16 9.1013 11.16 7.47005C11.16 5.8388 12.4824 4.51641 14.1136 4.51641C15.7449 4.51641 17.0673 5.8388 17.0673 7.47005ZM15.84 7.47005C15.84 8.42349 15.0671 9.19641 14.1136 9.19641C13.1602 9.19641 12.3873 8.42349 12.3873 7.47005C12.3873 6.5166 13.1602 5.74368 14.1136 5.74368C15.0671 5.74368 15.84 6.5166 15.84 7.47005Z" fill="#191919"/>
<path fill-rule="evenodd" clip-rule="evenodd" d="M10.2273 14.4164C10.2273 12.8918 11.154 11.5836 12.4748 11.0244C12.9783 11.2382 13.5322 11.3564 14.1136 11.3564C14.6951 11.3564 15.249 11.2382 15.7525 11.0244C17.0733 11.5836 18 12.8918 18 14.4164V14.891C18 15.3428 17.6337 15.7091 17.1818 15.7091H11.0455C10.5936 15.7091 10.2273 15.3428 10.2273 14.891V14.4164ZM11.4545 14.4164C11.4545 13.5571 11.8963 12.799 12.568 12.36C13.0588 12.5057 13.5779 12.5837 14.1136 12.5837C14.6493 12.5837 15.1684 12.5057 15.6593 12.36C16.331 12.799 16.7727 13.5571 16.7727 14.4164V14.4819H11.4545V14.4164Z" fill="#191919"/>
<path fill-rule="evenodd" clip-rule="evenodd" d="M0 13.2091C0 11.6028 1.02876 10.2367 2.46338 9.73372C3.17355 10.0958 3.9777 10.3001 4.82954 10.3001C5.68139 10.3001 6.48554 10.0958 7.19571 9.73372C8.63033 10.2367 9.65909 11.6028 9.65909 13.2091V14.891C9.65909 15.3428 9.29278 15.7091 8.84091 15.7091H0.818183C0.366314 15.7091 0 15.3428 0 14.891V13.2091ZM1.22727 13.2091C1.22727 12.2988 1.72336 11.502 2.46224 11.0782C3.19618 11.3682 3.99541 11.5273 4.82954 11.5273C5.66368 11.5273 6.46291 11.3682 7.19685 11.0782C7.93573 11.502 8.43182 12.2988 8.43182 13.2091V14.4819H1.22727V13.2091Z" fill="#191919"/>
</svg>
