<svg width="18" height="18" viewBox="0 0 18 18" fill="none" xmlns="http://www.w3.org/2000/svg">
<path d="M1 2.77778C1 2.30628 1.1873 1.8541 1.5207 1.5207C1.8541 1.1873 2.30628 1 2.77778 1H5.69333C5.87982 1.00014 6.06153 1.05893 6.21276 1.16804C6.36399 1.27716 6.47707 1.43107 6.536 1.608L7.86756 5.60178C7.93502 5.80475 7.92704 6.02524 7.84508 6.2228C7.76312 6.42036 7.61267 6.58174 7.42133 6.67733L5.41511 7.68178C6.39851 9.85826 8.14174 11.6015 10.3182 12.5849L11.3227 10.5787C11.4183 10.3873 11.5796 10.2369 11.7772 10.1549C11.9748 10.073 12.1953 10.065 12.3982 10.1324L16.392 11.464C16.5691 11.523 16.7231 11.6362 16.8322 11.7876C16.9413 11.939 17 12.1209 17 12.3076V15.2222C17 15.6937 16.8127 16.1459 16.4793 16.4793C16.1459 16.8127 15.6937 17 15.2222 17H14.3333C6.96978 17 1 11.0302 1 3.66667V2.77778Z" stroke="#191919" stroke-width="1.2" stroke-linecap="round" stroke-linejoin="round"/>
</svg>
