<svg width="18" height="18" viewBox="0 0 18 18" fill="none" xmlns="http://www.w3.org/2000/svg">
<g clip-path="url(#clip0_110_4129)">
<path d="M9.61364 0.613636C9.61364 0.274734 9.3389 0 9 0C8.6611 0 8.38636 0.274734 8.38636 0.613636V8.38636H0.613636C0.274734 8.38636 0 8.6611 0 9C0 9.3389 0.274734 9.61364 0.613636 9.61364H8.38636V17.3864C8.38636 17.7253 8.6611 18 9 18C9.3389 18 9.61364 17.7253 9.61364 17.3864V9.61364H17.3864C17.7253 9.61364 18 9.3389 18 9C18 8.6611 17.7253 8.38636 17.3864 8.38636H9.61364V0.613636Z" fill="#191919"/>
</g>
<defs>
<clipPath id="clip0_110_4129">
<rect width="18" height="18" fill="white"/>
</clipPath>
</defs>
</svg>
