<svg width="18" height="18" viewBox="0 0 18 18" fill="none" xmlns="http://www.w3.org/2000/svg">
<path fill-rule="evenodd" clip-rule="evenodd" d="M13.9091 2.12718H4.09091V7.85445C4.09091 10.5657 6.28878 12.7635 9 12.7635C11.7112 12.7635 13.9091 10.5657 13.9091 7.85445V2.12718ZM2.86364 0.899902V7.85445C2.86364 11.2435 5.61098 13.9908 9 13.9908C12.389 13.9908 15.1364 11.2435 15.1364 7.85445V0.899902H2.86364Z" fill="#191919"/>
<path fill-rule="evenodd" clip-rule="evenodd" d="M15.75 4.17263H15.1364V6.21809H15.75C16.3148 6.21809 16.7727 5.76019 16.7727 5.19536C16.7727 4.63052 16.3148 4.17263 15.75 4.17263ZM13.9091 2.94536V7.44536H15.75C16.9926 7.44536 18 6.438 18 5.19536C18 3.95272 16.9926 2.94536 15.75 2.94536H13.9091Z" fill="#191919"/>
<path fill-rule="evenodd" clip-rule="evenodd" d="M2.25 4.17263H2.86364V6.21809H2.25C1.68516 6.21809 1.22727 5.76019 1.22727 5.19536C1.22727 4.63052 1.68516 4.17263 2.25 4.17263ZM4.09091 2.94536V7.44536H2.25C1.00736 7.44536 0 6.438 0 5.19536C0 3.95272 1.00736 2.94536 2.25 2.94536H4.09091Z" fill="#191919"/>
<path fill-rule="evenodd" clip-rule="evenodd" d="M9 12.9681C9.3389 12.9681 9.61364 13.2428 9.61364 13.5817V15.8317H11.4545C11.7934 15.8317 12.0682 16.1065 12.0682 16.4454C12.0682 16.7843 11.7934 17.059 11.4545 17.059H6.54545C6.20655 17.059 5.93182 16.7843 5.93182 16.4454C5.93182 16.1065 6.20655 15.8317 6.54545 15.8317H8.38636V13.5817C8.38636 13.2428 8.6611 12.9681 9 12.9681Z" fill="#191919"/>
</svg>
