<svg width="18" height="18" viewBox="0 0 18 18" fill="none" xmlns="http://www.w3.org/2000/svg">
<path fill-rule="evenodd" clip-rule="evenodd" d="M14.175 4.5C14.175 6.98528 12.0819 9 9.5 9C6.91807 9 4.825 6.98528 4.825 4.5C4.825 2.01472 6.91807 0 9.5 0C12.0819 0 14.175 2.01472 14.175 4.5ZM12.9 4.5C12.9 6.30748 11.3778 7.77273 9.5 7.77273C7.62223 7.77273 6.1 6.30748 6.1 4.5C6.1 2.69252 7.62223 1.22727 9.5 1.22727C11.3778 1.22727 12.9 2.69252 12.9 4.5Z" fill="#191919"/>
<path fill-rule="evenodd" clip-rule="evenodd" d="M4.825 9.81818H4.84411C6.10156 10.8392 7.72612 11.4545 9.5 11.4545C11.2739 11.4545 12.8984 10.8392 14.1559 9.81818H14.175C16.2875 9.81818 18 11.4666 18 13.5V16.3636C18 17.2674 17.2389 18 16.3 18H2.7C1.76112 18 1 17.2674 1 16.3636V13.5C1 11.4666 2.71251 9.81818 4.825 9.81818ZM9.5 12.6818C11.3952 12.6818 13.1479 12.0835 14.5617 11.0735C15.7865 11.2528 16.725 12.2709 16.725 13.5V16.3636C16.725 16.5896 16.5347 16.7727 16.3 16.7727H2.7C2.46528 16.7727 2.275 16.5896 2.275 16.3636V13.5C2.275 12.2709 3.21349 11.2528 4.43832 11.0735C5.85213 12.0835 7.60484 12.6818 9.5 12.6818Z" fill="#191919"/>
</svg>
