<svg width="33" height="33" viewBox="0 0 33 33" fill="none" xmlns="http://www.w3.org/2000/svg">
<path d="M16.5 0C7.392 0 0 7.392 0 16.5C0 25.608 7.392 33 16.5 33C25.608 33 33 25.608 33 16.5C33 7.392 25.608 0 16.5 0ZM16.5 29.7C9.207 29.7 3.3 23.793 3.3 16.5C3.3 13.4475 4.3395 10.6425 6.0885 8.415L24.585 26.9115C22.2802 28.7236 19.4319 29.706 16.5 29.7ZM26.9115 24.585L8.415 6.0885C10.7198 4.27642 13.5681 3.29404 16.5 3.3C23.793 3.3 29.7 9.207 29.7 16.5C29.7 19.5525 28.6605 22.3575 26.9115 24.585Z" fill="black"/>
</svg>
