<svg width="18" height="18" viewBox="0 0 18 18" fill="none" xmlns="http://www.w3.org/2000/svg">
<path fill-rule="evenodd" clip-rule="evenodd" d="M5.19548 0.818182C5.19548 0.366312 5.56179 0 6.01366 0H11.7409C12.1928 0 12.5591 0.366313 12.5591 0.818182V1.22727H15.4228C16.2135 1.22727 16.8546 1.86832 16.8546 2.65909V16.5682C16.8546 17.359 16.2135 18 15.4228 18H2.33184C1.54107 18 0.900024 17.359 0.900024 16.5682V2.65909C0.900024 1.86832 1.54107 1.22727 2.33184 1.22727H5.19548V0.818182ZM6.42275 2.45455V1.22727H11.3318V2.45455H6.42275ZM12.5591 2.86364C12.5591 3.31551 12.1928 3.68182 11.7409 3.68182H6.01366C5.56179 3.68182 5.19548 3.31551 5.19548 2.86364V2.45455H2.33184C2.21888 2.45455 2.1273 2.54612 2.1273 2.65909V16.5682C2.1273 16.6811 2.21888 16.7727 2.33184 16.7727H15.4228C15.5357 16.7727 15.6273 16.6811 15.6273 16.5682V2.65909C15.6273 2.54612 15.5357 2.45455 15.4228 2.45455H12.5591V2.86364Z" fill="#191919"/>
<path fill-rule="evenodd" clip-rule="evenodd" d="M11.84 7.45364C11.84 9.08489 10.5176 10.4073 8.88637 10.4073C7.25513 10.4073 5.93274 9.08489 5.93274 7.45364C5.93274 5.82239 7.25513 4.5 8.88637 4.5C10.5176 4.5 11.84 5.82239 11.84 7.45364ZM10.6127 7.45364C10.6127 8.40708 9.83982 9.18 8.88637 9.18C7.93293 9.18 7.16001 8.40708 7.16001 7.45364C7.16001 6.50019 7.93293 5.72727 8.88637 5.72727C9.83982 5.72727 10.6127 6.50019 10.6127 7.45364Z" fill="#191919"/>
<path fill-rule="evenodd" clip-rule="evenodd" d="M5 14.4C5 12.8754 5.92668 11.5672 7.24752 11.008C7.75102 11.2218 8.30488 11.34 8.88635 11.34C9.46783 11.34 10.0217 11.2218 10.5252 11.008C11.846 11.5672 12.7727 12.8754 12.7727 14.4V14.8745C12.7727 15.3264 12.4064 15.6927 11.9545 15.6927H5.81818C5.36631 15.6927 5 15.3264 5 14.8745V14.4ZM6.22727 14.4C6.22727 13.5407 6.669 12.7826 7.34073 12.3436C7.83157 12.4893 8.35066 12.5673 8.88635 12.5673C9.42205 12.5673 9.94114 12.4893 10.432 12.3436C11.1037 12.7826 11.5455 13.5407 11.5455 14.4V14.4655H6.22727V14.4Z" fill="#191919"/>
</svg>
