<svg width="18" height="18" viewBox="0 0 18 18" fill="none" xmlns="http://www.w3.org/2000/svg">
<path fill-rule="evenodd" clip-rule="evenodd" d="M9.61364 0.613636C9.61364 0.274734 9.3389 0 9 0C8.6611 0 8.38636 0.274734 8.38636 0.613636V1.25114C4.58292 1.54819 1.54819 4.58292 1.25114 8.38636H0.613636C0.274734 8.38636 0 8.6611 0 9C0 9.3389 0.274734 9.61364 0.613636 9.61364H1.25114C1.54819 13.4171 4.58292 16.4518 8.38636 16.7489V17.3864C8.38636 17.7253 8.6611 18 9 18C9.3389 18 9.61364 17.7253 9.61364 17.3864V16.7489C13.4171 16.4518 16.4518 13.4171 16.7489 9.61364H17.3864C17.7253 9.61364 18 9.3389 18 9C18 8.6611 17.7253 8.38636 17.3864 8.38636H16.7489C16.4518 4.58292 13.4171 1.54819 9.61364 1.25114V0.613636ZM8.38636 2.48293V3.06818C8.38636 3.40708 8.6611 3.68182 9 3.68182C9.3389 3.68182 9.61364 3.40708 9.61364 3.06818V2.48293C12.7388 2.7735 15.2265 5.26117 15.5171 8.38636H14.9318C14.5929 8.38636 14.3182 8.6611 14.3182 9C14.3182 9.3389 14.5929 9.61364 14.9318 9.61364H15.5171C15.2265 12.7388 12.7388 15.2265 9.61364 15.5171V14.9318C9.61364 14.5929 9.3389 14.3182 9 14.3182C8.6611 14.3182 8.38636 14.5929 8.38636 14.9318V15.5171C5.26117 15.2265 2.7735 12.7388 2.48293 9.61364H3.06818C3.40708 9.61364 3.68182 9.3389 3.68182 9C3.68182 8.6611 3.40708 8.38636 3.06818 8.38636H2.48293C2.7735 5.26117 5.26117 2.7735 8.38636 2.48293Z" fill="#191919"/>
</svg>
