<svg width="18" height="18" viewBox="0 0 18 18" fill="none" xmlns="http://www.w3.org/2000/svg">
<path d="M1 3.28571C1 2.67951 1.24082 2.09812 1.66947 1.66947C2.09812 1.24082 2.67951 1 3.28571 1H12.8617C13.4679 1.00013 14.0492 1.24103 14.4777 1.66971L16.3303 3.52229C16.759 3.95084 16.9999 4.53213 17 5.13829V14.7143C17 15.3205 16.7592 15.9019 16.3305 16.3305C15.9019 16.7592 15.3205 17 14.7143 17H3.28571C2.67951 17 2.09812 16.7592 1.66947 16.3305C1.24082 15.9019 1 15.3205 1 14.7143V3.28571ZM3.28571 2.14286C2.98261 2.14286 2.69192 2.26327 2.47759 2.47759C2.26327 2.69192 2.14286 2.98261 2.14286 3.28571V14.7143C2.14286 15.0174 2.26327 15.3081 2.47759 15.5224C2.69192 15.7367 2.98261 15.8571 3.28571 15.8571V10.7143C3.28571 10.2596 3.46633 9.82359 3.78782 9.5021C4.10931 9.18061 4.54534 9 5 9H13C13.4547 9 13.8907 9.18061 14.2122 9.5021C14.5337 9.82359 14.7143 10.2596 14.7143 10.7143V15.8571C15.0174 15.8571 15.3081 15.7367 15.5224 15.5224C15.7367 15.3081 15.8571 15.0174 15.8571 14.7143V5.13829C15.8571 4.83521 15.7366 4.54456 15.5223 4.33029L13.6697 2.47771C13.4554 2.26337 13.1648 2.14292 12.8617 2.14286H12.4286V5C12.4286 5.45466 12.248 5.89069 11.9265 6.21218C11.605 6.53367 11.1689 6.71429 10.7143 6.71429H6.14286C5.6882 6.71429 5.25216 6.53367 4.93067 6.21218C4.60918 5.89069 4.42857 5.45466 4.42857 5V2.14286H3.28571ZM5.57143 2.14286V5C5.57143 5.15155 5.63163 5.2969 5.7388 5.40406C5.84596 5.51122 5.99131 5.57143 6.14286 5.57143H10.7143C10.8658 5.57143 11.0112 5.51122 11.1183 5.40406C11.2255 5.2969 11.2857 5.15155 11.2857 5V2.14286H5.57143ZM13.5714 15.8571V10.7143C13.5714 10.5627 13.5112 10.4174 13.4041 10.3102C13.2969 10.2031 13.1516 10.1429 13 10.1429H5C4.84845 10.1429 4.7031 10.2031 4.59594 10.3102C4.48878 10.4174 4.42857 10.5627 4.42857 10.7143V15.8571H13.5714Z" fill="#191919"/>
</svg>
