<svg width="18" height="18" viewBox="0 0 18 18" fill="none" xmlns="http://www.w3.org/2000/svg">
<path d="M4.09091 4.825C3.75201 4.825 3.47727 5.11042 3.47727 5.4625C3.47727 5.81458 3.75201 6.1 4.09091 6.1H11.4545C11.7934 6.1 12.0682 5.81458 12.0682 5.4625C12.0682 5.11042 11.7934 4.825 11.4545 4.825H4.09091Z" fill="#191919"/>
<path d="M3.47727 8.8625C3.47727 8.51042 3.75201 8.225 4.09091 8.225H6.54545C6.88436 8.225 7.15909 8.51042 7.15909 8.8625C7.15909 9.21458 6.88436 9.5 6.54545 9.5H4.09091C3.75201 9.5 3.47727 9.21458 3.47727 8.8625Z" fill="#191919"/>
<path fill-rule="evenodd" clip-rule="evenodd" d="M0.818182 1C0.366313 1 0 1.38056 0 1.85V14.8764C0 15.5245 0.670183 15.9341 1.21553 15.6194L4.45446 13.75H8.71341C9.17223 15.7016 10.8665 17.15 12.8864 17.15C13.8509 17.15 14.7419 16.8191 15.4588 16.2615L16.9525 17.8133C17.1921 18.0622 17.5806 18.0622 17.8203 17.8133C18.0599 17.5643 18.0599 17.1607 17.8203 16.9117L16.3266 15.36C16.8633 14.6152 17.1818 13.6896 17.1818 12.6875C17.1818 11.7084 16.8783 10.8029 16.3636 10.0671V1.85C16.3636 1.38056 15.9973 1 15.5455 1H0.818182ZM15.1364 8.88545V2.275H1.22727V14.1541L3.95111 12.582C4.07266 12.5118 4.20941 12.475 4.34846 12.475H8.59569C8.70246 10.1091 10.5826 8.225 12.8864 8.225C13.7113 8.225 14.482 8.46662 15.1364 8.88545ZM9.81818 12.6875C9.81818 10.9271 11.1919 9.5 12.8864 9.5C14.5809 9.5 15.9545 10.9271 15.9545 12.6875C15.9545 13.5679 15.6118 14.3639 15.0559 14.9414C14.5 15.5189 13.7338 15.875 12.8864 15.875C11.1919 15.875 9.81818 14.4479 9.81818 12.6875Z" fill="#191919"/>
</svg>
