<svg width="18" height="18" viewBox="0 0 18 18" fill="none" xmlns="http://www.w3.org/2000/svg">
<g clip-path="url(#clip0_118_3974)">
<path fill-rule="evenodd" clip-rule="evenodd" d="M7.5682 0C3.3884 0 0 3.3884 0 7.5682C0 11.748 3.3884 15.1364 7.5682 15.1364C11.748 15.1364 15.1364 11.748 15.1364 7.5682C15.1364 3.3884 11.748 0 7.5682 0ZM1.22728 7.5682C1.22728 4.0662 4.0662 1.22728 7.5682 1.22728C11.0702 1.22728 13.9091 4.0662 13.9091 7.5682C13.9091 11.0702 11.0702 13.9091 7.5682 13.9091C4.0662 13.9091 1.22728 11.0702 1.22728 7.5682Z" fill="#191919"/>
<path d="M16.9525 17.8203L13.1936 14.0613C13.503 13.793 13.7931 13.5029 14.0614 13.1935L17.8203 16.9525C18.06 17.1921 18.06 17.5806 17.8203 17.8203C17.5807 18.0599 17.1921 18.0599 16.9525 17.8203Z" fill="#191919"/>
</g>
<defs>
<clipPath id="clip0_118_3974">
<rect width="18" height="18" fill="white"/>
</clipPath>
</defs>
</svg>
