<svg width="29" height="28" viewBox="0 0 29 28" fill="none" xmlns="http://www.w3.org/2000/svg">
<path d="M7.32691 17.9231L7.85724 18.4534L7.32691 17.9231ZM11.9231 17.9231L11.3928 18.4534H11.3928L11.9231 17.9231ZM12.2019 18.2019L12.7322 17.6716H12.7322L12.2019 18.2019ZM16.7981 18.2019L16.2678 17.6716H16.2678L16.7981 18.2019ZM20.3269 14.6731L19.7966 14.1428L20.3269 14.6731ZM24.9231 14.6731L25.4534 14.1428L24.9231 14.6731ZM3.125 1.75H25.875V0.25H3.125V1.75ZM26.75 2.625V25.375H28.25V2.625H26.75ZM25.875 26.25H3.125V27.75H25.875V26.25ZM2.25 25.375V2.625H0.75V25.375H2.25ZM3.125 26.25C2.64175 26.25 2.25 25.8582 2.25 25.375H0.75C0.75 26.6867 1.81332 27.75 3.125 27.75V26.25ZM26.75 25.375C26.75 25.8582 26.3582 26.25 25.875 26.25V27.75C27.1867 27.75 28.25 26.6867 28.25 25.375H26.75ZM25.875 1.75C26.3582 1.75 26.75 2.14175 26.75 2.625H28.25C28.25 1.31332 27.1867 0.25 25.875 0.25V1.75ZM3.125 0.25C1.81332 0.25 0.75 1.31332 0.75 2.625H2.25C2.25 2.14175 2.64175 1.75 3.125 1.75V0.25ZM2.03033 24.2803L7.85724 18.4534L6.79658 17.3928L0.96967 23.2197L2.03033 24.2803ZM11.3928 18.4534L11.6716 18.7322L12.7322 17.6716L12.4534 17.3928L11.3928 18.4534ZM17.3284 18.7322L20.8572 15.2034L19.7966 14.1428L16.2678 17.6716L17.3284 18.7322ZM24.3928 15.2034L26.9697 17.7803L28.0303 16.7197L25.4534 14.1428L24.3928 15.2034ZM20.8572 15.2034C21.8335 14.2271 23.4165 14.2271 24.3928 15.2034L25.4534 14.1428C23.8913 12.5807 21.3587 12.5807 19.7966 14.1428L20.8572 15.2034ZM11.6716 18.7322C13.2337 20.2943 15.7663 20.2943 17.3284 18.7322L16.2678 17.6716C15.2915 18.6479 13.7085 18.6479 12.7322 17.6716L11.6716 18.7322ZM7.85724 18.4534C8.83355 17.4771 10.4165 17.4771 11.3928 18.4534L12.4534 17.3928C10.8913 15.8307 8.35867 15.8307 6.79658 17.3928L7.85724 18.4534ZM11.6229 8.87475C11.6229 10.1164 10.6148 11.1245 9.37313 11.1245V12.6245C11.4432 12.6245 13.1229 10.9448 13.1229 8.87475H11.6229ZM9.37313 11.1245C8.13335 11.1245 7.125 10.1167 7.125 8.87475H5.625C5.625 10.9446 7.3044 12.6245 9.37313 12.6245V11.1245ZM7.125 8.87475C7.125 7.63282 8.13335 6.625 9.37313 6.625V5.125C7.3044 5.125 5.625 6.80492 5.625 8.87475H7.125ZM9.37313 6.625C10.6148 6.625 11.6229 7.63309 11.6229 8.87475H13.1229C13.1229 6.80466 11.4432 5.125 9.37313 5.125V6.625Z" fill="#1743D7"/>
</svg>
