<svg width="18" height="18" viewBox="0 0 18 18" fill="none" xmlns="http://www.w3.org/2000/svg">
<path fill-rule="evenodd" clip-rule="evenodd" d="M15.1364 6.62718C16.7179 6.62718 18 5.34508 18 3.76354C18 2.182 16.7179 0.899902 15.1364 0.899902C13.5548 0.899902 12.2727 2.182 12.2727 3.76354C12.2727 3.90113 12.2824 4.03645 12.3012 4.16885L8.94652 6.28839C8.06032 5.00991 6.58248 4.17263 4.90909 4.17263C2.19788 4.17263 0 6.37051 0 9.08172C0 11.7929 2.19788 13.9908 4.90909 13.9908C6.58249 13.9908 8.06033 13.1535 8.94653 11.875L12.3012 13.9946C12.2824 14.127 12.2727 14.2623 12.2727 14.3999C12.2727 15.9814 13.5548 17.2635 15.1364 17.2635C16.7179 17.2635 18 15.9814 18 14.3999C18 12.8184 16.7179 11.5363 15.1364 11.5363C14.1373 11.5363 13.2577 12.0479 12.7453 12.8235L9.51546 10.7828C9.71125 10.2528 9.81818 9.67975 9.81818 9.08172C9.81818 8.48369 9.71125 7.91064 9.51546 7.38064L12.7453 5.33996C13.2577 6.11553 14.1373 6.62718 15.1364 6.62718ZM15.1364 5.3999C16.0401 5.3999 16.7727 4.66728 16.7727 3.76354C16.7727 2.8598 16.0401 2.12718 15.1364 2.12718C14.2326 2.12718 13.5 2.8598 13.5 3.76354C13.5 4.66728 14.2326 5.3999 15.1364 5.3999ZM8.59091 9.08172C8.59091 11.1151 6.9425 12.7635 4.90909 12.7635C2.87568 12.7635 1.22727 11.1151 1.22727 9.08172C1.22727 7.04831 2.87568 5.3999 4.90909 5.3999C6.9425 5.3999 8.59091 7.04831 8.59091 9.08172ZM16.7727 14.3999C16.7727 15.3036 16.0401 16.0363 15.1364 16.0363C14.2326 16.0363 13.5 15.3036 13.5 14.3999C13.5 13.4962 14.2326 12.7635 15.1364 12.7635C16.0401 12.7635 16.7727 13.4962 16.7727 14.3999Z" fill="#191919"/>
</svg>
