<svg width="18" height="18" viewBox="0 0 18 18" fill="none" xmlns="http://www.w3.org/2000/svg">
<path d="M15.5 4.50049C15.5 4.50049 17 6.00049 17 8.50049C17 11.0005 15.5 12.5005 15.5 12.5005" stroke="#191919" stroke-width="1.2" stroke-linecap="round" stroke-linejoin="round"/>
<path d="M13.088 5.93408C13.088 5.93408 14.1099 6.89219 14.1099 8.48905C14.1099 10.0859 13.088 11.044 13.088 11.044" stroke="#191919" stroke-width="1.2" stroke-linecap="round" stroke-linejoin="round"/>
<path d="M1 11.0003V7.00031C1 6.7351 1.10536 6.48074 1.29289 6.29321C1.48043 6.10567 1.73478 6.00031 2 6.00031H4.697C4.89453 6.00036 5.08765 5.9419 5.252 5.83231L9.445 3.03632C9.59574 2.93574 9.77098 2.87802 9.95198 2.86932C10.133 2.86062 10.313 2.90126 10.4726 2.98691C10.6323 3.07256 10.7658 3.19999 10.8586 3.35559C10.9515 3.51119 11.0004 3.6891 11 3.87032V14.1303C11 14.3114 10.9509 14.489 10.8579 14.6443C10.7648 14.7996 10.6314 14.9268 10.4718 15.0122C10.3121 15.0976 10.1323 15.1381 9.95148 15.1293C9.77065 15.1205 9.5956 15.0628 9.445 14.9623L5.252 12.1673C5.08754 12.0581 4.89443 12 4.697 12.0003H2C1.73478 12.0003 1.48043 11.895 1.29289 11.7074C1.10536 11.5199 1 11.2655 1 11.0003Z" stroke="#191919" stroke-width="1.2"/>
</svg>
