<svg width="18" height="18" viewBox="0 0 18 18" fill="none" xmlns="http://www.w3.org/2000/svg">
<path d="M15.2222 8.99995L17 10.7777M13.4445 10.7777L15.2222 8.99995L13.4445 10.7777ZM17 7.22217L15.2222 8.99995L17 7.22217ZM15.2222 8.99995L13.4445 7.22217L15.2222 8.99995Z" stroke="#191919" stroke-width="1.2" stroke-linecap="round" stroke-linejoin="round"/>
<path d="M1 10.9572V7.04325C1 6.78374 1.10309 6.53486 1.28659 6.35136C1.47009 6.16786 1.71898 6.06476 1.97849 6.06476H4.61746C4.81074 6.06481 4.99971 6.00761 5.16052 5.90038L9.26331 3.16453C9.41081 3.06612 9.58228 3.00964 9.75939 3.00113C9.9365 2.99261 10.1126 3.03239 10.2689 3.11619C10.4251 3.2 10.5557 3.32469 10.6465 3.47694C10.7374 3.62919 10.7852 3.80328 10.7849 3.98059V14.0199C10.7849 14.197 10.7368 14.3708 10.6458 14.5228C10.5548 14.6748 10.4242 14.7992 10.268 14.8828C10.1118 14.9663 9.93584 15.0059 9.7589 14.9973C9.58196 14.9887 9.41067 14.9323 9.26331 14.834L5.16052 12.0991C4.9996 11.9922 4.81064 11.9353 4.61746 11.9357H1.97849C1.71898 11.9357 1.47009 11.8326 1.28659 11.6491C1.10309 11.4656 1 11.2167 1 10.9572Z" stroke="#191919" stroke-width="1.2"/>
</svg>
