<svg width="11" height="10" viewBox="0 0 11 10" fill="none" xmlns="http://www.w3.org/2000/svg">
<path d="M5.21468 0.378115C5.30449 0.101722 5.69551 0.101722 5.78532 0.378115L6.77973 3.4386C6.81989 3.56221 6.93508 3.6459 7.06505 3.6459H10.283C10.5737 3.6459 10.6945 4.01778 10.4594 4.1886L7.85596 6.08009C7.75082 6.15648 7.70682 6.29189 7.74698 6.4155L8.74139 9.47599C8.8312 9.75238 8.51486 9.98222 8.27974 9.8114L5.67634 7.91991C5.57119 7.84352 5.42881 7.84352 5.32366 7.91991L2.72026 9.8114C2.48514 9.98222 2.1688 9.75238 2.25861 9.47599L3.25302 6.4155C3.29318 6.29189 3.24918 6.15648 3.14404 6.08009L0.540631 4.1886C0.305517 4.01778 0.426349 3.6459 0.716966 3.6459H3.93495C4.06492 3.6459 4.18011 3.56221 4.22027 3.4386L5.21468 0.378115Z" fill="#FF9820"/>
</svg>
