<svg width="18" height="18" viewBox="0 0 18 18" fill="none" xmlns="http://www.w3.org/2000/svg">
<g clip-path="url(#clip0_671_15658)">
<path d="M17.9245 6.75895C17.8384 6.48063 17.6801 6.23257 17.4672 6.04221C17.2543 5.85185 16.9949 5.72663 16.7179 5.68041L12.3713 4.94408L10.3564 0.862635C10.228 0.602803 10.0335 0.384844 9.79415 0.232673C9.55478 0.080502 9.27983 0 8.99946 0C8.71909 0 8.44413 0.080502 8.20477 0.232673C7.9654 0.384844 7.77087 0.602803 7.64252 0.862635L5.62757 4.94408L1.28106 5.68041C1.00434 5.72735 0.745366 5.85285 0.532562 6.04312C0.319758 6.23339 0.161345 6.48109 0.0747047 6.75903C-0.0119357 7.03697 -0.0234558 7.33442 0.0414085 7.61874C0.106273 7.90306 0.245015 8.16326 0.442412 8.37079L3.54366 11.6296L2.87241 16.1661C2.82934 16.455 2.86355 16.7507 2.97128 17.0207C3.07901 17.2907 3.25608 17.5245 3.48303 17.6964C3.70998 17.8682 3.978 17.9715 4.25762 17.9949C4.53725 18.0183 4.81764 17.9608 5.06796 17.8288L8.99946 15.7614L12.9311 17.8288C13.1814 17.9605 13.4617 18.0178 13.7412 17.9943C14.0208 17.9708 14.2887 17.8675 14.5155 17.6957C14.7424 17.5239 14.9195 17.2902 15.0273 17.0204C15.1351 16.7505 15.1694 16.4549 15.1266 16.1661L14.4554 11.6296L17.5566 8.37079C17.7546 8.16366 17.8938 7.90345 17.9587 7.61898C18.0237 7.3345 18.0118 7.03684 17.9245 6.75895ZM16.7046 7.48992L13.177 11.1967L13.9406 16.3569C13.9501 16.4187 13.9429 16.482 13.92 16.5398C13.8971 16.5976 13.8592 16.6477 13.8106 16.6845C13.7621 16.7213 13.7047 16.7433 13.6448 16.7482C13.585 16.7531 13.525 16.7406 13.4715 16.7121L8.99946 14.3604L4.52736 16.7122C4.4739 16.7407 4.41392 16.7532 4.35407 16.7483C4.29421 16.7434 4.23682 16.7214 4.18825 16.6846C4.13968 16.6478 4.10182 16.5977 4.07888 16.5399C4.05594 16.4821 4.04881 16.4187 4.05827 16.3569L4.82196 11.1967L1.29437 7.48988C1.25225 7.44552 1.22265 7.38992 1.20882 7.32919C1.19499 7.26846 1.19746 7.20493 1.21596 7.14556C1.23447 7.08619 1.26829 7.03328 1.31372 6.99262C1.35916 6.95196 1.41445 6.92512 1.47355 6.91503L6.41758 6.07751L8.70955 1.43502C8.73695 1.37948 8.77851 1.3329 8.82965 1.30037C8.8808 1.26784 8.93955 1.25064 8.99946 1.25064C9.05937 1.25064 9.11812 1.26784 9.16926 1.30037C9.22041 1.3329 9.26196 1.37948 9.28937 1.43502L11.5813 6.07751L16.5254 6.91503C16.5845 6.92512 16.6398 6.95196 16.6852 6.99262C16.7306 7.03328 16.7645 7.08619 16.783 7.14556C16.8015 7.20493 16.8039 7.26846 16.7901 7.32919C16.7763 7.38992 16.7467 7.44555 16.7046 7.48992Z" fill="#191919"/>
</g>
<defs>
<clipPath id="clip0_671_15658">
<rect width="18" height="18" fill="white"/>
</clipPath>
</defs>
</svg>
