<svg width="18" height="18" viewBox="0 0 18 18" fill="none" xmlns="http://www.w3.org/2000/svg">
<path fill-rule="evenodd" clip-rule="evenodd" d="M9.33488 0C7.26798 0 5.50682 1.30232 4.82421 3.12905C4.70282 3.45389 4.86776 3.81563 5.1926 3.93702C5.51745 4.05841 5.87919 3.89347 6.00058 3.56863C6.50575 2.21674 7.80889 1.25581 9.33488 1.25581C11.3 1.25581 12.893 2.84885 12.893 4.81395V5.44186H2.6372C2.17482 5.44186 1.79999 5.81669 1.79999 6.27907V17.1628C1.79999 17.6252 2.17482 18 2.6372 18H16.0325C16.4949 18 16.8698 17.6252 16.8698 17.1628V6.27907C16.8698 5.81669 16.4949 5.44186 16.0325 5.44186H14.1488V4.81395C14.1488 2.15528 11.9936 0 9.33488 0ZM3.0558 6.69767V16.7442H15.6139V6.69767H3.0558ZM7.66045 11.7209C7.66045 10.7962 8.41012 10.0465 9.33487 10.0465C10.2596 10.0465 11.0093 10.7962 11.0093 11.7209C11.0093 12.6457 10.2596 13.3953 9.33487 13.3953C8.41012 13.3953 7.66045 12.6457 7.66045 11.7209Z" fill="#191919"/>
</svg>
