<svg width="18" height="18" viewBox="0 0 18 18" fill="none" xmlns="http://www.w3.org/2000/svg">
<path fill-rule="evenodd" clip-rule="evenodd" d="M12.3751 7.7201L12.0991 6.87312C11.3708 4.63845 9.27139 3.02708 6.79989 3.02708C3.72307 3.02708 1.22727 5.52341 1.22727 8.60468C1.22727 11.686 3.72307 14.1823 6.79989 14.1823H13.5449C15.3267 14.1823 16.7727 12.7365 16.7727 10.9512C16.7727 9.16586 15.3267 7.7201 13.5449 7.7201H12.3751ZM6.79989 1.7998C9.8187 1.7998 12.378 3.76843 13.266 6.49282H13.5449C16.0054 6.49282 18 8.4889 18 10.9512C18 13.4135 16.0054 15.4096 13.5449 15.4096H6.79989C3.04441 15.4096 0 12.3629 0 8.60468C0 4.84645 3.04441 1.7998 6.79989 1.7998Z" fill="#191919"/>
<path fill-rule="evenodd" clip-rule="evenodd" d="M6.52064 5.8659C6.76028 5.62626 7.14881 5.62626 7.38845 5.8659L9.02482 7.50226C9.26446 7.7419 9.26446 8.13044 9.02482 8.37008C8.78518 8.60972 8.39664 8.60972 8.157 8.37008L7.56818 7.78125V11.2089C7.56818 11.5478 7.29345 11.8225 6.95455 11.8225C6.61564 11.8225 6.34091 11.5478 6.34091 11.2089V7.78125L5.75209 8.37008C5.51245 8.60972 5.12392 8.60972 4.88428 8.37008C4.64464 8.13044 4.64464 7.7419 4.88428 7.50226L6.52064 5.8659Z" fill="#191919"/>
</svg>
