<svg width="18" height="18" viewBox="0 0 18 18" fill="none" xmlns="http://www.w3.org/2000/svg">
<path d="M17.8203 1.04754C18.0599 0.807902 18.0599 0.419369 17.8203 0.17973C17.5806 -0.0599099 17.1921 -0.0599099 16.9525 0.17973L8.12473 9.00747C7.88509 9.24711 7.88509 9.63564 8.12473 9.87528C8.36437 10.1149 8.7529 10.1149 8.99254 9.87528L17.8203 1.04754Z" fill="#191919"/>
<path d="M13.6805 2.58393C12.2523 1.51553 10.4794 0.8828 8.5586 0.8828C3.83181 0.8828 0 4.71462 0 9.4414C0 14.1682 3.83181 18 8.5586 18C13.2854 18 17.1172 14.1682 17.1172 9.4414C17.1172 7.52065 16.4845 5.74768 15.4161 4.31955L14.5377 5.19792C15.3892 6.39555 15.8899 7.86 15.8899 9.4414C15.8899 13.4904 12.6076 16.7727 8.5586 16.7727C4.50962 16.7727 1.22727 13.4904 1.22727 9.4414C1.22727 5.39242 4.50962 2.11007 8.5586 2.11007C10.14 2.11007 11.6045 2.61077 12.8021 3.46229L13.6805 2.58393Z" fill="#191919"/>
<path d="M10.816 5.44838C10.1495 5.0708 9.37922 4.85525 8.55856 4.85525C6.02572 4.85525 3.97245 6.90853 3.97245 9.44137C3.97245 11.9742 6.02572 14.0275 8.55856 14.0275C11.0914 14.0275 13.1447 11.9742 13.1447 9.44137C13.1447 8.62073 12.9291 7.85044 12.5516 7.18402L11.6379 8.09772C11.8177 8.50918 11.9174 8.96363 11.9174 9.44137C11.9174 11.2964 10.4136 12.8002 8.55856 12.8002C6.70352 12.8002 5.19972 11.2964 5.19972 9.44137C5.19972 7.58633 6.70352 6.08252 8.55856 6.08252C9.03633 6.08252 9.49079 6.18227 9.90227 6.36208L10.816 5.44838Z" fill="#191919"/>
</svg>
