<svg width="94" height="28" viewBox="0 0 94 28" fill="none" xmlns="http://www.w3.org/2000/svg">
<g clip-path="url(#clip0_701_19034)">
<path d="M22.3556 12.5487C21.2651 14.4017 18.9161 15.0334 17.0705 13.9806L10.0656 9.89546C8.21998 8.80047 7.5908 6.44205 8.63944 4.589C9.73002 2.73596 12.079 2.10424 13.9246 3.15711L20.9295 7.24223C22.7751 8.33721 23.4462 10.6956 22.3556 12.5487Z" fill="url(#paint0_linear_701_19034)"/>
<path opacity="0.7" d="M13.9265 25.8158C11.7873 26.0264 9.85781 24.4681 9.64808 22.3624L8.05415 6.94843C7.84442 4.80058 9.3964 2.90542 11.4937 2.69485H11.5356C13.6748 2.48427 15.5624 4.04252 15.7721 6.14825L17.3661 21.5622C17.5758 23.7101 16.0657 25.6052 13.9265 25.8158Z" fill="url(#paint1_linear_701_19034)"/>
<path d="M4.98874 4.46416C6.21653 4.46416 7.21185 3.46482 7.21185 2.23208C7.21185 0.999336 6.21653 0 4.98874 0C3.76095 0 2.76562 0.999336 2.76562 2.23208C2.76562 3.46482 3.76095 4.46416 4.98874 4.46416Z" fill="url(#paint2_linear_701_19034)"/>
<path d="M19.5041 25.4364C18.4135 27.2895 16.0645 27.9212 14.2189 26.8683L1.92887 19.7509C0.0832628 18.6559 -0.54592 16.2975 0.502718 14.4445C1.5933 12.5914 3.94225 11.9597 5.78786 13.0126L18.0779 20.13C19.9655 21.1828 20.5946 23.5834 19.5041 25.4364Z" fill="url(#paint3_linear_701_19034)"/>
<path d="M31.5859 21.4794L31.7957 19.7948V9.09766H35.8224V18.5735H43.2468L44.5052 21.2267C44.5052 21.2688 44.2954 21.353 43.9599 21.3951C43.5824 21.4373 42.9112 21.4794 41.9884 21.4794H31.5859Z" fill="#191919"/>
<path d="M50.1261 21.69C48.7419 21.69 47.6513 21.353 46.9382 20.6792C46.2252 20.0054 45.8477 18.9525 45.8477 17.4785V9.09766H49.9583V17.0994C49.9583 17.7733 50.1261 18.1944 50.4197 18.405C50.7553 18.6156 51.1328 18.7419 51.6361 18.7419H54.3626C54.824 18.7419 55.2015 18.6156 55.5371 18.405C55.8726 18.1944 56.0404 17.7312 56.0404 17.0994V9.09766H60.0672V17.4785C60.0672 18.9525 59.7316 20.0054 59.0185 20.6792C58.3055 21.353 57.2568 21.69 55.8307 21.69H50.1261Z" fill="#191919"/>
<path d="M67.1144 21.4785C65.6043 21.4785 64.5138 21.1416 63.8426 20.4678C63.1715 19.7939 62.8359 18.7411 62.8359 17.2671V13.4346C62.8359 11.9185 63.2134 10.8235 63.9685 10.1076C64.7235 9.43372 65.7721 9.05469 67.1144 9.05469H73.2384C74.2032 9.05469 74.9582 9.0968 75.4616 9.22315C75.9649 9.34949 76.2166 9.43372 76.2166 9.56006L75.5874 12.1712C75.2518 12.1291 74.5388 12.0869 73.5321 12.0448C72.5254 12.0027 71.2251 11.9606 69.715 11.9606H68.6244C67.9533 11.9606 67.5338 12.0869 67.2822 12.3396C67.0305 12.5923 66.9466 12.9714 66.9466 13.4767V17.0565C66.9466 17.5197 67.0305 17.8988 67.2402 18.1515C67.45 18.4041 67.9114 18.5305 68.6244 18.5305H69.5053C71.5187 18.5305 73.0287 18.4884 74.0774 18.4463C75.126 18.4041 75.7552 18.362 75.9649 18.2778L77.2233 20.552C77.2233 20.6362 77.0974 20.7205 76.8038 20.8889C76.5102 21.0153 76.0488 21.1416 75.3357 21.2679C74.6646 21.3943 73.6998 21.4364 72.5254 21.4364H67.1144V21.4785Z" fill="#191919"/>
<path d="M83.7647 21.4794V16.3414L77.6406 9.09766H82.6741L84.7714 12.0036L85.7361 13.5197H85.9458L86.9106 12.0036L88.9659 9.09766H93.9994L93.1605 10.3611L87.8334 16.4256V21.4794H83.7647Z" fill="#191919"/>
</g>
<defs>
<linearGradient id="paint0_linear_701_19034" x1="8.10035" y1="8.5824" x2="22.8803" y2="8.5824" gradientUnits="userSpaceOnUse">
<stop stop-color="#2F4858"/>
<stop offset="1" stop-color="#00BF8A"/>
</linearGradient>
<linearGradient id="paint1_linear_701_19034" x1="8.78944" y1="11.5161" x2="15.5694" y2="15.6462" gradientUnits="userSpaceOnUse">
<stop stop-color="#57E260"/>
<stop offset="1" stop-color="#00BF8A"/>
</linearGradient>
<linearGradient id="paint2_linear_701_19034" x1="2.7405" y1="2.24543" x2="7.21332" y2="2.24543" gradientUnits="userSpaceOnUse">
<stop stop-color="#57E260"/>
<stop offset="1" stop-color="#00BF8A"/>
</linearGradient>
<linearGradient id="paint3_linear_701_19034" x1="-0.000628245" y1="19.9378" x2="20.0434" y2="19.9378" gradientUnits="userSpaceOnUse">
<stop stop-color="#2F4858"/>
<stop offset="1" stop-color="#00BF8A"/>
</linearGradient>
<clipPath id="clip0_701_19034">
<rect width="94" height="27.4167" fill="white"/>
</clipPath>
</defs>
</svg>
