<svg width="99" height="21" viewBox="0 0 99 21" fill="none" xmlns="http://www.w3.org/2000/svg">
<path d="M0 19.693L0.332429 17.0229V0.0673828H6.71507V15.087H18.4831L20.4776 19.2925C20.4776 19.3593 20.1452 19.4928 19.6133 19.5595C19.015 19.6263 17.9512 19.693 16.4885 19.693H0Z" fill="#F4EFE6"/>
<path d="M29.3865 20.0258C27.1924 20.0258 25.4638 19.4918 24.3335 18.4237C23.2033 17.3557 22.6049 15.6868 22.6049 13.3504V0.0664062H29.1205V12.7497C29.1205 13.8177 29.3865 14.4853 29.8519 14.819C30.3838 15.1528 30.9821 15.3531 31.78 15.3531H36.1015C36.8329 15.3531 37.4313 15.1528 37.9631 14.819C38.495 14.4853 38.761 13.751 38.761 12.7497V0.0664062H45.1436V13.3504C45.1436 15.6868 44.6117 17.3557 43.4815 18.4237C42.3512 19.4918 40.6891 20.0258 38.4285 20.0258H29.3865Z" fill="#F4EFE6"/>
<path d="M56.3135 19.6924C53.92 19.6924 52.1914 19.1584 51.1276 18.0903C50.0638 17.0222 49.5319 15.3534 49.5319 13.017V6.94241C49.5319 4.53927 50.1303 2.80366 51.327 1.66885C52.5238 0.600785 54.1859 0 56.3135 0H66.0204C67.5496 0 68.7463 0.0667537 69.5442 0.267015C70.342 0.467277 70.7409 0.600786 70.7409 0.801048L69.7436 4.93979C69.2117 4.87304 68.0815 4.80628 66.4858 4.73953C64.8902 4.67277 62.8291 4.60602 60.4356 4.60602H58.707C57.6432 4.60602 56.9783 4.80628 56.5794 5.20681C56.1805 5.60733 56.0475 6.20811 56.0475 7.00916V12.6832C56.0475 13.4175 56.1805 14.0183 56.5129 14.4188C56.8454 14.8194 57.5767 15.0196 58.707 15.0196H60.1032C63.2945 15.0196 65.688 14.9529 67.3501 14.8861C69.0123 14.8194 70.0096 14.7526 70.342 14.6191L72.3366 18.2238C72.3366 18.3573 72.1371 18.4908 71.6717 18.7579C71.2063 18.9581 70.475 19.1584 69.3447 19.3586C68.2809 19.5589 66.7518 19.6257 64.8902 19.6257H56.3135V19.6924Z" fill="#F4EFE6"/>
<path d="M82.7079 19.6921V11.5481L73.001 0.0664062H80.9793L84.3036 4.67243L85.8327 7.07557H86.1652L87.6943 4.67243L90.9522 0.0664062H98.9305L97.6008 2.06902L89.157 11.6816V19.6921H82.7079Z" fill="#F4EFE6"/>
</svg>
