<svg width="187" height="54" viewBox="0 0 187 54" fill="none" xmlns="http://www.w3.org/2000/svg">
<path d="M44.476 24.7193C42.3064 28.3691 37.6335 29.6133 33.9619 27.5396L20.0266 19.4935C16.3551 17.3368 15.1034 12.6916 17.1895 9.04188C19.3591 5.39211 24.032 4.14787 27.7036 6.2216L41.6389 14.2677C45.3104 16.4244 46.6456 21.0695 44.476 24.7193Z" fill="url(#paint0_linear_1276_26789)"/>
<path opacity="0.7" d="M27.7035 50.8482C23.4478 51.2629 19.6093 48.1938 19.1921 44.0464L16.0212 13.6869C15.604 9.4565 18.6914 5.72379 22.8637 5.30904H22.9471C27.2028 4.89429 30.9578 7.96342 31.375 12.1109L34.5459 42.4703C34.9632 46.7007 31.9591 50.4335 27.7035 50.8482Z" fill="url(#paint1_linear_1276_26789)"/>
<path d="M9.92941 8.79263C12.3719 8.79263 14.352 6.82433 14.352 4.39631C14.352 1.9683 12.3719 0 9.92941 0C7.48689 0 5.50684 1.9683 5.50684 4.39631C5.50684 6.82433 7.48689 8.79263 9.92941 8.79263Z" fill="url(#paint2_linear_1276_26789)"/>
<path d="M38.8016 50.1018C36.632 53.7516 31.9591 54.9958 28.2875 52.9221L3.83815 38.9036C0.166575 36.747 -1.0851 32.1018 1.00102 28.452C3.17059 24.8023 7.84351 23.558 11.5151 25.6318L35.9644 39.6502C39.7195 41.7239 40.9711 46.452 38.8016 50.1018Z" fill="url(#paint3_linear_1276_26789)"/>
<path d="M62.834 42.3041L63.2512 38.9861V17.917H71.2619V36.5806H86.0317L88.535 41.8064C88.535 41.8893 88.1178 42.0552 87.4502 42.1382C86.6992 42.2211 85.3641 42.3041 83.5283 42.3041H62.834Z" fill="white"/>
<path d="M99.7165 42.7188C96.9628 42.7188 94.7932 42.0552 93.3746 40.7281C91.9561 39.4009 91.2051 37.3271 91.2051 34.4239V17.917H99.3827V33.6774C99.3827 35.0045 99.7165 35.834 100.301 36.2488C100.968 36.6635 101.719 36.9124 102.72 36.9124H108.144C109.062 36.9124 109.813 36.6635 110.481 36.2488C111.148 35.834 111.482 34.9216 111.482 33.6774V17.917H119.493V34.4239C119.493 37.3271 118.825 39.4009 117.407 40.7281C115.988 42.0552 113.902 42.7188 111.065 42.7188H99.7165Z" fill="white"/>
<path d="M133.511 42.304C130.507 42.304 128.338 41.6404 127.003 40.3132C125.668 38.9861 125 36.9123 125 34.0091V26.4607C125 23.4745 125.751 21.3179 127.253 19.9077C128.755 18.5805 130.841 17.834 133.511 17.834H145.694C147.614 17.834 149.116 17.9169 150.117 18.1658C151.118 18.4146 151.619 18.5805 151.619 18.8294L150.367 23.9722C149.7 23.8893 148.281 23.8063 146.278 23.7234C144.276 23.6404 141.689 23.5575 138.685 23.5575H136.515C135.18 23.5575 134.346 23.8063 133.845 24.304C133.344 24.8017 133.178 25.5483 133.178 26.5437V33.5944C133.178 34.5068 133.344 35.2533 133.762 35.751C134.179 36.2487 135.097 36.4976 136.515 36.4976H138.268C142.273 36.4976 145.277 36.4146 147.363 36.3317C149.449 36.2487 150.701 36.1658 151.118 35.9999L153.622 40.4791C153.622 40.645 153.371 40.8109 152.787 41.1427C152.203 41.3916 151.285 41.6404 149.867 41.8893C148.531 42.1381 146.612 42.2211 144.276 42.2211H133.511V42.304Z" fill="white"/>
<path d="M166.639 42.3041V32.1843L154.456 17.917H164.469L168.642 23.6405L170.561 26.6267H170.978L172.897 23.6405L176.986 17.917H187L185.331 20.4055L174.733 32.3502V42.3041H166.639Z" fill="white"/>
<defs>
<linearGradient id="paint0_linear_1276_26789" x1="16.1171" y1="16.9073" x2="45.5197" y2="16.9073" gradientUnits="userSpaceOnUse">
<stop stop-color="#2F4858"/>
<stop offset="1" stop-color="#00BF8A"/>
</linearGradient>
<linearGradient id="paint1_linear_1276_26789" x1="17.4831" y1="22.6824" x2="30.8976" y2="30.936" gradientUnits="userSpaceOnUse">
<stop stop-color="#57E260"/>
<stop offset="1" stop-color="#00BF8A"/>
</linearGradient>
<linearGradient id="paint2_linear_1276_26789" x1="5.45685" y1="4.42261" x2="14.3549" y2="4.42261" gradientUnits="userSpaceOnUse">
<stop stop-color="#57E260"/>
<stop offset="1" stop-color="#00BF8A"/>
</linearGradient>
<linearGradient id="paint3_linear_1276_26789" x1="-0.0003148" y1="39.2717" x2="39.8744" y2="39.2717" gradientUnits="userSpaceOnUse">
<stop stop-color="#2F4858"/>
<stop offset="1" stop-color="#00BF8A"/>
</linearGradient>
</defs>
</svg>
